<svg xmlns="http://www.w3.org/2000/svg" viewBox="0 0 108.51 117.88"><defs><style>.cls-1{fill:#dad800;}.cls-2{fill:#eb4e23;}.cls-3{fill:#04294f;}.cls-4{fill:#fafafa;}</style></defs><g id="Camada_2" data-name="Camada 2"><g id="Layer_1" data-name="Layer 1"><path class="cls-1" d="M4.2,16.73A6.75,6.75,0,0,0,.13,22a7.33,7.33,0,0,0,8.08,8.7,112.7,112.7,0,0,1,13.61-.79A46.62,46.62,0,0,1,34.9,31.76C46.63,35.39,54,43.15,56.75,55.15A29.67,29.67,0,0,1,54.56,75a18.07,18.07,0,0,1-7.77,8.5,26,26,0,0,1-9.35,2.87,63.43,63.43,0,0,1-15-.22c-3.78-.46-7,1.25-8.39,4.45a7.45,7.45,0,0,0,3.25,9.44A43.63,43.63,0,0,0,29.94,105a41.22,41.22,0,0,0,10,1c2.57-.09,5.11-.51,7.67-.8,5.45-.61,10.87-.65,16.18,1.08a42.89,42.89,0,0,1,5.82,2.54L87,117.41s0,0,0,0h.64A5.5,5.5,0,0,0,90,115.63a67,67,0,0,0,6.77-10c1.53-2.64,3-5.32,4.29-8.07A107,107,0,0,0,106.29,85c.52-1.57.95-3.16,1.34-4.77.16-.64.1-1.32.28-2V75.73a2.59,2.59,0,0,0-1.61-1.41q-7.44-3.51-14.86-7.06a20.83,20.83,0,0,1-9.12-9,10.29,10.29,0,0,1-1.06-4.35c-.25-3.31-.44-6.63-.66-10a46.69,46.69,0,0,0-7.72-23.74A46.63,46.63,0,0,0,56.44,5.54,54.32,54.32,0,0,0,42.17.17a6.69,6.69,0,0,0-7.52,3.5.61.61,0,0,1-.73.38,47.9,47.9,0,0,0-12.2.06,7,7,0,0,0-5.67,7.76c.09.59-.08.76-.62.88-1.22.3-2.43.67-3.65,1-.18.05-.38.07-.49.27a3.74,3.74,0,0,0-.85,1.26,9.13,9.13,0,0,1-3.76,3.9A2.58,2.58,0,0,1,5,19.48a1.27,1.27,0,0,1-1.06-1.6C4,17.49,4.35,17.16,4.2,16.73Z"/><path class="cls-2" d="M4.2,16.73a7.43,7.43,0,0,0-.33.77,1.58,1.58,0,0,0,2,2.15,5.76,5.76,0,0,0,3.05-1.92,15.26,15.26,0,0,0,2.4-3.7,7.83,7.83,0,0,0-2.51.7A33.24,33.24,0,0,0,4.2,16.73Z"/><path class="cls-2" d="M86.55,115.26a4.7,4.7,0,0,0,.2,1.71,1.15,1.15,0,0,0,1.68.78,7,7,0,0,0,2.47-1.88A47.07,47.07,0,0,0,97.23,107a100.76,100.76,0,0,0,10.46-24.21,20.4,20.4,0,0,0,.81-5,5.24,5.24,0,0,0-.13-1.63,1.21,1.21,0,0,0-1.89-.88,7.54,7.54,0,0,0-2.31,1.82,53,53,0,0,0-7.24,10.46A104.19,104.19,0,0,0,88,108,28.34,28.34,0,0,0,86.55,115.26Z"/><path class="cls-3" d="M34.09,12.51a6.54,6.54,0,0,0-1.33,3.21,5.37,5.37,0,0,0,.13,1.65c.07.34.22.61.61.66a.74.74,0,0,0,.76-.46,28.93,28.93,0,0,0,1.93-4.2c.16-.42.34-.54.8-.45,1.18.21,2.34.49,3.51.75,0,.27-.22.38-.36.54A8.89,8.89,0,0,0,38,21.07c0,.42.13.84.64.91s.65-.29.81-.66c.94-2.19,1.78-4.42,2.83-6.55.21-.44.41-.52.88-.37A52.51,52.51,0,0,1,62.43,25.29c1.4,1.21,2.75,2.47,4,3.8.33.34.67.62,1.11.24s.2-.76-.08-1.12A46.66,46.66,0,0,0,52.2,15.32a45.86,45.86,0,0,0-17.44-5.18,49.07,49.07,0,0,0-14.9,1,1.87,1.87,0,0,0-.77.27c-.3.24-.53.46-.38.86s.43.43.78.4c1.35-.12,2.69-.25,4-.34A55.79,55.79,0,0,1,34.09,12.51Z"/><path class="cls-3" d="M37.74,3c-.4-.05-.74,0-.82.5s.2.7.62.81c2.59.72,5.14,1.49,7.65,2.44A57.71,57.71,0,0,1,63,17.59c1.19,1.05,2.33,2.15,3.48,3.24.34.32.68.61,1.1.21s.18-.74-.08-1.09A41.68,41.68,0,0,0,48.35,5.41,37.9,37.9,0,0,0,37.74,3Z"/><path class="cls-2" d="M20.18,91.54a3.69,3.69,0,0,0-2.77,1.13,3.23,3.23,0,0,0-.19,4.58,4.37,4.37,0,0,0,2.69,1.61A3.15,3.15,0,0,0,23,97.76a5.08,5.08,0,0,0,1.12-2.35,2.86,2.86,0,0,0-1-2.83A4.25,4.25,0,0,0,20.18,91.54Z"/><path class="cls-3" d="M38.5,96.57a9.49,9.49,0,0,0-.11-1.6c-.07-.38-.2-.66-.61-.72a.76.76,0,0,0-.81.51A15.42,15.42,0,0,0,35.87,98a18.06,18.06,0,0,0-.58,4.26c0,.26,0,.51.06.77a.65.65,0,0,0,.56.68.75.75,0,0,0,.79-.43,10.48,10.48,0,0,0,1.23-2.88A13.61,13.61,0,0,0,38.5,96.57Z"/><path class="cls-3" d="M44.18,98.87a5,5,0,0,0-.49-2.18A.71.71,0,0,0,43,96.2a.69.69,0,0,0-.62.55A35.48,35.48,0,0,0,41,102.49a.74.74,0,0,0,.36.83.68.68,0,0,0,.83-.12A5.49,5.49,0,0,0,44.18,98.87Z"/><path class="cls-4" d="M94.69,99.51c0,.36,0,.67.12.95a.87.87,0,0,0,1.31.65,3.43,3.43,0,0,0,1.23-.94,12.34,12.34,0,0,0,3-6.52,1.94,1.94,0,0,0,0-.24c0-.61,0-1.28-.6-1.6s-1.17.12-1.6.53A11.75,11.75,0,0,0,94.69,99.51Z"/></g></g></svg>