<?xml version="1.0" encoding="utf-8"?>
<!-- Generator: Adobe Illustrator 25.3.1, SVG Export Plug-In . SVG Version: 6.00 Build 0)  -->
<svg version="1.1" id="Layer_1" xmlns="http://www.w3.org/2000/svg" xmlns:xlink="http://www.w3.org/1999/xlink" x="0px" y="0px"
	 viewBox="0 0 963.1 166.9" style="enable-background:new 0 0 963.1 166.9;" xml:space="preserve">
<style type="text/css">
	.st0{fill:#FFFFFF;}
</style>
<g>
	<polygon class="st0" points="319.5,57.1 379,130.2 404.5,130.2 404.5,42.6 387.4,42.6 387.4,115.6 327.9,42.6 302.4,42.6 
		302.4,130.2 319.5,130.2 	"/>
	<path class="st0" d="M449,111.4h58.8l10.1,18.8h18.7L489,42.6h-21.2l-47.7,87.5h18.8L449,111.4z M478.5,57.1l20.8,38.7h-41.7
		L478.5,57.1z"/>
	<polygon class="st0" points="572.2,130.2 589.3,130.2 589.3,58.1 631.2,58.1 631.2,42.6 530.4,42.6 530.4,58.1 572.2,58.1 	"/>
	<rect x="650" y="42.6" class="st0" width="17.1" height="87.5"/>
	<polygon class="st0" points="753.4,85.8 797.4,42.6 775.9,42.6 742.6,75.6 709.3,42.6 687.8,42.6 731.8,85.8 686.2,130.2 
		707.7,130.2 742.6,95.9 777.5,130.2 799,130.2 	"/>
	<rect x="821.7" y="42.6" class="st0" width="17.1" height="87.5"/>
	<path class="st0" d="M963.1,102.7c0-17.4-13.2-23.6-40.7-26.3c-25.3-2.6-40.9-1.1-40.9-10.7c0-6.8,9.8-10.4,29.2-10.4
		c13.4,0,25.5,2.8,37.2,9l10.5-11.1c-12.2-8.5-28.3-12.8-48-12.8c-30,0-46.8,10.7-46.8,27.2c0,14,10.1,20.8,31.6,22.8
		c16.5,1.6,30,0.7,39.6,3.4c6.7,1.8,10,5.3,10,9.8c0,8.3-10.8,13.8-31,13.8c-17.5,0-32.6-4.4-44.4-12.7l-9.3,12.1
		c13.7,10.4,31.5,15.4,53.9,15.4C946.1,132.2,963.1,121.3,963.1,102.7z"/>
	<path class="st0" d="M298.4,13c-2,0.7-4,1.5-6,2.2c-0.2,0.1-0.4,0.2-0.6-0.1c-0.8-1.2-1.9-1.1-3.1-0.7c-0.9,0.3-1.8,0.3-2.8,0.3
		c1-1.7,2.9-1.9,4.5-3c-1.1-0.2-1.8-0.3-2.5,0c-0.5,0.2-1.4,0.6-1.6,0.2c-0.8-1.5-1.3-0.2-1.7,0.1c-0.7,0.7-1.7,1.2-2.5,0.8
		c-0.8-0.4-1.1-0.2-1.6,0.4c-0.6,0.7-1.6,0.6-2.4,0.7c0,0-0.2-0.2-0.1-0.3c0.3-0.8,1.1-0.9,1.7-1.3c0.1,0,0.2-0.1,0.2-0.1
		c3.2-1,6.3-2.1,9.5-3.1c0.4-0.1,1.3-0.1,1.1-0.7C290.4,7.7,289.6,8,289,8c-0.2,0-0.3,0.1-0.5,0.1c-3.4,1.5-7,2.1-10.5,2.7
		c-1,0.2-1.6,0.4-0.4,1.5c-0.9-0.1-1.8-0.7-2.3,0.3c-0.1,0.1-0.2,0.1-0.3,0c-0.6-1.2-0.9-0.2-1.3,0.2c-0.4,0.3-0.5,0.8-1.2,0.9
		c0-1.2,0.7-1.8,1.7-2.2c0.5-0.2,0.9-0.5,1-1.1c0.1-0.6-0.4-0.8-0.9-1.1c-0.8-0.4-1.7-0.8-2.5-1.2c-0.7-0.4-1.2,0-1.6,0.5
		c-0.4,0.6-0.9,0.9-1.6,1c-1,0.1-1.1,0.9-0.6,1.6c0.6,0.7,0.2,1-0.3,1.4c-0.5,0.4-1.2,0.5-1.8,0.6c-0.4,0.1-0.9,0.2-1.1-0.3
		c-0.2-0.5-0.5-1-0.1-1.4c0.4-0.5,1.1-0.9,0.8-1.5c-0.3-0.6-1.1,0.2-1.8-0.2c0.5-0.4,0.9-0.8,1.3-1c2.5-1.1,4.2-3.6,7-4.3
		c0.4-0.1,0.7-0.4,1-0.8c0.8-0.9,1.6-1.4,2.8-0.9c0.8,0.3,1.9-0.6,1.6-1.1c-0.3-0.5-0.2-0.8,0.2-1.1c0.1-0.1,0.3-0.3,0.2-0.5
		c-0.1-0.3-0.4-0.2-0.7-0.1c-1.1,0.3-2.1,0.6-3.1,0.8c-1.1,0.2-2.1,1.1-3.2,1.1c-1.3,0.1-2.5,0.4-3.5,1c-2.1,1.2-4.5,1.5-6.6,2.5
		c-0.9,0.4-2.1,0.6-2.6,1.8c-0.1,0.3-0.4,0.4-0.7,0.1c-0.8-1-1.1-0.5-1.2,0.5c0,0.3-0.1,0.5-0.4,0.5c-0.5-0.2,0.2-0.8-0.4-1.1
		c-1,0.6-1.6,1.4-2.2,2.8c-0.2-1.7-1.1-1.2-1.9-1c-0.4,0.1-0.8,0.7-1.2,0.5c-1.2-0.6-1.5,0.1-1.6,1.3c-0.6-0.7-0.3-1.2-0.1-1.7
		c0.1-0.5-0.2-0.7-0.6-0.8c-0.5-0.1-0.5,0.3-0.5,0.6c0,0.4-0.2,0.8-0.2,1.2c0,0.8-0.2,1.2-1,0.6c-0.4-0.3-0.5-0.1-0.8,0.2
		c-0.6,0.6-1.3,1.1-2.1,1.4c-0.4,0.2-0.9,0.2-1.2,0.6c-0.2,0.2-0.4,0.5-0.7,0.2c-0.2-0.3-0.3-0.6,0.1-0.9c0.2-0.1,0.4-0.2,0.7-0.3
		c0.4-0.1,0.6-0.3,0.4-0.7c-0.2-0.4-0.5-0.5-0.9-0.3c-1.1,0.6-2.3,1-1.9,2.6c0.1,0.3-0.1,0.6-0.5,0.5c-0.4-0.1-0.2-0.4-0.1-0.6
		c0.2-0.6,0.1-1.2-0.6-0.7c-1.1,0.8-2.4,1.2-3.7,1.5c-0.6,0.2-0.5,0.8-0.7,1.2c-0.1,0.3-0.1,0.5,0.3,0.5c1,0.2,0.4,0.5,0,0.7
		c-0.3,0.2-0.9,0.2-0.3,0.7c0.7,0.7,0.1,1.2,0,1.9c-0.1-1.1-0.7-1.6-1.4-2.3c-0.7-0.6-1.6-0.4-2.2-1c-0.3-0.3-0.4-1.2-1.2-0.4
		c-0.4,0.4-1.1,0.3-1.2,1.1c1.5-0.6,1.5-0.6,1.6,0.8c0,0.6,0.3,0.7,0.8,0.5c0.3-0.1,0.6-0.2,0.7,0.3c0,0.3-0.3,0.4-0.6,0.5
		c-0.4,0.1-0.8,0-1-0.3c-0.4-0.5-0.6-0.8-1.3-0.3c-0.4,0.2-0.9,0-0.8-0.6c0-0.3,0.4-0.7-0.1-0.9c-0.4-0.2-0.7,0.2-1,0.3
		c-1.4,0.6-1.3,2-2,3c-0.2,0.3-0.3,0.9-0.9,0.6c-1.1-0.6-1.4,0.1-1.7,0.9c-0.6,1.4-1.4,1.5-2.4,0.4c-0.2-0.2-0.4-0.4-0.6-0.3
		c-0.9,0.3-2.2,0.3-2.7,1c-0.7,0.8-2,0.7-2.3,1.9c0,0.1-0.3,0.2-0.4,0.2c-0.9-0.2-1.6,0.4-2.3,0.8c-0.9,0.6-1.7,1.6-3.1,1.2
		c-0.2-0.1-0.5,0.1-0.6,0.4c-0.3,0.8-0.6,1.1-1.5,0.6c-0.2-0.1-0.5-0.1-0.7,0.1c-1,0.9-2.3,1.3-3.4,2c-1.9,1.2-3.7,2.6-5.7,3.6
		c-3,1.5-5.8,3.5-8.6,5.3c-2.8,1.7-5.6,3.6-8.3,5.5c-0.7,0.5-1.5,1.2-2.6,0.7c-0.2-0.1-0.4,0-0.4,0.2c-0.2,1.8-2,2-2.9,3
		c-0.7,0.8-1,0.7-1.3-0.5c-0.3,0.2-0.5,0.5-0.6,0.8c-0.2,1.3-1,2.2-2,2.7c-1.1,0.6-2.1,1.1-3.1,1.8c-1.2,0.8-2.2,1.7-3.1,2.8
		c-0.4,0.4-0.8,0.7-1.3,0.6c-0.9-0.1-1.2,0.4-1.5,1c-0.6,1.1-2.3,0.9-2.4,2.5c0,0-0.2,0-0.4,0c-1.3-0.1-1.9,0.7-2.6,1.6
		c-0.6,0.8-0.8,2.2-2.4,1.9c-0.2,0-0.4,0.2-0.6,0.4c-0.6,0.4-0.8,1.1-1.2,1.6c-1.2,1.6-3.3,2.1-4.5,3.7c-0.1,0.1-0.4,0.2-0.6,0.2
		c-0.9-0.1-1.1,0.5-1.4,1.1c-0.4,0.9-0.8,1.9-2.2,1.5c-0.3-0.1-0.4,0.4-0.6,0.6c-0.5,0.6-0.6,1.4-1.3,1.9c-0.8,0.6-1.5,1.3-2.3,1.9
		c-1.1,0.8-2,1.7-2.9,2.6c-0.8,0.7-1.2,1.3-1.3,2.3c0,0.3,0.1,0.6-0.3,0.7c-0.3-0.3-0.3-0.7-0.4-1c-0.3-2.5-0.9-5-2-7.3
		c-0.6-1.1-1.1-2.2-1.6-3.4c-0.4-1-1.4-2.2-1.1-2.8c0.7-1.4,0-2.1-0.6-3c-0.1-0.2-0.2-0.4-0.4-0.9c1.2,0.7,1-0.1,0.8-0.6
		c-0.2-0.6-0.2-1.1-0.3-1.7c-0.2-1,0.2-2.4-0.6-3c-1.1-0.9-0.9-2.2-1.5-3.2c-0.4-0.7-0.7-1.9-2-1.6c0-0.5,0.9-0.4,0.6-0.8
		c-0.8-1.1-0.2-2.9-1.7-3.6c-0.3-0.1-0.5-0.5-0.4-0.7c0.8-1.1-0.6-1.8-0.4-2.8c0.1-0.3-0.2-0.6-0.6-0.8c-0.4-0.1-0.7-0.7-1.1-0.3
		c-0.3,0.3,0.1,0.7,0.3,1c0.5,0.6,1,1.2,1,2c0,2,0.2,4,0.8,6c0,0.2,0.1,0.3-0.2,0.5c-0.5-1.7-2.5-2.3-2.7-4.2
		c-0.1-0.8-1.1-1.5-1.5-2.5c-0.3-0.7-1-1.1-1.6,0.1c-0.7-1.9-2.1-3-3.2-4.5c-1.1-1.5-2.4-2.6-3.7-3.8c-3.1-3-6.9-4.6-10.9-5.8
		c-0.8-0.2-1.4-0.6-1.9-1.3c-0.4-0.6-1-1.1-1.7-1c-0.8,0.1-1.5-0.1-2.3-0.1c-2.9-0.2-5.7-0.3-8.6-0.7c-1.9-0.3-3.7,0.3-5.6,0.2
		c-1,0-2.1,0.1-3.1,0.2c-0.3,0-0.7,0.2-0.7,0.6c0,0.3,0.3,0.4,0.6,0.4c1.3-0.3,2.5,0.4,3.8,0c2.8-0.7,5.5-0.3,8.3,0.4
		c-0.2,0-0.4,0.1-0.5,0.1c-5.7,0.1-11.4,1-17,2.1c-1.1,0.2-2.1,0.7-2.2-1.1c0-0.1-0.1-0.3-0.2-0.4c-0.3-0.2-0.6-0.1-0.8,0.1
		c-0.3,0.2-0.3,0.5,0,0.7c0.7,0.5,0.7,1.2,0.3,1.6c-0.4,0.4-1,0.7-1.7,0.4c-0.4-0.2-0.9-0.3-1,0.3c-0.2,0.9-0.8,1-1.4,1.2
		c-2.5,1.1-4.9,2.1-7.1,3.7c-1.1,0.8-2.4,1.5-3.7,2c-2.4,1-5,1.7-6.7,3.8c-0.2,0.3-0.4,0.1-0.6,0c-0.2-0.2-0.5-0.5-0.9-0.3
		c0.7,1-0.1,1.4-0.7,1.9c-1.8,1.4-3.8,2.5-5.7,3.9c-1.7,1.4-3.6,2.7-5.5,3.8c-0.7,0.4-1.3,1-2.1,1.4c-0.3,0.1-0.8,0.3-1.1,0.7
		c-0.6,0.9-1.4,1.7-2.4,2.3c-1.4,0.8-2.7,1.5-3.5,2.9c-0.5,0.8-1.4,0.3-1.9,1c-0.5,0.7-1,1.4-2.2,1.4c-1-0.1-1.3,1.5-2,2.3
		c-0.7,0.8-0.9,1.8-2.3,2c-1.8,0.3-3.2,1.1-3.8,2.9c-0.2,0.6-0.4,1.1-0.6,1.6c-0.4,0.9-0.7,1.8-2,1.7c-0.5,0-1.3,0.3-0.6,1.2
		c0.4,0.5,0.1,1-0.3,1.5c-0.4,0.3-0.7,0.7-1,1.1c-0.9,1.3-1.2,3-2.5,4.1c-0.3,0.2-0.5,0.7-0.5,1.1c-0.1,0.9-0.4,1.4-1.4,1.5
		c-0.8,0.1-0.7,0.7-0.8,1.2c-0.1,0.4,0,0.8,0.4,0.8C2,88.1,1.3,89,1,89.6c-0.1,0.2-0.2,0.4-0.1,0.6c0.2,0.2,0.4,0.2,0.6,0
		C2,89.5,2.4,90,2.9,90.3c1.1,0.6,1.7,1.9,3.1,2c0.2,0,0.2,0.1,0.2,0.3c0,1,0.5,1.1,1.2,0.6c0.5-0.4,0.7-0.2,0.9,0.2
		c0.9,1.4,2.1,2.2,3.8,2c0.7-0.1,1.4,0,2.1,0.3c1.4,0.7,3,0.7,4.5,1.1c2.6,0.8,4.9-0.4,7.4-0.7c0.2,0,0.3-0.1,0.4-0.2
		c0.6-0.6,1.4-0.7,2.2-0.8c1.1-0.2,2.4,0,3.4-0.7c1.6-1.1,3.4-1.5,5.1-2.3c1.6-0.8,3.5-1.1,5-2.2c1-0.7,2-1.7,3.3-2
		c1.7-0.4,3.2-1.4,4.6-2.3c1.8-1.2,3.3-2.6,5.5-3.1c1.9-0.5,3.3-2,5.2-2.6c1.7-0.6,3.4-1.2,4.8-2.3c1.5-1.2,2.9-2.4,5-2.2
		c0.2,0,0.5-0.1,0.7-0.3c1.3-1.6,3.3-1.4,5-1.9c2.4-0.7,4.8-1.3,7.2-2.1c0.4-0.1,0.8-0.2,1.2-0.2c1.6,0.2,3.1-0.2,4.5-0.6
		c0.7-0.2,1.4-0.3,1.8,0.3c0.5,0.6,0.2,1.2,0,1.9c-0.5,1.3-1.1,2.6-1.5,4c-0.6,2-1.6,3.8-2.2,5.8c-0.5,1.4-1.3,2.7-1.6,4.2
		c-0.1,0.5,0.1,1.1-0.2,1.4c-1.2,1.6-2,3.4-2.6,5.3c-0.8,2.6-2.6,4.8-2.8,7.6c0,0.1-0.2,0.3-0.3,0.4c-1.1,2.6-2.4,5.1-3.7,7.7
		c-1.8,3.7-2.4,7.8-4.1,11.5c-0.1,0.3-0.5,0.6,0,0.9c0.4,0.2,0.4-0.5,0.7-0.5c0.2,0.9,0.2,0.9-0.5,1.5c-0.2,0.2-0.5,0.5-0.5,0.9
		c-0.1,1.2-0.5,2.3-0.8,3.4c-0.2,0.9-0.1,1.7,1,2c0.3,0.1,0.5,0.1,0.5,0.5c0,0.2,0.1,0.4-0.1,0.4c-0.3,0.1-0.6,0.1-0.8-0.2
		c-0.6-0.9-1.5-0.8-2-0.4c-0.6,0.5-0.7,1.5-0.1,2.3c0.4,0.5,0.4,1.1-0.1,1.3c-1,0.5-1,1.3-1.2,2.2c-0.3,1.3-0.2,2.4,0,3.7
		c0.1,0.4,0,1.2-0.3,1.1c-1.6-0.4-0.8,0.8-0.9,1.4c-0.1,0.3-0.1,0.6-0.3,0.8c-0.8,0.6-0.9,1.5-0.9,2.5c0,1.2-0.3,2.3-0.3,3.5
		c0,0.8-0.7,1.7-0.4,2.3c0.5,1,0.3,2.3,1.3,3.1c0.3,0.3,0.4,0.8,0.4,1.3c0.2,1.8,1,3.3,2.3,4.6c0.6,0.6,1.2,1.4,1.2,2.2
		c-0.1,0.9,0.4,1.3,1,1.7c0.9,0.7,2,0.9,3.1,1c1.3,0.2,2.5,1.1,4,0.8c0.1-0.4-0.6-0.6-0.2-1c0,0,0.1-0.1,0.1-0.1
		c1.1,0.4,2.1,1.8,3.5,0.8c0.1,0,0.2,0.1,0.3,0.1c0.6,0.5,1.3,0.4,2,0.4c0.5,0,1.1-0.1,1.5,0.4c0,0.4-0.9,0.3-0.6,0.9
		c0.2,0.4,0.7,0.4,1.1,0.4c0.1,0,0.2,0,0.2,0c1-0.5,2-0.1,2.9,0.1c0.7,0.1,1.3,0.2,1.9-0.3c0.4-0.3,1-0.5,1.2,0c0.5,0.9,0.7,0.7,1,0
		c0.2-0.4,0.5-0.4,0.8-0.4c0.4,0,0.8,0.1,1.1-0.2c1.3-1.2,3.1-1.2,4.7-1.5c0.2,0,0.6-0.1,0.7,0.2c0.4,1.7,1.4,1.4,2.5,0.8
		c0.3-0.2,0.7-0.4,1.1-0.5c0.8-0.4,1.6-1,2.7-0.6c0.6,0.2,1.3,0.1,1.5-0.5c0.2-0.5-0.6-0.6-0.8-0.9c0-0.1,0-0.1-0.1-0.2
		c1.2,0,2-1.4,3.4-0.9c0.1,0,0.2-0.1,0.3-0.2c0.7-1.5,2-1.2,3.3-1.1c0.9,0.1,1.9,0.3,2.8-0.5c-0.5-0.2-1.2,0.3-1.3-0.5
		c-0.1-0.7,0.4-1,0.9-1.2c0.4-0.2,0.9-0.3,1.3-0.4c0.7-0.2,1.4-0.5,2.1-0.8c1.6-0.7,2.9-2,4.3-2.9c0.9-0.6,3.2-0.3,2.6-2.6
		c0,0,0.1,0,0.1-0.1c2.2-1.7,4.4-3.4,6.4-5.4c0.7-0.7,1.7-1.3,2.5-2c0.6-0.5,0.1-1.4,0.8-1.8c1.3-0.7,2.3-1.7,3.3-2.8
		c1.7-1.8,4.2-2.4,6.2-3.8c0.4-0.3,0.9-0.5,1.2-0.8c1.1-1.3,2.3-2.4,3.8-3.3c0.9-0.5,1.2-1.3,0.3-2.2c-0.2-0.2-0.4-0.5-0.1-0.8
		c1.6-1.4,3.2-2.8,5.5-3.4c-0.9,0.9-1.7,1.7-2.1,2.7c0.2-0.1,0.4-0.2,0.5-0.3c1.4-1.3,2.6-2.9,4.2-4c1.8-1.2,2.9-2.7,3.2-4.8
		c0.1-0.4,0.2-0.9,0.5-0.9c1-0.2,1.2-1.1,1.6-1.8c0.1-0.2,0.2-0.3,0.3-0.5c1,1,1.5-0.1,2.1-0.6c0.1-0.1,0.4,0,0.6,0
		c0.3,0,0.6-0.1,0.8-0.4c2.1-2.5,4.7-4.6,7-6.9c0.4-0.4,1.1-0.9-0.2-1.1c-0.4-0.1-0.6-0.3-0.4-0.7c0.2-0.6,0.5-1.1,1.2-1.2
		c0.5-0.1,0.6,0.4,0.6,0.8c0,0.3-0.3,0.8,0.2,0.9c0.4,0.1,0.7-0.3,0.8-0.6c0.7-1.1,1.5-1.9,2.5-2.7c1.7-1.4,3.5-2.9,4-5.3
		c0.1-0.7,0.4-0.7,1-0.4c0.7,0.4,1.5,0.1,1.6-0.4c0.1-1,0.8-1.9,0.2-3c-0.6-1.1-0.2-2.4,1-2.7c1.1-0.4,1.2-1,0.8-1.8
		c-0.4-0.8-0.2-1.2,0.5-1.5c0.8-0.4,1.6-1.3,2.6-0.5c0.2,0.2,0.4,0.5,0.7,0.3c0.3-0.1,0.5-0.4,0.4-0.7c-0.3-1.2,0.4-1.8,1.3-2.3
		c1-0.5,1.4-1.4,1.1-2.4c-0.3-1.2,0.2-1.8,1.1-2.5c1.6-1.1,3.5-2,4.5-3.9c0.2-0.3,0.5-0.5,0.9-0.5c0.7,0,1.1-0.5,1.4-1.1
		c0.9-1.3,1.8-2.5,3.7-2.1c0.5,0.1,0.7-0.3,1-0.6c1-1,1.5-2.4,3.3-2.8c1.4-0.3,2.1-1.8,3.1-2.8c1-0.9,2.1-1.5,3.1-2.3
		c1.3-1.1,3.5-0.9,4.4-2.8c0.2-0.5,1.2-0.6,1.4-1.4c0.1-0.3,0.5-0.3,0.9-0.3c1.1,0.1,2.1-0.3,2.9-1.1c0.4-0.4,0.9-0.9,1.4-1.3
		c0.4-0.3,0.9-0.2,1.3,0c0.3,0.2,0.4,0.5,0.2,0.7c-0.6,0.6-0.7,1.7-1.9,1.6c-0.4,0-0.5,0.4-0.7,0.6c-0.7,0.7-0.9,2-1.9,2.4
		c-1,0.4-1.7,1.1-2.3,1.9c-0.2,0.3-0.3,0.7-0.8,0.6c-0.4-0.1-0.4-0.5-0.4-0.8c-0.1-0.4-0.1-0.8-0.7-0.5c-0.9,0.5-1.5,1.7-1.1,2.7
		c0.2,0.5-0.1,0.7-0.4,0.9c-0.3,0.2-0.6,0.3-0.8-0.2c-0.1-0.4-0.2-1-0.8-0.7c-0.5,0.2-0.8,0.8-0.5,1.4c0.3,0.7,0,1.1-0.3,1.7
		c-0.6,1.6-2.4,1.9-3.4,3c-0.3,0.4-0.6,0-0.6-0.4c0-0.3-0.1-0.5-0.4-0.6c-0.3,0-0.5,0.3-0.6,0.5c-0.2,0.4,0.1,1-0.3,1.2
		c-1.2,0.5-2,1.7-3.1,2.2c-1,0.5-1.6,1.2-1.7,2.3c-0.1,0.7-0.3,1-1.1,0.9c-1-0.1-2.5,1.2-2.4,2c0.2,1-0.3,1.7-0.9,2.3
		c-0.4,0.5-0.9,0.9-0.9,1.8c2.3-1.5,4.5-3,6.5-4.8c1.9-1.8,3.9-3.4,6.1-4.8c2-1.3,4.2-2.5,5.9-4c2.8-2.5,6.3-3.8,8.9-6.4
		c0.7-0.7,1.5-0.8,2.3-1c1.7-0.4,2.2-2.6,4.1-2.9c0.2,0,0.4-0.3,0.9-0.3c0.8,0.1,1.7-0.3,1.9-1.2c0.5-1.6,2.1-2,3.2-2.1
		c1.7-0.1,2.6-1.3,3.9-1.9c0.4-0.2,0.4-1,0.1-1.4c-0.4-0.4-0.8,0-1.1,0.3c-0.5,0.3-1,0.6-1.5,0.6c-0.9-0.1-1.4,0.4-1.9,1.2
		c-0.6-1-0.2-1.8,0.1-2.6c0.4,0.2,0,1,0.7,0.9c0.4-0.1,0.9-0.4,0.9-0.8c-0.1-0.5,0-1.4-0.9-1.3c-0.3,0-0.7-0.1-0.5-0.3
		c0.6-0.7,0.8-1.7,1.5-2.3c0.5,0.5-0.5,1,0.1,1.3c0.5,0.2,0.9-0.2,1.3-0.5c1.4-1.1,2.8-2.1,4.2-3.2c0.8-0.7,2.2-1,2.4-2.4
		c0-0.2,0.3-0.2,0.5-0.1c1.3,0.5,1.3,0,0.7-1c-0.1-0.1-0.1-0.2,0-0.4c0.1-0.4,0.2-0.9,0.7-0.9c0.6,0.1,0.3,0.5,0.3,0.9
		c0,1.1-0.1,2.1-1.3,2.6c-0.2,0.1-0.4,0.4-0.2,0.6c0.2,0.3,0.4,0.2,0.7,0.1c1.1-0.6,2.3-0.9,3.4-1.6c0.5-0.4,0.9-0.7,0.8-1.4
		c-0.1-0.8,0.4-1.2,1-1.5c2.2-1.1,4.4-2.3,6.7-3.2c1.2-0.5,1.7-2.3,3.4-1.6c0,0,0.2-0.2,0.3-0.3c0.3-0.4,0.7-0.5,1.1-0.7
		c0.8-0.4,1.5-0.9,2.4-1.2c1.4-0.6,2.8-1.2,4-2.3c0.2-0.2,0.8,0.2,0.7-0.4c-0.1-0.7,0.5-0.8,0.8-1.1c0.6-0.6,1.6-0.6,2.2-1.4
		c-0.3-0.2-0.5-0.2-0.7-0.1c-1.1,0.8-2.5,0.7-3.6,1.4c-0.3,0.2-0.7,0.2-0.8-0.2c-0.1-0.3,0.2-0.5,0.5-0.6c0.9-0.3,1.4-1.1,2.3-1.3
		c2.9-0.9,5.3-2.6,8-3.9c1.7-0.8,3-2.3,4.8-3c0.6-0.2,0.7-1.1,0.4-1.5c-0.2-0.5-0.7,0-1.1,0.1c-0.6,0.1-1.2,0.3-2.1,0.5
		c0.6-0.6,1.3-0.4,1.3-1.1c0-0.3-0.2-0.5-0.5-0.7c-0.7-0.4-0.8,0.4-1.2,0.6c-0.3-0.4-0.5-0.9,0.1-1.2c0.6-0.4,1.1-0.8,1.7-1
		c2.2-0.5,4.2-1.6,6.4-2.3c1.4-0.4,2.8-0.9,4-1.7c0.3-0.2,0.8-0.4,0.6-0.8C299.1,12.6,298.7,12.9,298.4,13z M74.5,161.7
		c-0.4,0.2-0.7,0.1-1.1-0.1c-2.7-1.6-4.5-3.8-5.5-6.8c-0.3-0.8-0.6-1.6-0.4-2.6c0-0.3,0-0.6-0.1-0.8c-1.2-2.1-0.5-4.1,0.1-6.2
		c0.3-0.9,0.6-1.8,0.3-2.8c-0.1-0.2,0-0.5,0-0.7c-0.1-0.6,0.3-0.9,0.7-1.2c0.2-0.1,0.4-0.1,0.4,0.1c0.1,0.5,0.1,0.9-0.2,1.3
		c-0.4,0.4-0.4,0.8-0.1,1.1c0.6,0.9,0.5,1.9,0.2,2.8c-0.7,1.8,0.3,3.2,0.5,4.8c0.1,0.7,0.5,1.4,0.8,2.1c0.1,0.3,0.2,0.6-0.2,0.9
		c-0.9,0.6-0.6,1.4-0.2,2c0.4,0.6,0.6,1.5,1.8,1.2c1.1-0.3,2.2,0.6,2.5,1.5c0.4,1.3,1.4,1.6,2.3,2.1c0.3,0.2,0.8,0.3,1,0.9
		c-1.6-0.6-3-1.2-4.6-1.8C73.1,160.6,74.2,160.8,74.5,161.7z M158.1,66c-0.6-0.1-0.6,0.8-1.1,1.1c-0.4,0.2-0.8,0.5-1.2,0.8
		c-0.1-0.1-0.2-0.2-0.2-0.2c0.8-1.5,1.8-2.9,3.3-3.7c0.5,0.2,0.1,0.5,0.2,0.6C159.8,65.7,159.6,66.2,158.1,66z M167.1,60.2
		c-0.6-0.3-0.5-0.9-0.7-1.3c-0.4-1-1.2-0.8-1.9-0.9c-0.5,0-0.3,0.5-0.2,0.8c0.2,0.5,0.3,0.9-0.3,1.1c-0.4,0.1-0.6-0.1-0.8-0.4
		c-0.2-0.5-0.5-1,0.1-1.4c0.4-0.3,0.9-0.4,1.4-0.5c1.1-0.2,2.1-0.7,2.6-2c0.3,1.2,1.3,1.6,2.4,1.8C168.4,58.2,167.3,58.8,167.1,60.2
		z M231.7,36.4c0.2-0.1,0.4-0.2,0.6,0c0.2,0.1,0.2,0.3,0.1,0.4c-0.9,1.3-1.4,2.9-3.2,3.5C229,38.3,230.2,37.2,231.7,36.4z M240,44.1
		c-1.3,1.9-3.1,3.1-5.2,4c-0.2,0.1-0.4,0.2-0.6-0.1c0.4-0.4,0.4-1.1,1.3-1.2c0.7-0.1,0.7-0.9,0.9-1.5c0.1-0.6,2-2.7,2.6-2.8
		c0.6-0.1,1,0.3,1.3,0.6C240.7,43.5,240.2,43.8,240,44.1z M257.6,27.4c-2.2,1.8-4.6,3.3-6.6,5.4c-0.7,0.7-0.7,0.8,0.4,1
		c-1.9,1.7-3.6,3.5-6,4.3c-0.2,0.1-0.4,0.2-0.5,0.3c-0.4,0.8-0.9,1-1.4,0c-0.1-0.2-0.4-0.4-0.6-0.2c-0.4,0.2-0.1,0.5,0,0.8
		c0.3,0.4,0.3,0.9,0.4,1.4c0.1,1.3-0.9,1.2-1.6,1.2c-0.9,0-0.6-0.9-0.6-1.4c0-0.4,0.3-0.8,0.5-1.2c-0.5-0.3-0.8,0.1-1,0.4
		c-0.7,1.1-1.7,2-2.7,2.5c-2.1,1.1-3.2,3-4.9,4.3c-1.7,1.3-3.3,2.9-4.9,4.4c-0.6,0.5-1.5,0.7-1.8,1.5c-0.1,0.3-0.5,0.5-0.4,0.7
		c0.3,1.6-1.1,2.4-1.9,2.7c-1.2,0.4-1.3,1.3-1.8,2c-0.6,0.8-1.5,1.5-1.8,2.5c-0.2,0.6-0.8,0.9-1.5,1c-0.8,0.2-1.2-0.2-1.2-1
		c0-1,0.1-2,0.5-2.9c0.3-0.5,0.4-1.3,1.3-1.1c0.2,0,0.7-0.4,0.8-0.7c1.1-2.3,2.9-4.1,4.7-5.9c1.1-1.1,2.2-2.1,3.6-2.9
		c0.8-0.4,1.3-1.1,1.5-2c0.3-1.6,0.6-1.8,2.2-1.5c1.1,0.2,1.7-0.5,2.3-1.1c1.6-1.7,3.6-3,5.4-4.5c2.9-2.6,6.6-3.9,9.5-6.4
		c1.2-1,2.5-1.9,4.3-2.1c1.2-0.1,2-1.3,3-2c0.2-0.1,0.3-0.3,0.5-0.4c0.4-0.2,0.7-0.9,1.1-0.3C258.6,26.9,258,27.2,257.6,27.4z"/>
	<path class="st0" d="M25.3,51.8c-0.1,0.4,0.7,0.3,1.1,0.3c0.5,0,0.9,0,1.4-0.5c-0.3-0.1-0.7-0.1-0.7-0.1c0.1-0.6,0.7-0.7,1-1.1
		c0.1-0.2,0.4-0.1,0.6,0.1c0.2,0.2-0.1,0.8,0.5,0.5c0.4-0.2,0.4-0.6,0.4-1c-0.1-1,0.4-1.2,1.2-1c0.3,0,0.6,0.4,0.7,0
		c0.4-1.8,2.4-1.6,3.4-2.7c0.9-1,2.2-0.9,3.3-1.1c0.8-0.2,0.3-1,0.9-1c1.6-0.1,2.5-1.5,3.8-2.3c0.4-0.3,1-0.5,1.4-0.5
		c0.6,0.1,0.1,0.6,0.1,0.9c0,0.2,0.2,0.3,0.4,0.2c0.4,0,0.6-0.2,0.5-0.6c-0.3-1.7,1.1-1.6,2-1.9c0.5-0.2,1.1-0.1,1.6-0.5
		c0.6-0.5,1.2-1.2,2.2-0.6c0.3,0.2,0.4-0.1,0.5-0.3c0.1-0.3,0-0.7,0.5-0.7c0.3,0.3-0.2,1,0.5,1c0.3,0,0.8-0.1,0.8-0.5
		c0-0.6,0.1-1.2-0.2-1.8c-0.6,0.5-1.3-0.9-1.9,0.2c-0.1,0.2-0.4,0.3-0.7,0.2c-0.5-0.3-0.9-0.1-1.2,0.3c-0.7,0.8-2.4,0.3-2.5,1.9
		c0,0-0.2,0-0.2,0.1C43.6,40,41,42,38,43.2c-0.7,0.3-1.4,0.8-2.1,1c-0.7,0.2-1.2,0.9-1.8,1.3c-0.6,0.4-1.5,1.2-1.7,1.2
		c-1.9-0.2-2.9,1.4-4.3,2.1c-0.4,0.2,0.1,0.9-0.5,0.8c-0.7-0.2-1.1,0.4-1.7,0.6C25,50.4,25.4,51.2,25.3,51.8z"/>
	<path class="st0" d="M199.3,84.2c-0.4,1.6-1.9,1.8-2.9,2.7c-0.2,0.2-0.5,0.4-0.8,0.3c-1-0.5-1.1,0.2-1.4,0.8c-0.2,0.4-0.3,1.4-1,1
		c-1.2-0.7-1.4,0.2-1.6,0.9c-0.2,0.7-0.5,1.3-0.9,1.9c-0.2,0.3-0.6,0.7-0.2,1c0.4,0.3,0.7-0.1,0.9-0.3c1.6-1.3,3.2-2.7,4.8-4
		c1.6-1.3,3.3-2.6,5-4C200.2,83.3,199.5,83.1,199.3,84.2z"/>
	<path class="st0" d="M17.3,56.4c0.3-0.3,0.7-0.6,1.1-0.8c1.8-0.7,3.4-1.9,5.4-2c0.4,0,0.9-0.2,0.9-0.9c-0.1-0.6-0.4-0.6-0.9-0.4
		c-1.7,0.4-3.1,1.9-4.9,2.2c-0.9,0.1-1.8,0-2.4,0.8c-0.3,0.4-0.6,1.1-0.5,1.3C16.4,57.3,16.9,56.8,17.3,56.4z"/>
	<path class="st0" d="M251.7,50.2c-0.5,0.7-1.2,0.9-1.9,1.1c-0.8,0.3-1.5,0.8-2.4,1c-0.6,0.1-0.7,0.7-0.7,1.2c0,0.3,0.4,0.4,0.7,0.4
		c0.5,0,0.9-0.2,1.2-0.6c0.5-0.6,1.1-1,1.9-1.2c0.7-0.2,1.3-0.7,1.9-1.2c0.3-0.3,0.8-0.6,0.4-1C252.5,49.7,251.9,49.9,251.7,50.2z"
		/>
	<path class="st0" d="M249.1,48.5c0-0.3-0.2-0.6-0.4-0.7c-0.1-0.1-0.4,0-0.4,0.1c-0.1,0.9-0.9,1.2-1.3,1.8c-0.5,0.6-0.9,1.3-1.7,1.6
		c-0.2,0.1-0.7,0.1-0.5,0.5c0.1,0.3,0.5,0.3,0.8,0.2c0.4-0.3,0.9-0.4,1.4-0.6C247.9,51,249,49.6,249.1,48.5z"/>
</g>
</svg>
