<svg xmlns="http://www.w3.org/2000/svg" viewBox="0 0 21.71 20.18"><defs><style>.cls-1{fill:#dedc00;}</style></defs><g id="Camada_2" data-name="Camada 2"><g id="Layer_1" data-name="Layer 1"><path class="cls-1" d="M7.44,18.75c-1.85.44-3.71.86-5.55,1.32-.7.17-1.4.22-1.76-.5s.21-1.25.74-1.66c1.63-1.27,3.22-2.61,5-3.72,1.51-1,2-2,1.37-3.77a31,31,0,0,1-1.12-4c-.59-2.57.31-4.25,2.74-5.17A15.81,15.81,0,0,1,19.8.8c2.19.74,2.47,1.88.95,3.58a13.07,13.07,0,0,1-4.32,3.11,3,3,0,0,0-1.91,3.33c.34,6.31.2,5.28-4.86,7.16-.73.27-1.5.44-2.25.66Z"/></g></g></svg>