<svg xmlns="http://www.w3.org/2000/svg" viewBox="0 0 37.1 37.1"><defs><style>.cls-1{fill:#fff;}</style></defs><g id="Camada_2" data-name="Camada 2"><g id="Layer_1" data-name="Layer 1"><path class="cls-1" d="M26.86,0H10.24A10.25,10.25,0,0,0,0,10.24V26.86A10.25,10.25,0,0,0,10.24,37.1H26.86A10.25,10.25,0,0,0,37.1,26.86V10.24A10.25,10.25,0,0,0,26.86,0Zm7,26.86a7,7,0,0,1-7,7H10.24a7,7,0,0,1-6.95-7V10.24a7,7,0,0,1,7-6.95H26.86a7,7,0,0,1,7,7Z"/><path class="cls-1" d="M18.55,9a9.56,9.56,0,1,0,9.56,9.56A9.57,9.57,0,0,0,18.55,9Zm0,15.83a6.27,6.27,0,1,1,6.27-6.27,6.27,6.27,0,0,1-6.27,6.27Z"/><path class="cls-1" d="M28.51,6.2a2.45,2.45,0,0,0-1.71.71,2.43,2.43,0,0,0,0,3.41,2.41,2.41,0,0,0,3.42,0A2.42,2.42,0,0,0,28.51,6.2Z"/></g></g></svg>