<svg xmlns="http://www.w3.org/2000/svg" viewBox="0 0 34.38 32.85"><defs><style>.cls-1{fill:#f1f1f1;}</style></defs><g id="Camada_2" data-name="Camada 2"><g id="Layer_1" data-name="Layer 1"><path class="cls-1" d="M34.38,20.14V32.85H27V21c0-3-1.06-5-3.73-5a4,4,0,0,0-3.78,2.7,4.87,4.87,0,0,0-.25,1.79V32.85H11.88s.1-20.09,0-22.16h7.37v3.14l-.05.07h.05v-.07a7.33,7.33,0,0,1,6.65-3.67c4.84,0,8.48,3.17,8.48,10ZM4.17,0a3.84,3.84,0,1,0-.1,7.66h0A3.84,3.84,0,1,0,4.17,0ZM.44,32.85H7.81V10.69H.44Z"/></g></g></svg>