<svg xmlns="http://www.w3.org/2000/svg" viewBox="0 0 249.19 260.08"><defs><style>.cls-1{fill:#582974;}.cls-2{fill:#dc9aa8;}.cls-3{fill:#c97da8;}.cls-4{fill:#fefefe;}.cls-5{fill:#10294c;}.cls-6{fill:#f3e3e5;}.cls-7{fill:#11294b;}.cls-8{fill:#f6f6f6;}.cls-9{fill:#581e96;}.cls-10{fill:#f6fbfd;}.cls-11{fill:#f4fbfd;}.cls-12{fill:#f1fafc;}.cls-13{fill:#fff;}.cls-14{fill:#dedc00;}.cls-15{fill:#ef4e23;}.cls-16{fill:#3c3c3b;}.cls-17{fill:#1d1d1b;}.cls-18{fill:#05294e;}.cls-19{fill:#f69049;}.cls-20{fill:#062a4e;}.cls-21{fill:#072a4e;}.cls-22{fill:#082b4f;}.cls-23{fill:#072b50;}.cls-24{fill:#092b4d;}.cls-25{fill:#0f2c4c;}.cls-26{fill:#092c51;}.cls-27{fill:#f16941;}.cls-28{fill:#fbca67;}.cls-29{fill:#f47c4b;}.cls-30{fill:#906029;}.cls-31{fill:#f78f51;}.cls-32{fill:#f5834b;}.cls-33{fill:#f68c4e;}.cls-34{fill:#575756;}</style></defs><g id="Camada_2" data-name="Camada 2"><g id="Layer_1" data-name="Layer 1"><path class="cls-1" d="M113.76,43.21c-8.55-9-17.2-17.84-26.55-26-2.23-1.94-4.57-3.75-6.83-5.64a1.76,1.76,0,0,0-2-.28,89.48,89.48,0,0,0-16.48,8.42,273.52,273.52,0,0,0-33.13,24.1C26.88,45.45,25,47.17,23.27,49A1.69,1.69,0,0,0,23,51.37,205.14,205.14,0,0,0,37,71.39C43.68,80.23,50.47,89,57.22,97.81a7.58,7.58,0,0,0,2.68-.35c8-1.54,12.69,3.73,13.92,9.76a17.34,17.34,0,0,1-.63,9.3,67.55,67.55,0,0,1,7.22-1.36,50.33,50.33,0,0,1,17.3,1.12c6,1.47,9.5,7.16,8.64,13.6-.52,3.9-1.9,7.35-5,9.91a12.55,12.55,0,0,1-6.32,2.4,1,1,0,0,0,.43,1c1.7,1.66,3.31,3.42,5.13,5a2.59,2.59,0,0,0,3.24.31,106.67,106.67,0,0,0,9.79-5.61,229.21,229.21,0,0,0,26.24-19.74,184.19,184.19,0,0,0,13.31-12.75,87.88,87.88,0,0,0,7.57-9.09,2.38,2.38,0,0,0,.1-3A151.14,151.14,0,0,0,152,85.78c-3.85-5-8-9.81-12.11-14.63a5.46,5.46,0,0,0-1.64-1.35A51.06,51.06,0,0,0,120.5,69a109.83,109.83,0,0,0-13.45,2.52,8.84,8.84,0,0,1-8.72-2.23c-3.63-3.59-5.57-7.92-4.77-13.14A9.21,9.21,0,0,1,99.23,49a114.07,114.07,0,0,1,13.37-5.31A11.72,11.72,0,0,0,113.76,43.21Z"/><path class="cls-2" d="M61.33,87.58s-3.61-2.7-2.7-6.75a5.18,5.18,0,0,1,.71-3.71,3.7,3.7,0,0,0,.57-2.57,5.53,5.53,0,0,1,2.22-5c1.14-.88,2.38-1.64,3.44-2.63s2.16-2,3.31-3a5.38,5.38,0,0,1,3-1.38,14.92,14.92,0,0,1,4.46.41,5.78,5.78,0,0,0,4-.22,14.29,14.29,0,0,0,2.36-1.54,3,3,0,0,1,3.15-.42,14,14,0,0,1,2.4,1.38,8.72,8.72,0,0,0,5,1.71,5.69,5.69,0,0,1,4.89,2.7,21.53,21.53,0,0,1,1.61,2.59c.09.19.18.56.52.39s0-.43,0-.6a15.32,15.32,0,0,0-2.35-3.73,6.3,6.3,0,0,0-4.53-2.1A6.53,6.53,0,0,1,90,62.28c-1-.62-2-1.29-3-1.88a4.13,4.13,0,0,0-4.32-.23c-.73.41-1.35,1-2,1.42a4.28,4.28,0,0,1-3.12.74c-1.1-.17-2.2-.38-3.31-.5a7.39,7.39,0,0,0-4,.41A12.45,12.45,0,0,0,67,64.61L64.8,66.68A12.13,12.13,0,0,0,66,62.43a6.71,6.71,0,0,1,5.65-5.69,4.41,4.41,0,0,0,2.88-1.6,4.11,4.11,0,0,1,4.17-1.54,3,3,0,0,0,3-1,6,6,0,0,1,3.27-1.69,7,7,0,0,1,4.47.76,3.12,3.12,0,0,0,2,.46.94.94,0,0,0,.28.06,16.91,16.91,0,0,1,5.07.19,2.39,2.39,0,0,0,.37.15,12.28,12.28,0,0,1,5,2.68,7.7,7.7,0,0,0,2.93,1.56,6.58,6.58,0,0,1,3.72,2.66A18.72,18.72,0,0,1,110,61.83a16.65,16.65,0,0,0,3.33,5.06,3.84,3.84,0,0,1,.9,4.37,5.74,5.74,0,0,1-1.51,2.07,2.89,2.89,0,0,0-1,3,5.53,5.53,0,0,1-2.13,6.13,4.23,4.23,0,0,0-1.73,2.56,4.3,4.3,0,0,1-3,3.32,2.35,2.35,0,0,0-1.5,1.32,7,7,0,0,1-1.91,2.56c-.43.34-.93.55-1.32.92a.78.78,0,0,1-.47.4,10.18,10.18,0,0,1-7.18.9,4.75,4.75,0,0,0-2.77,0,3.4,3.4,0,0,1-2.6,0,1.59,1.59,0,0,0-1.69.19,8.3,8.3,0,0,0-.7.51,4.39,4.39,0,0,1-2.85.92,4.69,4.69,0,0,1-3-1.09,1.42,1.42,0,0,0-1.76-.12,4.93,4.93,0,0,1-1.25.59,5.77,5.77,0,0,1-3.34.28,9.35,9.35,0,0,1-3.72-1.64,5.12,5.12,0,0,0-1.79-.9,4.91,4.91,0,0,1-3.44-3.06,2.82,2.82,0,0,0-.56-.87C62.42,88.72,61.87,88.15,61.33,87.58Z"/><path class="cls-3" d="M100.11,93.18a10.42,10.42,0,0,1-8.13,1,3.53,3.53,0,0,0-2.2.14,3.64,3.64,0,0,1-2.86-.1,1.48,1.48,0,0,0-1.61.32,7.16,7.16,0,0,1-1.58,1A4.52,4.52,0,0,1,79.09,95a1.79,1.79,0,0,0-2.3-.14,6.51,6.51,0,0,1-3.82.87.89.89,0,0,0-.51,0,13.15,13.15,0,0,0,10.86,7.4,14.93,14.93,0,0,0,10.23-2.45c.32-.21.48-.27.65.18a14.22,14.22,0,0,0,1.9,3.29,1.59,1.59,0,0,0,1.7.7,4.58,4.58,0,0,0,3.5-2.63,1.32,1.32,0,0,0,0-1.38c-1.46-2.15-1.53-4.55-1.26-7C100.08,93.64,100.09,93.41,100.11,93.18Z"/><path class="cls-4" d="M103.33,66.45a11.55,11.55,0,0,0,1.74,2,2,2,0,0,0,2.31.35,2,2,0,0,0,1.12-2.14A9.65,9.65,0,0,0,104,60a1.93,1.93,0,0,0-2.31.22,2,2,0,0,0-.54,2.27A20,20,0,0,0,103.33,66.45Z"/><path class="cls-4" d="M90.32,80.61a11.13,11.13,0,0,0,1.75,2,2.07,2.07,0,0,0,2.35.37,2,2,0,0,0,1.1-2.22A9.59,9.59,0,0,0,93.18,76a8.07,8.07,0,0,0-1.93-1.71,2,2,0,0,0-3,2.47A20.26,20.26,0,0,0,90.32,80.61Z"/><path class="cls-5" d="M106.89,79.26a5.5,5.5,0,0,1-1.71,1.36c-.19.1-.43.22-.36.46s.39.2.6.15a3,3,0,0,0,2.21-1.76,1.14,1.14,0,0,1,.62-.62,1.92,1.92,0,0,0,.86-3.12,2.55,2.55,0,0,1-.26-2,1.85,1.85,0,0,0-.07-1.35,1.67,1.67,0,0,0-2.65-.49,1.38,1.38,0,0,1-1.79.34,2.22,2.22,0,0,0-1.64,0c-.18.06-.34.14-.31.36s.2.21.35.24a14,14,0,0,1,2.21.39c-.14.34-.26.64-.37,1s-.07.36.15.43.28-.08.35-.22a5.9,5.9,0,0,1,1-1.5,2,2,0,0,1,.72-.56,1,1,0,0,1,1,.11.79.79,0,0,1,.23.89,3.35,3.35,0,0,0,.56,3.16c.42.5.29.91-.2,1.37a2.38,2.38,0,0,1-2.34.63c-.17,0-.4-.16-.49.1s.14.37.34.43S106.52,79.16,106.89,79.26Z"/><path class="cls-6" d="M82.08,69.39A6.19,6.19,0,0,0,80.2,71.8a.58.58,0,0,1-.58.42,2.6,2.6,0,0,0-2.3,2.16c0,.15-.11.33.08.41s.3-.12.36-.27a3.16,3.16,0,0,1,1.72-1.69c.48-.22.47,0,.41.34a4.61,4.61,0,0,0,.26,2c0,.15.08.39.31.33s.11-.29.09-.44a5.32,5.32,0,0,1,1.37-4.8c.31-.34.66-.64,1-1,.07-.07.15-.14.09-.25s-.18-.1-.29,0Z"/><path class="cls-6" d="M86.93,90.85c.09.14.16.21.27.19s.14-.16.15-.27a3,3,0,0,1,.46-1.52c.26-.32.43-.42.78-.13a2.7,2.7,0,0,0,1.23.61c.13,0,.28.07.34-.1s-.06-.24-.19-.31a4.34,4.34,0,0,1-2.43-4.07c0-.13,0-.3-.17-.31s-.22.18-.25.32a4,4,0,0,0,.5,2.78c.19.33.14.45-.11.68a1.9,1.9,0,0,0-.67,1.75A3.63,3.63,0,0,0,86.93,90.85Z"/><path class="cls-6" d="M76.28,56.14a1.72,1.72,0,0,0-.82,1.51.89.89,0,0,1-.44.85,1.89,1.89,0,0,0-.77,1.24c0,.12-.06.24.07.3a.22.22,0,0,0,.29-.12,3.32,3.32,0,0,1,2.8-1.67c.12,0,.24-.06.23-.2s-.13-.18-.25-.21a2.44,2.44,0,0,0-1,0c-.33.06-.37-.07-.3-.34a2.75,2.75,0,0,1,.68-1.12c.12-.13.4-.24.23-.44s-.39,0-.57.1Z"/><path class="cls-6" d="M83.31,54.43a3.78,3.78,0,0,0-1.54,2.85c0,.19,0,.44.21.46s.21-.25.25-.39a4.44,4.44,0,0,1,3.17-3.27c.16-.06.41-.06.36-.29s-.32-.18-.49-.15A4.49,4.49,0,0,0,83.31,54.43Z"/><path class="cls-6" d="M67.42,70.21a3.26,3.26,0,0,0-1.26,1.73c0,.16-.1.31.1.39s.23-.1.29-.21a4.49,4.49,0,0,1,4.07-2.25c.16,0,.4.07.43-.16s-.22-.22-.37-.25A3.86,3.86,0,0,0,67.42,70.21Z"/><path class="cls-6" d="M100.35,88.27a4.54,4.54,0,0,0,1.35-1.84c.06-.14.16-.3,0-.39s-.27.1-.35.22a4.22,4.22,0,0,1-3.19,2.11c-.29,0-.58,0-.86.07s-.45-.13-.45.18.27.24.45.27a4.05,4.05,0,0,0,2.52-.35Z"/><path class="cls-7" d="M106.28,76.71a.73.73,0,0,0,1,.16.78.78,0,0,0,.25-1.11,2,2,0,0,1-.38-1.05.37.37,0,0,0-.3-.38.43.43,0,0,0-.47.12A2.18,2.18,0,0,0,106.28,76.71Z"/><path class="cls-6" d="M91.81,57.69a.27.27,0,0,0,.4,0A3.19,3.19,0,0,1,95.28,57c.14,0,.29,0,.34-.13s-.07-.21-.18-.26a2.67,2.67,0,0,0-3.58.78A.29.29,0,0,0,91.81,57.69Z"/><path class="cls-6" d="M82.93,87c.08.11.14.23.28.19s.14-.22.11-.34a3.24,3.24,0,0,1,1-3c.1-.11.2-.21.07-.34s-.25-.07-.37,0a2.65,2.65,0,0,0-1.34,2.16A2.57,2.57,0,0,0,82.93,87Z"/><path class="cls-6" d="M92.72,67.47A1.93,1.93,0,0,0,92,69c0,.13,0,.29.18.33s.24-.1.27-.23a2.84,2.84,0,0,1,1.4-1.62c.12-.07.32-.14.21-.34s-.24-.1-.37-.08A2.29,2.29,0,0,0,92.72,67.47Z"/><path class="cls-6" d="M71.88,93.61a1.87,1.87,0,0,0,1.9.78c.13,0,.3,0,.32-.19s-.16-.22-.31-.26A2.72,2.72,0,0,1,72,92.8c-.08-.13-.2-.29-.36-.21s-.08.3,0,.46A1.35,1.35,0,0,0,71.88,93.61Z"/><path class="cls-6" d="M98,91.79c.08-.14.33-.24.23-.46s-.31-.1-.45,0a2.51,2.51,0,0,1-2-.05c-.14,0-.34-.22-.45,0s.09.28.2.38A2.12,2.12,0,0,0,98,91.79Z"/><path class="cls-6" d="M69.17,78.09a1.9,1.9,0,0,0-.72,2.07c0,.18.1.36.33.32s.18-.24.17-.38a2.35,2.35,0,0,1,.77-1.8c.12-.13.41-.22.27-.43s-.38-.06-.57,0S69.21,78,69.17,78.09Z"/><path class="cls-8" d="M94.67,98.09a.42.42,0,0,0,.08-.18.17.17,0,0,0-.19-.17,2.07,2.07,0,0,0-.35,0,157.57,157.57,0,0,1-16.94,1.6c-.24,0-.68-.12-.68.21s.45.18.69.18A76.32,76.32,0,0,0,93.8,98.29Z"/><path class="cls-8" d="M96.17,95.78c.1-.07.19-.13.15-.25s-.19-.12-.3-.11l-1.72.23q-6.75,1-13.54,1.6a2,2,0,0,0-.34,0,.2.2,0,0,0-.18.19c0,.11.11.15.21.16a1.93,1.93,0,0,0,.34,0,86.54,86.54,0,0,0,15-1.77Z"/><path class="cls-8" d="M80.9,101.69c.12,0,.25,0,.39,0a32,32,0,0,0,7.24-.53c.15,0,.35-.06.34-.24s-.26-.2-.41-.19l-7.26.54c-.13,0-.27,0-.33.17S80.88,101.52,80.9,101.69Z"/><path class="cls-8" d="M99.76,101.36c.24.16.34.73.67.52s-.08-.58-.21-.83A18.3,18.3,0,0,1,99,97.85c0-.16-.06-.4-.29-.36s-.16.27-.15.43A6.77,6.77,0,0,0,99.76,101.36Z"/><path class="cls-8" d="M74.68,97.78a1.57,1.57,0,0,0,.31.08,10.8,10.8,0,0,0,3.21,0c.17,0,.38-.06.36-.28s-.24-.16-.38-.18a14.36,14.36,0,0,0-3.21.06C74.78,97.44,74.57,97.46,74.68,97.78Z"/><path class="cls-8" d="M96.43,103.09a2.69,2.69,0,0,0,.58.66c.11.08.23.19.36.07s.06-.21,0-.31A15,15,0,0,0,96,101.32c-.08-.1-.18-.17-.3-.12s-.13.21-.09.35A4.21,4.21,0,0,0,96.43,103.09Z"/><path class="cls-8" d="M98.11,102a2.89,2.89,0,0,0,.69.74c.11.08.23.18.36.08s.08-.25,0-.37l-1.22-1.82c-.09-.12-.2-.27-.38-.18s-.09.28,0,.42A3.29,3.29,0,0,0,98.11,102Z"/><path class="cls-8" d="M92.51,100.56a.22.22,0,0,0,.15-.23.19.19,0,0,0-.18-.18,4,4,0,0,0-2.09.29.19.19,0,0,0-.15.21.25.25,0,0,0,.24.21A4.25,4.25,0,0,0,92.51,100.56Z"/><path class="cls-9" d="M107.92,66.46a1.77,1.77,0,0,0-.23-.21.81.81,0,0,1-.37-.94,1.64,1.64,0,0,0-1.09-2,.77.77,0,0,1-.51-.68A2.09,2.09,0,0,0,103.09,61a.67.67,0,0,0-.53.47.6.6,0,0,0,.27.71,1.52,1.52,0,0,1,.92,1.62c0,.65.51,1,1.09,1.3a.64.64,0,0,1,.43.65,2.18,2.18,0,0,0,2.21,2,.68.68,0,0,0,.66-.38C108.28,67,108.15,66.77,107.92,66.46Z"/><path class="cls-9" d="M94.67,80.84a1.12,1.12,0,0,0-.27-.26.66.66,0,0,1-.32-.78,1.67,1.67,0,0,0-1.14-2.16A.7.7,0,0,1,92.5,77a2.1,2.1,0,0,0-2.64-1.61c-.62.2-.73.71-.25,1.19a2.48,2.48,0,0,1,.88,1.63,1.71,1.71,0,0,0,1.07,1.26.66.66,0,0,1,.47.64,2.14,2.14,0,0,0,2.06,2,.78.78,0,0,0,.8-.33C95,81.53,95,81.22,94.67,80.84Z"/><path class="cls-10" d="M105,63.84a1.32,1.32,0,0,0,1.14.52c.13,0,.28,0,.3-.21s-.08-.2-.19-.24a1.55,1.55,0,0,1-1-1,.19.19,0,0,0-.22-.14c-.12,0-.15.11-.17.2A1.24,1.24,0,0,0,105,63.84Z"/><path class="cls-11" d="M104,62.07a.71.71,0,0,0,.78.19c.2-.09.16-.29,0-.43a.66.66,0,0,0-.82-.18C103.79,61.75,103.84,61.89,104,62.07Z"/><path class="cls-10" d="M91.76,78.26a1.28,1.28,0,0,0,1.12.5c.13,0,.27,0,.3-.2s-.08-.2-.19-.25a1.48,1.48,0,0,1-1-1,.21.21,0,0,0-.22-.15c-.13,0-.15.11-.18.2A1.24,1.24,0,0,0,91.76,78.26Z"/><path class="cls-12" d="M91.53,76.2a.66.66,0,0,0-.82-.17c-.17.09-.14.27,0,.38a.74.74,0,0,0,.83.23C91.74,76.55,91.65,76.36,91.53,76.2Z"/><polygon class="cls-13" points="128.07 105.08 128.06 109.96 127.04 110.79 124.18 107.27 124.87 106.71 127.25 109.65 127.26 104.77 128.28 103.94 131.14 107.46 130.45 108.01 128.07 105.08"/><path class="cls-13" d="M125.66,111.91l.75-.61-4.77-2-.86.69,1,5.07.75-.61-.21-1.08,2.37-1.92Zm-1.87-.77-1.68,1.37-.43-2.24Z"/><polygon class="cls-13" points="120.3 116.27 119.61 116.82 117.26 113.93 115.58 115.3 115.07 114.67 119.12 111.38 119.63 112 117.95 113.37 120.3 116.27"/><rect class="cls-13" x="114.96" y="115.06" width="0.88" height="4.53" transform="translate(-48.15 99.03) rotate(-39.09)"/><polygon class="cls-13" points="111.57 120.39 108.39 120.1 109.26 119.4 111.67 119.64 111.93 117.22 112.8 116.52 112.44 119.69 115.72 119.99 114.85 120.69 112.33 120.45 112.05 122.97 111.19 123.67 111.57 120.39"/><rect class="cls-13" x="108.06" y="120.66" width="0.88" height="4.53" transform="translate(-53.22 95.94) rotate(-39.09)"/><path class="cls-13" d="M103.69,127.92c-.56-.7-.24-1.38.78-2.38s1.6-1.38,1.29-1.77-.73-.09-1.51.54a3.94,3.94,0,0,0-1.2,1.57l-.78-.1a4.25,4.25,0,0,1,1.51-2.08c1.2-1,2.23-1.1,2.76-.44s.28,1.17-.52,1.95a15,15,0,0,0-1.48,1.43c-.21.29-.23.53-.08.72s.88.2,1.7-.46a4,4,0,0,0,1.37-2l.77.18a4.47,4.47,0,0,1-1.67,2.38C105.34,128.55,104.3,128.67,103.69,127.92Z"/><path class="cls-13" d="M127.44,102.65s0,0,0,0a.55.55,0,0,0,.22-.06,2.19,2.19,0,0,0,.33-.12h.1s0,0,0,0-.05,0-.06,0a0,0,0,0,0,0,0s0,0,.09,0a.3.3,0,0,0-.1.05s-.06,0-.05,0,0,0,.07,0a2.54,2.54,0,0,1,.29,0,3.69,3.69,0,0,0,.45-.11.59.59,0,0,0,.13,0s0,0,0,0,0,0,0,0-.12.06-.19.06a0,0,0,0,0,0,0s.09,0,.13,0,0,0,.07,0,0,0,0,0a.85.85,0,0,0,.23,0l.14,0a.08.08,0,0,1,.07,0h0c0-.08.12,0,.18,0l.38-.1a.07.07,0,0,1,.09,0,.08.08,0,0,0,.08,0,.67.67,0,0,0,.19,0s0,0,0,0,0,0,0,0-.1,0-.14-.06,0,0,0,0,0,0,.06,0a0,0,0,0,1,0,0c0,.06,0,.08.06,0s0,0,0,0,.11,0,.17,0a2.43,2.43,0,0,0,.27,0s.06,0,.07,0,0,0,0,0a.93.93,0,0,1,.13,0s0,0,0,0,0,.06,0,.08,0,0,.06,0,0,0,0-.06a.13.13,0,0,1,.09.1.1.1,0,0,0-.12,0,.11.11,0,0,1-.07,0s-.06,0-.06,0a.06.06,0,0,0,.05.06.6.6,0,0,0,.22-.06.18.18,0,0,1,.2,0,.09.09,0,0,0,.11,0h0c.09-.06.18,0,.26,0a.2.2,0,0,1,.13,0c.19,0,.37,0,.56,0a1.54,1.54,0,0,0,.37,0h.4a3,3,0,0,0,.42,0,.11.11,0,0,0-.1,0,.15.15,0,0,1-.11-.07.13.13,0,0,0-.16,0s-.05,0-.08,0a.15.15,0,0,0-.14,0c-.07,0-.14,0-.2,0s0,0,0,0h-.05s0,0,0,0,0,0,0,0-.15,0-.23,0-.06,0-.07-.06a.05.05,0,0,0-.06,0s0,0,0,0,0,0,0,0,0,0,0,0a.12.12,0,0,0-.13-.07s0,0,0,0,0,0,0,0,0,0,0,0a.26.26,0,0,0-.15,0c-.06,0-.1,0-.16,0s0,0,0,0-.09,0-.13,0,0,0,0,0,0,0,0,0h.1a.2.2,0,0,0,.15,0s0,0,.05,0,.07,0,.1,0,.18,0,.27,0,.13,0,.2,0,.15,0,.21,0,.15,0,.23,0,0,0,.06,0,.14-.06.21,0a.11.11,0,0,0,.1,0,0,0,0,0,1,.05,0,.55.55,0,0,0,.31,0c.06,0,.1,0,.12.07a.11.11,0,0,0,.13.06s.1,0,.12,0,0,0,0,0,0,0,0,0,.08-.06.12-.07.06,0,.07,0,0,.07.09.05a.09.09,0,0,1,.13.07c0,.07.07.08.11.12a.07.07,0,0,0,.08,0s0,0,0,0a.47.47,0,0,0,.33.08.63.63,0,0,1,.19,0s0,0,0,0,0,0,0,0a0,0,0,0,1,0,0s.06,0,.09,0a0,0,0,0,1,0,0c0,.05,0,.05,0,.05s.34,0,.51,0,0,0,0,0l0,0s.09,0,.1,0h0s.08,0,.12,0,0,0,.06,0a.35.35,0,0,0,.28.08c.1,0,.2,0,.3,0h0l-.17,0a.93.93,0,0,1,.33,0s0,0,0,0,0,.08.08.07a1.13,1.13,0,0,1,.26,0,.22.22,0,0,0,.08,0,1.57,1.57,0,0,1,.37,0,.89.89,0,0,0,.23,0s0,0,.08,0h.17a3.09,3.09,0,0,0,.43,0h0c.05.11.13,0,.19,0a2.45,2.45,0,0,0,.27,0l.11,0,.06,0s.06,0,.08,0,0,0,0,.06.09,0,.13-.07.09-.1.16-.07h0c0-.06.12,0,.17-.07h0s0,0,0,.07a.08.08,0,0,0,.08,0c0-.06.08-.06.12-.07h.06c.07,0,.12,0,.08-.12s0,0,0,0a.46.46,0,0,1,.24-.1l.05,0s0,0,0,0,.05,0,0,0,0,0,0,0a.09.09,0,0,0,.08-.05s.06-.09.12-.1h0a.09.09,0,0,0,0,0s0,0-.05,0,0,0,0-.06.06,0,.07-.08a0,0,0,0,1,0,0c.09,0,.08-.1.12-.15h0s0,0,0,0,.08-.11.13-.16a.31.31,0,0,0,.09-.14s0-.07,0-.1a.2.2,0,0,1,0-.13.39.39,0,0,0-.06-.26s0,0,0-.07,0-.11-.06-.17-.06,0-.09-.08a1.42,1.42,0,0,0-.12-.13.15.15,0,0,0-.12-.07l0,0s0-.09-.08,0,0,0-.05,0a.53.53,0,0,0-.12-.15s-.06-.06-.12,0-.05,0-.05,0,0-.09-.07-.09-.08,0-.07.08,0,0,0,0h0s0,0,0,0,0-.08,0-.11a.49.49,0,0,1-.14-.11l-.05,0s0,0-.07,0,0,0,.05,0,0,0,0,0c-.19-.09-.35-.24-.54-.32l-.4-.19h0a2.77,2.77,0,0,0-.37-.22,1.13,1.13,0,0,0-.27-.13s0,0-.06,0-.13-.07-.2-.12a2,2,0,0,1-.28-.16l-.18-.11s-.07,0-.07-.07,0-.06.07-.07A.63.63,0,0,0,138,98l0,0,.36-.15c.08,0,.16-.11.26-.09s0,0,0,0a.37.37,0,0,1,.27-.07.9.9,0,0,0,.27-.07,2.47,2.47,0,0,0,.29-.06,1,1,0,0,1,.33-.06.56.56,0,0,0,.25,0,.75.75,0,0,1,.2,0,2.86,2.86,0,0,0,.28-.07,1.29,1.29,0,0,1,.28-.08c.06,0,.11,0,.16-.08a.14.14,0,0,1,.11,0h0c.11-.06.25-.09.32-.21a1,1,0,0,0,.15-.19.18.18,0,0,1,.07-.08.19.19,0,0,0,.09-.2s0,0,0,0,.06,0,0-.06,0,0,0,0,0-.12.05-.18,0-.06.06,0l0,0a0,0,0,0,0,0,0s-.09,0,0-.08,0,0,0,0,0-.05-.07,0a.07.07,0,0,1-.1,0,.07.07,0,0,0-.06,0c-.09,0-.15-.06-.23-.08l-.08,0s-.06,0-.06,0,0,0-.06,0-.09,0-.14,0l-.08,0a.25.25,0,0,0-.25,0c-.06,0-.1,0-.15,0s-.12-.06-.16,0-.09,0-.13,0-.07,0-.11,0a.49.49,0,0,0-.24,0,.5.5,0,0,1-.17,0,.07.07,0,0,0-.06,0h-.13l-.35,0-.36,0s-.08,0-.09-.05,0,0,0,.05,0,0,0,0a.74.74,0,0,0-.39.07l-.22,0a1.35,1.35,0,0,0-.4.08s-.07,0-.1,0,0,0-.05,0a.06.06,0,0,1-.08,0,.05.05,0,0,1,0-.07,0,0,0,0,0,0,0s0,0,0,0v0c.06.08,0,.09,0,.12a4.49,4.49,0,0,0-.75.47h0a.86.86,0,0,1,.32-.28c.06,0,.09-.1.15-.13s0,0,0,0,0,0,0,0l-.14.09c-.07.06-.16.1-.23.17s-.21.21-.32.31a.34.34,0,0,1-.09.08.09.09,0,0,0,0,.1.14.14,0,0,1,0,.11,1.29,1.29,0,0,0-.25.59,1.27,1.27,0,0,0,0,.28,1.37,1.37,0,0,0,0,.28c-.06,0-.08,0-.07,0s0,.11,0,.15,0,.17,0,.26a0,0,0,0,1,0,0,1.4,1.4,0,0,0-.16-.26.14.14,0,0,1,0-.11s0,0,0,0,0,0,0,0,0,0,0,0,0,.11.07.13,0,0,0,0,0,.13.05.2,0,0,.05,0,0,.09,0,.13.06.11,0,.18.05.09.07.14a.35.35,0,0,1,.05.08s0,.06.05,0,0,0,0,0,0,.11.07.14,0,.1,0,.15,0,.13,0,.19a1.17,1.17,0,0,0,.16.36.08.08,0,0,1,0,0s0,0,0,0a.14.14,0,0,0-.13,0,.66.66,0,0,0-.2,0h-.15c-.05,0-.08,0-.12,0s0,0,0,0-.09,0-.14,0-.06,0-.09,0,0,0,0,0-.2,0-.3,0l-.1,0h0c-.05.06-.11,0-.16,0a.16.16,0,0,0-.15,0h0c0-.06-.12,0-.17,0s-.07,0-.1,0,0,0-.07,0a.79.79,0,0,0-.22,0l-.18,0a.21.21,0,0,1-.17,0s0,0,0,0,0,.07,0,.06-.15,0-.21,0h0a.13.13,0,0,1-.13.06l-.51,0a4.34,4.34,0,0,0-.52.07l-.35,0a.69.69,0,0,1-.2,0s0,0,0,0,0,0-.08,0h0c0,.06-.11,0-.16.05s-.09,0-.12,0h0c-.05,0-.1,0-.16,0s-.09,0-.14,0,0,0,0,0-.05.1-.11.06-.08,0-.1,0,0,0-.06,0-.1-.08-.18-.06,0,0-.05,0,0,0,0,0,0,0,0,0,0,0,0,0a.05.05,0,0,1,0,0s0,0,0,0,0,0,0,0,0,0,0,0,0-.06,0-.09-.06,0-.09,0,0,0,0,.05,0,.07-.06.12a.15.15,0,0,0,0,.13s-.07,0-.06-.07,0,0,0,0-.05,0,0,0,0,0,0,0,0,0-.07,0a.59.59,0,0,1-.19,0s0,0,0,0,0,0,0,0,0,0,0,0-.1-.06-.16,0,0,0,0,0,0,0,0,0h0s0,0,0,0,0,0,0,0-.05,0-.07,0h-.13s0,0,0,0,0,0,0,0,0,0-.05,0,0,0,0,0a0,0,0,0,0,0,.06.07.07,0,0,1,0,.07c0-.05-.08-.07-.11,0s0,0-.06,0-.09,0-.05.1a.3.3,0,0,0-.18,0s0,0,0,.06,0,0,0,0-.06,0-.06,0,0,0,0,0-.11,0-.16,0a3.59,3.59,0,0,1-.35.12.51.51,0,0,0-.17.07.49.49,0,0,1-.17.06l-.15.07s0,0,0,0h0s0,0,0,0,.07,0,.1,0a.12.12,0,0,1,.14,0s.05,0,.07,0,.28,0,.42-.06.05,0,.08,0-.07,0-.06.07,0,0,.08,0,0,0,0,.06,0,0,0,0a.29.29,0,0,1-.1,0s0,0,0,0,0-.07-.08,0a.11.11,0,0,1-.1,0,.07.07,0,0,0-.08,0l-.06.13s0,0,0,.07a.08.08,0,0,0,.07,0,.11.11,0,0,1,.14,0s0,0-.08,0-.07,0-.06,0,0,0,0,0-.07,0-.11.06,0-.07-.06,0a2.58,2.58,0,0,1-.51.23h0s-.06,0,0,.07,0,0,.06,0l.49-.19h0s.08,0,.11,0h0s-.08.06-.12.05-.06,0-.08,0-.08,0-.13,0-.09,0-.07.05-.05,0-.07,0-.07,0-.11.08c.11,0,.19-.06.28,0a.5.5,0,0,1-.12.08c-.06,0-.11,0-.1.13s0,0,0,0l-.31.11S127.43,102.62,127.44,102.65Zm13.88-1.51-.12.22a.08.08,0,0,1,0-.07c0-.05,0-.09,0-.16a.11.11,0,0,1,.05-.14c.06,0,0-.07,0-.11s0-.08-.07-.08,0,0,0,0l0-.11c-.05-.08-.05-.17-.14-.22a.13.13,0,0,1-.08-.11,0,0,0,0,0,0,0,.1.1,0,0,1-.06,0s0,0,0,0,.05,0,.06,0l0,0s.06.07.1.1.19.12.21.25,0,0,0,0a.37.37,0,0,1,.07.12.58.58,0,0,1,0,.45s0,0,0,0S141.35,101.19,141.32,101.14Zm-6.56-1s0,0,0,0a.36.36,0,0,1,.25,0v0h-.08s-.06,0-.08,0S134.77,100.21,134.76,100.14Zm-.66.06a.14.14,0,0,0,0-.15.17.17,0,0,0,.17,0l.07,0s0,0,.05.06,0,0,0,0,0,0,0,0,0,0,0,0-.07,0-.05.09a.1.1,0,0,1,0,.08A.23.23,0,0,0,134.1,100.2Zm-2.95,1.25c-.09,0-.17,0-.24,0s0,0,0,0a0,0,0,0,1,0,0A.22.22,0,0,1,131.15,101.45Zm-.35.48a.07.07,0,0,1,0-.07.4.4,0,0,1,.19,0s.06,0,.09,0,.06,0,.09,0,0,0,0,0a.66.66,0,0,1-.34,0S130.79,102,130.8,101.93Zm-1.27-.08s0,0,.06,0h0c.06,0,.13,0,.18,0a.43.43,0,0,1,.24-.06c.2,0,.39-.06.59,0s.24,0,.36,0a.13.13,0,0,0,.13,0c.06-.06.07-.06.14,0a.15.15,0,0,0,.12,0,1,1,0,0,1,.24,0,1,1,0,0,1,.38.09h.06s.06,0,.09,0a.38.38,0,0,1,.12.1,0,0,0,0,1,0,.08s-.07,0-.09,0a.47.47,0,0,0-.16,0s-.08,0-.14,0a.12.12,0,0,1-.16-.05h0s-.08,0-.13,0l-.34,0a1.28,1.28,0,0,0-.34,0,.61.61,0,0,1-.19,0s0,0,0,0l.06,0s.06,0,0,.07-.07.06-.1,0a.21.21,0,0,1,0-.06s0,0,0,0,0,0,0,0,0,.07,0,.05,0,0,0,0a.8.8,0,0,1-.38,0s0,0,0,0a3.23,3.23,0,0,0-.44,0S129.53,101.88,129.53,101.85Z"/><path class="cls-13" d="M139.72,95.26s0,0,0,0a.07.07,0,0,1-.07,0l0,0s0,0-.07,0,0,0,0,0,0,0,0,0,0,0-.05,0,0,0-.08,0,0,0,0,0-.15,0-.22,0-.12,0-.17.07,0,0-.07,0-.15,0-.23,0a.08.08,0,0,0-.07,0s0,0,0,0,0,0,0,0,0,0,0,0-.1,0-.14,0a.24.24,0,0,1-.09,0s-.08,0-.1,0a0,0,0,0,1,0,0s0,0,0,0,0,0,0,0a0,0,0,0,1,0,0,.22.22,0,0,1-.05-.08s0-.08.08,0,0,0,0,0a0,0,0,0,1,.06,0c.06,0,.11-.07.16,0h0a4.94,4.94,0,0,1,.48-.13l.12,0h.23c.07-.08.16,0,.24-.06s0,0,0,0,.06,0,.09,0S139.69,95.24,139.72,95.26Z"/><path class="cls-13" d="M133.79,102.24c.06.05.13,0,.2,0a0,0,0,0,0,0,0s.05,0,.08,0,.06,0,.08,0,.06,0,.09,0a.31.31,0,0,0,.1,0s0,0,0,0,0,0,0,0h-.65C133.72,102.23,133.74,102.21,133.79,102.24Z"/><path class="cls-13" d="M140.19,95.19h-.07a1,1,0,0,0-.28.1s0,0-.06,0,0,0,0,0,.18,0,.26-.08.07,0,.13,0,.06,0,.06,0S140.22,95.19,140.19,95.19Z"/><path class="cls-13" d="M130.57,102.59a.2.2,0,0,0,.11,0,.28.28,0,0,0,.13,0s.05,0,.07,0,0,0,0,0a.07.07,0,0,1-.06,0,.25.25,0,0,0-.12,0,.2.2,0,0,1-.11,0s0,0,0,0S130.55,102.58,130.57,102.59Z"/><path class="cls-13" d="M130.62,102.43s0,0,0,0h0s.08,0,.12,0a.2.2,0,0,0,.11,0s0,0,0,0a.05.05,0,0,1,0,0l-.08,0A.18.18,0,0,1,130.62,102.43Z"/><path class="cls-13" d="M132,111.87c.25.31.64.31,1.08-.05l.9-.73-1.52-1.87-.78.63c-.4.33-.52.69-.24,1a.53.53,0,0,0,.61.16A.6.6,0,0,0,132,111.87Zm.69-1.59-.33.27c-.2.16-.36.2-.49,0s-.06-.3.14-.46l.34-.28Zm-.32,1.2c-.14-.17-.06-.33.16-.51l.43-.35.37.45-.47.38C132.69,111.62,132.53,111.64,132.41,111.48Z"/><polygon class="cls-13" points="132.03 112.7 130.55 113.91 130.28 113.57 131.39 112.67 131.02 112.22 130.11 112.95 129.84 112.62 130.75 111.88 130.42 111.47 129.31 112.38 129.03 112.04 130.51 110.84 132.03 112.7"/><polygon class="cls-13" points="128.56 113.71 128.42 112.53 128.85 112.19 128.88 112.21 129.04 113.91 129.64 114.65 129.25 114.96 128.65 114.22 127.03 113.71 127.01 113.69 127.44 113.34 128.56 113.71"/><path class="cls-13" d="M125.74,116.27a1.24,1.24,0,1,0,.18-1.75A1.21,1.21,0,0,0,125.74,116.27Zm.38-.31a.73.73,0,0,1,.1-1.07.72.72,0,0,1,1.06.13.75.75,0,1,1-1.16.94Z"/><polygon class="cls-13" points="124.19 118.06 124.22 115.95 124.55 115.68 126.07 117.55 125.68 117.86 124.66 116.61 124.63 118.71 124.3 118.99 122.78 117.12 123.17 116.81 124.19 118.06"/><path class="cls-13" d="M121.23,119.93a1.14,1.14,0,0,0,1.72.15l.8-.65-1.51-1.87-.81.65A1.15,1.15,0,0,0,121.23,119.93Zm.4-.32a.7.7,0,0,1,.09-1.07l.4-.33,1,1.2-.41.32A.69.69,0,0,1,121.63,119.61Z"/><path class="cls-13" d="M118.88,122.56c.25.31.64.31,1.08,0l.9-.73-1.51-1.87-.78.63c-.41.33-.53.69-.25,1a.53.53,0,0,0,.61.16A.6.6,0,0,0,118.88,122.56Zm.69-1.59-.33.27c-.2.16-.36.2-.48.05s-.07-.3.13-.46l.34-.28Zm-.32,1.2c-.14-.17-.06-.33.16-.51l.44-.35.36.45-.47.38C119.53,122.31,119.38,122.32,119.25,122.17Z"/><path class="cls-13" d="M116.4,122.3l.79,2.46.39-.32-.16-.49.85-.69.45.26.39-.32-2.26-1.26Zm.89,1.29-.36-1.09,1,.56Z"/><polygon class="cls-13" points="115 125.53 115.03 123.42 115.36 123.15 116.88 125.02 116.49 125.33 115.47 124.07 115.44 126.18 115.11 126.45 113.59 124.58 113.97 124.27 115 125.53"/><path class="cls-13" d="M112.72,127.89c.26-.22,0-.8.06-1.06l-1.35-.4,0-.05.4-.33,1.14.37.36-.3-.63-.78.39-.31,1.51,1.87-.38.31-.61-.76-.33.27c0,.31.29,1.06-.18,1.44a.9.9,0,0,1-.38.19l-.21-.34A.72.72,0,0,0,112.72,127.89Z"/><rect class="cls-13" x="111.2" y="126.67" width="0.5" height="2.41" transform="translate(-55.68 98.9) rotate(-39.09)"/><polygon class="cls-13" points="109.59 129.92 109.62 127.81 109.95 127.54 111.47 129.41 111.09 129.72 110.07 128.47 110.04 130.57 109.7 130.85 108.18 128.98 108.57 128.66 109.59 129.92"/><path class="cls-13" d="M107.46,130.84l.27.33-.49.4.27.34a.88.88,0,0,0,.47-.22.78.78,0,1,0-1-1.22,1.07,1.07,0,0,0-.39.63l-.41-.15a1.37,1.37,0,0,1,.52-.84A1.24,1.24,0,1,1,108.3,132a1.86,1.86,0,0,1-1,.39l-.71-.87Z"/><path class="cls-14" d="M238.62,178.87A282,282,0,0,1,211.89,163c-2.15-1.47-4.26-3-6.38-4.52-1.77,1.92-3.17,4.15-5.16,5.89a10.48,10.48,0,0,1-3.71,2.34c-.54.17-1.15.45-1.61-.06s-.15-1.11.11-1.61a96.79,96.79,0,0,0,4.35-9.63,4.48,4.48,0,0,0,.45-2.06,114.63,114.63,0,0,0,5.31-42c-.48-9.51-1.7-18.89-5-27.86-8.08-22.09-23.06-36.84-46.16-42.7-8.42-2.13-17-2-25.55-.89-2.69.36-5.34.94-8,1.51a4.5,4.5,0,0,0-2.78.32c-1.33.35-2.67.72-4,1.17a136.76,136.76,0,0,0-14.37,5.57c-5.67,2.48-7.81,8.1-5.76,14.06,1.2,3.52,3,6.68,6.47,8.57a9.74,9.74,0,0,0,7.07.8C111.47,71,115.69,70,120,69.5a54,54,0,0,1,17.89.58,26,26,0,0,1,15.66,9,290.45,290.45,0,0,1,17.93,23.66,16.13,16.13,0,0,1,1.92,3.65,7.13,7.13,0,0,1,.45,1.35c2.22,7.69.23,14.43-4.51,20.64a137.32,137.32,0,0,1-16.14,17.35,237.44,237.44,0,0,1-18.45,15.35,152.64,152.64,0,0,1-21.87,13.78c-2.81,1.45-5.67,2.32-8.73.77a22,22,0,0,1-4.49-3.73c-5.09-4.68-10-9.58-14.81-14.5-1.77-1.8-3.37-3.77-5.22-5.49a10.33,10.33,0,0,0-.83-.79c-.29-.22-.6-.58-1-.29s-.23.61-.14.94a14.28,14.28,0,0,0,.95,2.53,79.89,79.89,0,0,0,4.64,7.89,19.11,19.11,0,0,1-5.84-8.12,13.6,13.6,0,0,1-.86-7.41,5.6,5.6,0,0,1,4.6-4.69c.7-.17,1.4-.32,2.1-.46a30.2,30.2,0,0,1,7.94.58,19.72,19.72,0,0,0,3.67.47,11.93,11.93,0,0,0,10.75-8.15c2-5.41,1.74-10.61-2.1-15.21a10.92,10.92,0,0,0-6.41-3.5,51.36,51.36,0,0,0-22.68.14.69.69,0,0,1-.6-.1,15.89,15.89,0,0,0,.64-6.37A14.29,14.29,0,0,0,71,100.51c-2.78-3.18-6.33-4-10.34-3.57a29.71,29.71,0,0,0-3.24.58,41.22,41.22,0,0,0-7.68,2.78,38.64,38.64,0,0,0-6.17,3.83,9.86,9.86,0,0,0-1.59-9.55,16.75,16.75,0,0,0-11.09-6.72A7.54,7.54,0,0,1,25.06,84c-2.54-4-5.29-7.8-7.8-11.79-.25-.39-.41-.9-1-.91-7.93-1.46-13,2.94-14.95,7.21C.79,79.69.43,80.9,0,82.07v4.58c.29.09.28.35.34.57a13.77,13.77,0,0,0,7.41,9.13c2.69,1.42,5.41,2.81,8.22,4,.69.29.89.54.72,1.35a74.31,74.31,0,0,0-1.21,20.62,13.15,13.15,0,0,0,14.84,11.93c.74-.1,1.42-.37,1.46.94.44,14.4,7.2,25.07,19.39,32.44a6.23,6.23,0,0,1,2.77,3.19c4.85,11.86,13.28,20.65,23.94,27.44,10.87,6.93,22.8,11.11,35.42,13.44a108.63,108.63,0,0,0,14.62,1.63c2.43.46,4.74-.24,7-.83a22.61,22.61,0,0,0,6.46-2.66c.55-.34,1.22-.87,1.82-.32s.32,1.36,0,2a11.51,11.51,0,0,1-3.49,4.1,34.51,34.51,0,0,1-4.53,3c-.42.25-1,.37-1.06,1a23.35,23.35,0,0,0,3.82,4.18,357.11,357.11,0,0,0,39,31.63c.23.16.49.28.74.42.23-.49-.1-.82-.34-1.16a17.64,17.64,0,0,1-3.15-8.16,5.66,5.66,0,0,1-.14-1.79c0-.86,0-1.72,0-2.58a5.28,5.28,0,0,1,.13-1.77c.56-2.31.84-4.67,1.5-7,2.74-9.48,7.57-17.84,13.61-25.55a91.38,91.38,0,0,1,8.59-9.73,81.11,81.11,0,0,1,20.23-14.74,47.64,47.64,0,0,1,12.57-4.12,5.27,5.27,0,0,1,1.77-.11h3.06a4.26,4.26,0,0,1,1.55.1,2.52,2.52,0,0,0,.67.09C238.11,179.34,238.53,179.38,238.62,178.87Z"/><path class="cls-15" d="M173.94,246.61c.18,3.52,1.75,6.48,3.76,9.26,5.47,4.92,11.84,4.86,18.41,3.16,7.79-2,14.59-6,20.86-10.89a92,92,0,0,0,27.82-34.81c2.78-6.17,4.67-12.6,4.37-19.47-.18-4.29-1.36-8.25-4.61-11.34a15.08,15.08,0,0,0-4.7-2.92,7.84,7.84,0,0,0-2.08-.52l-.58,0c-.44-.3-1,0-1.44-.25h-3.44c-.54.32-1.19-.07-1.73.26a37.51,37.51,0,0,0-9.63,2.7,67.29,67.29,0,0,0-16.5,10.14,80.48,80.48,0,0,0-8.23,7.42c-6.92,7.34-13,15.28-17.28,24.5-2.24,4.85-4.17,9.83-4.72,15.23a11.57,11.57,0,0,1-.28,1.24,5.43,5.43,0,0,0-.12,1.75v2.8A5.53,5.53,0,0,0,173.94,246.61Z"/><path class="cls-16" d="M49.83,100.62c2.36-1.22,5-1.83,7.39-2.81.14-.84-.53-1.28-.94-1.82C48.79,86.25,41.21,76.57,33.89,66.7A178.45,178.45,0,0,1,23.8,52c-1.07-1.79-1.06-2,.48-3.54A147.56,147.56,0,0,1,36.77,37.76,256.79,256.79,0,0,1,67.21,17a72.72,72.72,0,0,1,10.67-5.14,2.74,2.74,0,0,1,2.91.45c3.89,3.07,7.62,6.33,11.27,9.67,5.48,5,10.63,10.38,15.92,15.6,1.53,1.51,2.79,3.26,4.39,4.7.42.37.75.88,1.39.92l6.81-1.81c-5.92-6.47-12.08-12.7-18.33-18.84C95,15.47,87.68,8.56,79.82,2.19A8.62,8.62,0,0,0,70.76.66C63.13,3.5,56.16,7.6,49.35,12c-9.86,6.34-19.43,13.1-28,21.14-2.91,2.72-6,5.35-7.87,9a5,5,0,0,0-.63,1.72,19.17,19.17,0,0,0-.06,2.51c.12,2,1.29,3.57,2.25,5.19,5.25,9,11.19,17.46,17.22,25.91,5.2,7.29,10.59,14.43,16,21.57A5,5,0,0,0,49.83,100.62Z"/><path class="cls-17" d="M49.83,100.62C47,96.81,44.12,93,41.28,89.21c-4.65-6.26-9.23-12.57-13.64-19C23.83,64.66,20,59.15,16.54,53.37c-1.06-1.77-2-3.61-3-5.42a2.19,2.19,0,0,1-.38-1.34A10.81,10.81,0,0,1,13,43.89c0-.24,0-.47-.38-.42a25.73,25.73,0,0,0-2,17.06c.54,2.46,2,4.49,3.19,6.64.78,1.42,1.64,2.78,2.47,4.17,3.33,5.26,6.82,10.43,10.39,15.53a2.2,2.2,0,0,0,1.85,1,17.77,17.77,0,0,1,13.11,6.85C43.9,97.6,44.15,100,42.94,105A42.58,42.58,0,0,1,49.83,100.62Z"/><path class="cls-18" d="M134.18,219.64c2.82-1.63,5.67-3.22,7.9-5.68a7.58,7.58,0,0,0,1.73-2.74,2,2,0,0,0-.19-2.16c-.69-.63-1.45-.14-2.09.26a26.36,26.36,0,0,1-6.24,2.7,43.91,43.91,0,0,1-7.37,1.29Z"/><path class="cls-18" d="M199.94,153.33A123.89,123.89,0,0,1,194.77,165c-.31.58-.84,1.27-.15,2s1.31.33,2,.12c3-.9,4.83-3.26,6.77-5.45a8.93,8.93,0,0,0,2.12-3.17C203.77,156.61,201.82,155,199.94,153.33Z"/><path class="cls-19" d="M237.77,179.08a4,4,0,0,0,2.08.52,2.55,2.55,0,0,0-1.23-.73C238.38,179.12,238.06,179,237.77,179.08Z"/><path class="cls-16" d="M12.63,43.47l.29.29q.13.15.21,0c.11-.55.22-1.09.34-1.63A2.23,2.23,0,0,0,12.63,43.47Z"/><path class="cls-16" d="M138.23,69.8c5.27,6.14,10.59,12.25,15.43,18.75,2.42,3.25,4.7,6.59,6.91,10a1.9,1.9,0,0,1-.12,2.54,135.53,135.53,0,0,1-18.89,20,208.81,208.81,0,0,1-33.43,24.64c-1.73,1-3.54,1.86-5.29,2.82a1.21,1.21,0,0,1-1.65-.23c-2.06-2.05-4.14-4.08-6.21-6.12-2.47-.34-5-.7-7.43-1a13.33,13.33,0,0,0-4.5,0c2.2,2,4.16,4.28,6.23,6.42,4.3,4.47,8.71,8.83,13.14,13.16,3.32,3.25,6.7,3.69,10.84,1.68,11.7-5.7,22.15-13.25,32.17-21.45A197.39,197.39,0,0,0,163,124.85a91.59,91.59,0,0,0,9.3-11.21c1.19-1.73,2.25-3.56,1.76-5.84-.24-.43-.15-1-.37-1.4a9.08,9.08,0,0,0-1.33-3c-5.08-7.88-11-15.1-16.78-22.5a29.77,29.77,0,0,0-10.73-9A25.73,25.73,0,0,0,138.23,69.8Z"/><path class="cls-17" d="M173.93,107.83c.13,2.94-1.5,5.12-3.14,7.3-6.48,8.62-14.27,16-22.42,23a182.66,182.66,0,0,1-29.72,21.18c-1.86,1-3.78,2-5.7,2.94-3.82,1.89-6.94,1.45-10-1.5s-6.23-6-9.27-9.13-6.11-6.42-9.14-9.65a1.79,1.79,0,0,0-1.45-.73,14,14,0,0,0-3.3.88,6.61,6.61,0,0,0-3.88,6.16c.28,5.79,2.9,10.45,7,14.35.26.25.55.7,1,.39s0-.78-.22-1.08a51.14,51.14,0,0,1-5-8.33,8,8,0,0,1-.86-2.78c.65.12.89.62,1.22,1Q90,163.39,101.67,174.21c3.15,2.9,6.25,3.38,10.08,1.53,11.62-5.62,22-13.07,31.93-21.23a174.24,174.24,0,0,0,22.56-21.65c1.57-1.86,3-3.81,4.45-5.77a21.55,21.55,0,0,0,3.49-19.5C173.94,107.5,173.82,107.55,173.93,107.83Z"/><path class="cls-15" d="M63.8,106.55c.12-2.6-1.72-5.54-4.2-5.89-2.8-.38-6.28,1.4-7.09,3.68a4.83,4.83,0,0,0,0,2.79,10.6,10.6,0,0,0,2.21,4.26c2.1,2.56,5.94,2.13,7.92-.91A6,6,0,0,0,63.8,106.55Z"/><path class="cls-15" d="M27.33,107.53a3.35,3.35,0,0,0,3.89-1.91,6,6,0,0,0-.12-6.13,6.63,6.63,0,0,0-5.88-3.44A4.15,4.15,0,0,0,21.63,98a7.11,7.11,0,0,0-1.44,5.5c.46,2.15,2.93,3.8,5.83,4C26.45,107.56,26.88,107.53,27.33,107.53Z"/><path class="cls-15" d="M85.8,125.85c.24,4.79,5.78,5.17,8.32,3.25A6.56,6.56,0,0,0,97,124.68a5.49,5.49,0,0,0,0-2.55c-.59-2.6-2.64-3.3-4.89-3.74a6.41,6.41,0,0,0-2.79,0c-2.74.94-3.15,3.32-3.52,5.72A3,3,0,0,0,85.8,125.85Z"/><path class="cls-18" d="M48.42,146.53a48.81,48.81,0,0,0,3.89,18c.15.37.21,1,.78.8s.21-.85.09-1.23a61.79,61.79,0,0,1-2.88-13.65c-.91-11.57,3.13-20.89,12.61-27.73a51.33,51.33,0,0,1,6.42-4c.36-.18.94-.3.7-.87s-.72-.25-1.1-.1c-4.41,1.78-8.6,4-11.86,7.5C51.52,131.21,48.27,138.21,48.42,146.53Z"/><path class="cls-15" d="M106.14,59.21c3-.14,3.9-2.9,3.67-5.36a13.79,13.79,0,0,0-.45-2.08c-.73-2.91-2.3-3.84-5.18-3.05a5.67,5.67,0,0,0-4.34,3.87,3.65,3.65,0,0,0,0,2,5.31,5.31,0,0,0,4.3,4.58A3.58,3.58,0,0,0,106.14,59.21Z"/><path class="cls-18" d="M30.83,128c.11,1,.21,2.09.33,3.12.05.41,0,1,.61.92s.34-.61.35-.95a38.9,38.9,0,0,1,2.55-13,35.67,35.67,0,0,1,6.51-10.67c.27-.31,1-.59.41-1.13s-.85.15-1.15.41c-5.39,4.7-8.13,10.79-9.25,17.71A21.27,21.27,0,0,0,30.83,128Z"/><path class="cls-20" d="M17,98.38c0,.33-.11.74.32.84s.6-.34.74-.69c.48-1.19.9-2.41,1.45-3.57a11.89,11.89,0,0,1,6.14-6.28c.33-.14.86-.2.69-.72s-.65-.26-1-.22a7.56,7.56,0,0,0-4.63,2.33A13.48,13.48,0,0,0,17,98.38Z"/><path class="cls-20" d="M64.65,127.78A12,12,0,0,0,66.44,134c.22.31.41.88,1,.62s.33-.68.2-1.12a29.76,29.76,0,0,1-1.22-9.57c0-.34.18-.83-.36-.94s-.6.42-.7.74A11.69,11.69,0,0,0,64.65,127.78Z"/><path class="cls-21" d="M39.45,115c.78,3.22,1.88,6.46,5.09,8.46.37.23.81.72,1.24.22s-.13-.8-.37-1.08a30.74,30.74,0,0,1-4.84-8c-.15-.34-.16-1-.78-.8S39.54,114.44,39.45,115Z"/><path class="cls-22" d="M127.6,43.29c.16-.53.25-1.28-.21-1.47s-.79.52-1,1a10.34,10.34,0,0,0-.26,8.7c.22.52.33,1.43,1.11,1.2s.3-1,.24-1.53a21.25,21.25,0,0,1-.13-5.69C127.64,44.77,127.27,44,127.6,43.29Z"/><path class="cls-23" d="M24.86,117.63c.51-.11,1,.15,1.16-.33s-.34-.71-.7-.88A30.2,30.2,0,0,1,20,113.15c-.29-.21-.65-.64-1-.35s-.19.79,0,1.18A7.59,7.59,0,0,0,24.86,117.63Z"/><path class="cls-24" d="M69,124.74a6.58,6.58,0,0,0,1.22,3.34c.22.28.47.5.83.34a.64.64,0,0,0,.34-.84,50.57,50.57,0,0,1-.73-5.35c0-.32,0-.7-.5-.71s-.52.33-.67.63A11.36,11.36,0,0,0,69,124.74Z"/><path class="cls-25" d="M122.39,46.75c-.14-.52.3-1.69-.56-1.78-1-.12-1,1.16-1.28,1.9a1,1,0,0,0,0,.42c.09.94.17,2.25,1.16,2.31s.5-1.27.72-2A3.48,3.48,0,0,0,122.39,46.75Z"/><path class="cls-26" d="M22.36,121.92c.33,0,.87.13,1-.36s-.32-.87-.72-1.09a17,17,0,0,0-1.95-.86c-.33-.13-.79-.31-1,.11s0,.74.28,1A2.76,2.76,0,0,0,22.36,121.92Z"/><path class="cls-27" d="M173.94,244.88V242c-.09-.12-.17-.11-.24,0v2.85C173.77,245,173.86,245,173.94,244.88Z"/><path class="cls-28" d="M127.6,43.29a4.39,4.39,0,0,0-.26,2.18C127.81,44.79,127.56,44,127.6,43.29Z"/><path class="cls-29" d="M230.58,179.06c.58-.06,1.21.21,1.73-.26C231.73,178.84,231.1,178.58,230.58,179.06Z"/><path class="cls-30" d="M173.93,107.83l.25-.24c-.14-.41-.11-.89-.5-1.19C173.7,106.88,173.53,107.41,173.93,107.83Z"/><path class="cls-31" d="M173.7,242l.24,0v-1.71C173.48,240.81,173.72,241.43,173.7,242Z"/><path class="cls-32" d="M173.94,244.88h-.24c0,.59-.21,1.21.24,1.74Z"/><path class="cls-33" d="M235.75,178.8c.42.43.95.23,1.44.25C236.77,178.61,236.24,178.82,235.75,178.8Z"/><path class="cls-4" d="M206.45,230.28c1.71-.07,3.88-1.22,5.88-2.7,4.58-3.42,8.07-7.63,9.2-13.42.8-4.14-1.91-6.74-5.9-5.42-7.09,2.34-11.43,7.52-13.9,14.4a7.39,7.39,0,0,0-.37,3.37C201.66,229.15,203,230.31,206.45,230.28Z"/><path class="cls-34" d="M53.12,16.26c-.36.14-.9.32-1.42.54A27.88,27.88,0,0,0,42.55,23q-.39.42-.75.87a1.32,1.32,0,0,0-.17,1.59c.35.52,1,.31,1.45.12a30.49,30.49,0,0,0,7.38-4.31A26.49,26.49,0,0,0,54.05,18a1.21,1.21,0,0,0,.26-1.44C54.1,16.18,53.7,16.21,53.12,16.26Z"/><path class="cls-17" d="M35.3,26.83a2.56,2.56,0,0,0-2.76,2.76,3.26,3.26,0,0,0,3.24,3.27c1.73,0,2.66-1,2.64-2.81A3.18,3.18,0,0,0,35.3,26.83Z"/><path class="cls-16" d="M13.13,43.73l-.21,0c0,1-.28,1.94.24,2.85Z"/><path class="cls-16" d="M12.67,59.45c.63,1.26,1.13,2.49,1.79,3.62A188.25,188.25,0,0,0,29.61,85.35c.43.54.88,1.76,1.58,1.25.91-.65-.23-1.42-.61-2Q22.36,72.17,14.06,59.8c-.25-.36-.4-.93-1-.8A.51.51,0,0,0,12.67,59.45Z"/><path class="cls-16" d="M107.86,171.26a11.73,11.73,0,0,0,3.8-1A160.44,160.44,0,0,0,140,151.68a4.91,4.91,0,0,0,.63-.57.52.52,0,0,0,0-.77.5.5,0,0,0-.65-.06c-.36.22-.71.48-1,.73a203.08,203.08,0,0,1-26.51,16.77c-1.92,1-3.83,1.88-6.11,1.31a7.66,7.66,0,0,1-3.48-1.83c-7.54-7.08-15-14.19-22.25-21.61-.13-.14-.27-.27-.39-.42-.36-.4-.75-.61-1.23-.21s-.11.85.19,1.18q3.19,3.47,6.42,6.91c5,5.32,10.3,10.32,15.57,15.36A9.81,9.81,0,0,0,107.86,171.26Z"/><path class="cls-16" d="M153.08,139.68a.56.56,0,0,0,.35.57c.39.18.63-.09.87-.31,1.52-1.37,3.08-2.69,4.54-4.12a84.29,84.29,0,0,0,12.86-15.58c.2-.32.39-.65.59-1s.34-.58,0-.88-.71-.09-1,.21c-.77.94-1.54,1.89-2.28,2.86-2.87,3.77-6.1,7.23-9.22,10.78-2,2.24-4.1,4.34-6.15,6.52C153.42,139,153.08,139.24,153.08,139.68Z"/><path class="cls-16" d="M143.87,147.09c.09.76,0,1.52.68,1.88s1.23-.23,1.71-.67c1.45-1.29,2.88-2.6,4.32-3.9.82-.74.69-1.46,0-2.22s-1.28-.48-1.93.09c-1.39,1.22-2.79,2.42-4.22,3.59A1.25,1.25,0,0,0,143.87,147.09Z"/><path class="cls-34" d="M35.79,31a.88.88,0,0,0,.83-1,1.37,1.37,0,0,0-1.4-1.31.82.82,0,0,0-.89,1C34.42,30.52,35,30.86,35.79,31Z"/></g></g></svg>