<svg xmlns="http://www.w3.org/2000/svg" viewBox="0 0 320.17 527.89"><defs><style>.cls-1{fill:#582974;}.cls-2{fill:#fff;}.cls-3{isolation:isolate;}.cls-4{fill:#dc9aa8;}.cls-5{fill:#c97da8;}.cls-6{fill:#fefefe;}.cls-7{fill:#10294c;}.cls-8{fill:#f3e3e5;}.cls-9{fill:#11294b;}.cls-10{fill:#f6f6f6;}.cls-11{fill:#581e96;}.cls-12{fill:#f6fbfd;}.cls-13{fill:#f4fbfd;}.cls-14{fill:#f1fafc;}</style></defs><g id="Camada_2" data-name="Camada 2"><g id="Layer_1" data-name="Layer 1"><rect class="cls-1" x="133.88" y="307.11" width="20.5" height="98.3"/><path class="cls-1" d="M165,381.66a81.19,81.19,0,0,0-41.81,0,4.81,4.81,0,0,0-3.31,3.82,366.72,366.72,0,0,0,0,73.33,4.84,4.84,0,0,0,3.31,3.83,81.41,81.41,0,0,0,41.81,0,4.85,4.85,0,0,0,3.3-3.83,366.72,366.72,0,0,0,0-73.33A4.82,4.82,0,0,0,165,381.66Z"/><path class="cls-2" d="M243,323.17c-19.46,14.46-60.42,23.92-98.71,23.84-38.18.28-79.27-9-99.37-23.85-4.54-16.31-5.48-32.5-2.08-48.54a6.71,6.71,0,0,1,5.48-4.24q95.82-4.77,191.64,0a6.68,6.68,0,0,1,5.48,4.24C248.71,290.66,247.64,306.85,243,323.17Z"/><g class="cls-3"><path class="cls-1" d="M108.79,12.66H83.56C37.41,12.66,0,58.33,0,114.67V252.12c0,10.19,6.77,18.46,15.12,18.46H40.35c-8.35,0-15.12-8.27-15.12-18.46V114.67C25.23,58.33,62.64,12.66,108.79,12.66Z"/><path class="cls-2" d="M108.79,12.66c46.15,0,83.56,45.67,83.56,102V252.12c0,10.19-6.77,18.46-15.13,18.46H40.35c-8.35,0-15.12-8.27-15.12-18.46V114.67C25.23,58.33,62.64,12.66,108.79,12.66Z"/></g><ellipse class="cls-1" cx="144.13" cy="277.25" rx="102.25" ry="23.76"/><path class="cls-1" d="M55.31,506.35a10.72,10.72,0,0,1-3.59-20.82l177.63-63.2a10.72,10.72,0,1,1,7.19,20.2L58.91,505.73A10.82,10.82,0,0,1,55.31,506.35Z"/><path class="cls-1" d="M233,506.35a10.78,10.78,0,0,1-3.6-.62L51.72,442.53a10.72,10.72,0,1,1,7.19-20.2l177.63,63.2A10.72,10.72,0,0,1,233,506.35Z"/><circle class="cls-1" cx="54.81" cy="511.59" r="16.3"/><circle class="cls-1" cx="54.81" cy="446.67" r="16.3"/><circle class="cls-1" cx="233.45" cy="511.59" r="16.3"/><circle class="cls-1" cx="233.45" cy="446.67" r="16.3"/><path class="cls-4" d="M38.92,100.11s-6.75-22.08,9.26-36c3.23-6,7.67-10.85,14.17-13.19C67,49.19,69.89,46.13,72.45,42c5.53-9,13.77-13.85,24.44-14.16,7.38-.21,14.76.4,22.14-.5s15-1.77,22.57-2.14c5.69-.28,11.49.14,16.52,3.31a75.5,75.5,0,0,1,17.19,15.21c4.61,5.42,9.94,9.84,17.23,11.21a71.83,71.83,0,0,0,14.43.74,15.58,15.58,0,0,1,14.27,7.81c2.55,4.05,4,8.55,5.69,13,3.32,8.69,7.55,16.54,15.43,22.14,8.81,6.25,12.25,15.24,12.06,25.89A109.75,109.75,0,0,1,253.21,140c-.17,1.05-1,2.88.95,3.18s1.52-1.64,1.67-2.58c1.21-7.45,2.56-14.85,1.57-22.53-1.17-9.2-5.12-16.68-12.35-22.35-4.73-3.7-8.89-7.79-11.2-13.45s-4.39-11.39-6.86-17c-3.32-7.52-8.44-12.91-17.19-14-4.25-.53-8.46-.12-12.69-.32A22,22,0,0,1,182,44.66c-4-4-7.94-8.26-12.18-12.09-5.2-4.7-10.7-9.09-17.87-10.46-6.75-1.3-13.51-.71-20.26.17l-15.27,2c7.08-3.3,12.54-8.42,17.86-13.9a34.36,34.36,0,0,1,40.55-6.44A22.35,22.35,0,0,0,191.54,6c8.37-2.12,16.05-.18,21.87,6.23,4.36,4.81,9.49,5.74,15.25,4.8A30.85,30.85,0,0,1,247.29,20c7.43,3.53,12.39,9.48,16.16,16.66,1.62,3.08,3.4,6.25,6.81,7.89.32.36.57.84,1,1.06A87.09,87.09,0,0,1,291.6,61.69a15,15,0,0,0,1.07,1.76,62.53,62.53,0,0,1,12.76,26.32,39.5,39.5,0,0,0,7.38,15.3c5,6.57,7.64,13.83,7.33,22.22-.17,4.68-1.48,9.1-2.31,13.61-1.89,10.29-3.44,20.4-1.53,31,1.56,8.66-2,15.74-9.47,20.75-3.83,2.57-8.1,3.35-12.51,4-6.05.86-11,3.2-13.36,9.55A28.3,28.3,0,0,1,253.66,225a21.65,21.65,0,0,0-14.92,5.31c-6.66,5.75-14.23,7.37-22.55,4.56a12,12,0,0,0-10.17.94,35.53,35.53,0,0,1-15.65,4.79c-2.77.13-5.47-.55-8.2-.16a4.13,4.13,0,0,1-3.16.2c-12.86-2.25-23.95-7.82-32.37-18A24.4,24.4,0,0,0,135,214.51c-4.41-1.4-8.26-3.88-10.56-8.08-1.67-3.06-4.26-4.19-7.52-4.31a43.84,43.84,0,0,0-4.44,0c-5.51.35-10.2-1.77-14.58-4.8-4.85-3.35-7.64-8.15-9.25-13.68-1-3.53-3.14-5.57-6.9-5.81a25.58,25.58,0,0,1-7-1.37c-5.48-2-10.94-4.06-14.64-9a47.62,47.62,0,0,1-10.39-18,26.1,26.1,0,0,0-4.71-9.14c-5.52-6.85-7-14.59-4.94-23a14.42,14.42,0,0,0,.33-5.26C40,108.07,39.44,104.09,38.92,100.11Z"/><path class="cls-5" d="M182.17,240.45c-14.78-2.16-27.44-8.19-36.69-20.31A18.12,18.12,0,0,0,136,214c-5-1.54-9-4.33-11.52-9-1.63-3-4.51-3.56-7.57-3.56-3.24,0-6.49.35-9.69-.52-8.75-2.38-14.84-7.76-17.37-16.46-1.42-4.88-4-7.09-9.06-7.55A33.41,33.41,0,0,1,62.32,169c-.67-.55-1.2-1.33-2.15-1.49-4.28,25.31,4.2,46.25,22.48,63.41,13.85,13,30.62,19.81,49.64,20.8,2,.1,2.81.31,2.18,2.69a75.26,75.26,0,0,0-2.14,19.34,8.3,8.3,0,0,0,4.93,8.07,23.62,23.62,0,0,0,22.41-.31c2.23-1.18,4.1-2.93,4.2-5.69.5-13.28,7.43-23.38,16-32.71C180.64,242.22,181.4,241.33,182.17,240.45Z"/><path class="cls-6" d="M276.26,139.77a57.73,57.73,0,0,0,1.13,13.54c1.05,4.58,4.29,7.76,8.48,8.39,4.75.72,9-1.08,11.13-5.45a49.47,49.47,0,0,0,1.64-41.18A9.81,9.81,0,0,0,288.43,109a10.36,10.36,0,0,0-9.09,7.72C277.17,124.66,276.55,132.8,276.26,139.77Z"/><path class="cls-6" d="M179.72,158.92c0,5.88.19,9.8,1.08,13.66,1.1,4.77,4.35,8,8.6,8.62a10.43,10.43,0,0,0,11.26-5.8c4.41-8.45,5.52-17.55,4.85-26.93a42.06,42.06,0,0,0-2.82-12.91c-2-4.95-5.73-7.43-10.71-7.11-4.46.28-8,3.32-9.31,8.16C180.55,144.54,180,152.68,179.72,158.92Z"/><path class="cls-7" d="M252.25,203.43a28.52,28.52,0,0,1-11.18.46c-1.07-.18-2.43-.42-2.87.82-.55,1.54,1,2,2,2.43a15.45,15.45,0,0,0,14.47-.62,5.92,5.92,0,0,1,4.41-.68c7.85,1.49,12.6-2.26,13-10.25.2-4,2.33-6.79,5.12-9.27,1.78-1.59,3.44-3.23,3.8-5.78a8.57,8.57,0,0,0-9.47-10c-4,.34-6.5-.22-8.44-4-1.28-2.5-4.09-3.91-6.88-4.82-.89-.29-1.81-.46-2.33.54-.44.85.16,1.46.73,2.05,2.63,2.75,5.73,5.07,7.94,8.28-1.6,1-3,1.89-4.42,2.82-.8.54-1.35,1.28-.68,2.23s1.37.52,2.11.13a32,32,0,0,1,8.5-3.3,10.57,10.57,0,0,1,4.68-.09,5,5,0,0,1,4,3.57c.52,1.86-.41,3.23-1.77,4.38-4.57,3.85-7.6,8.3-7.22,14.74.2,3.34-1.57,4.62-5,5.07a12.35,12.35,0,0,1-11.58-4.46c-.61-.71-1.18-1.91-2.33-1.12s-.52,2,.11,2.84C249.93,200.66,251,201.9,252.25,203.43Z"/><path class="cls-8" d="M179.6,87.67c-5.37.63-10.58,1.21-15,4.25a2.93,2.93,0,0,1-3.67,0c-5.28-3.05-12.28-2.11-16,2-.5.54-1.44,1-.87,2,.69,1.14,1.6.37,2.3,0A16.29,16.29,0,0,1,158.48,94c2.65.56,2,1.32.65,2.67-2.58,2.57-3.9,5.87-5.11,9.21-.29.8-.86,1.87.26,2.31s1.37-.85,1.71-1.56C160.08,98,166.89,92.88,176.16,91c2.3-.47,4.67-.62,7-.92.49-.06,1-.1,1.13-.72.11-.78-.46-1-1.08-1.07Z"/><path class="cls-8" d="M134.75,191c0,.86,0,1.37.53,1.62.71.34,1.08-.26,1.46-.66,1.9-2,3.65-4,6.51-4.86,2-.59,3.06-.47,3.61,1.79a14.39,14.39,0,0,0,3.21,6.24c.46.5,1,1.14,1.74.61s.47-1.19.15-1.83c-4.28-8.53-3.05-16.54,2.24-24.18.39-.56,1-1.21.25-1.81s-1.45.07-2,.6a20.6,20.6,0,0,0-6.33,13c-.2,1.93-.79,2.3-2.48,2.47a9.77,9.77,0,0,0-8.09,5.19C135.18,189.79,134.93,190.54,134.75,191Z"/><path class="cls-8" d="M195.67,15.44a8.72,8.72,0,0,0-7.91,3.75,4.56,4.56,0,0,1-4.41,2.16,9.83,9.83,0,0,0-6.93,2.82c-.46.41-1,.8-.6,1.46a1.16,1.16,0,0,0,1.58.36c5.84-2.73,11.28-1.5,16.56,1.57.54.31,1.18.48,1.57-.16s0-1.11-.4-1.59a12.19,12.19,0,0,0-3.93-3.07c-1.52-.77-1.27-1.41-.2-2.32,1.8-1.54,4-2,6.21-2.54.88-.22,2.39.21,2.28-1.16s-1.57-1.2-2.64-1.27C196.46,15.42,196.07,15.44,195.67,15.44Z"/><path class="cls-8" d="M229.88,29.63A19.14,19.14,0,0,0,215,36.73c-.64.76-1.5,1.69-.56,2.54s1.64-.4,2.21-.89c6.91-5.9,14.69-6.44,23-3.91.81.25,1.86,1,2.33-.1s-.78-1.72-1.58-2.09C237,30.78,233.66,29.44,229.88,29.63Z"/><path class="cls-8" d="M116.56,46.74a16.57,16.57,0,0,0-10.4,3.36c-.69.49-1.36,1-.78,1.88s1.24.31,1.85.05c8.46-3.64,16.26-2.18,23.6,3,.66.47,1.42,1.49,2.27.62s-.25-1.56-.79-2.14A19.79,19.79,0,0,0,116.56,46.74Z"/><path class="cls-8" d="M198,220.86a23.22,23.22,0,0,0,11.15-3.48c.65-.4,1.57-.77,1-1.77s-1.38-.4-2.08-.12c-6.67,2.66-13.22,2.62-19.58-.93-1.28-.72-2.43-1.68-3.74-2.34-.73-.37-1.48-1.89-2.42-.57-.74,1,.39,1.79,1.05,2.45a21.07,21.07,0,0,0,11.47,6.2Z"/><path class="cls-9" d="M257.43,191c.29,2,1.29,3.64,3.63,3.71a4.05,4.05,0,0,0,4.42-3.83c.24-2,.26-3.86,1.6-5.5a2,2,0,0,0-.09-2.48,2.17,2.17,0,0,0-2.3-.91C261.47,182.65,257.32,187.64,257.43,191Z"/><path class="cls-8" d="M255.15,68.75c.16,1,.94,1.19,1.75,1.11,6.12-.6,10.9,1.85,14.78,6.41.45.54,1.06,1,1.77.49s.32-1.07.06-1.61c-3.31-6.9-10-9.89-17.15-7.58C255.78,67.76,255.26,68,255.15,68.75Z"/><path class="cls-8" d="M130,162.82c0,.68-.12,1.37.61,1.61.92.3,1.22-.48,1.49-1.07,2.61-5.58,7.22-8.35,13.08-9.39.71-.12,1.44-.24,1.29-1.2s-.81-1.06-1.53-1.1A13.55,13.55,0,0,0,130,162.82Z"/><path class="cls-8" d="M229.35,111.94c-2.81.38-5.77,1.28-7.63,4.24-.35.57-.83,1.24-.28,1.89s1.33.3,1.85-.12c3.18-2.54,6.87-2.7,10.67-2.46.71.05,1.73.37,1.89-.8.13-.87-.7-1.12-1.29-1.42A11.14,11.14,0,0,0,229.35,111.94Z"/><path class="cls-8" d="M64.25,156.89c.26,4,1.73,7.18,5.52,9,.6.28,1.28.81,1.88.16.74-.8,0-1.41-.48-2-2.53-2.89-4.17-6.14-4-10.11,0-.79.05-1.82-.85-2-1.16-.2-1.24,1-1.52,1.78A7.58,7.58,0,0,0,64.25,156.89Z"/><path class="cls-8" d="M177.8,228.44c.75-.36,2.1,0,2.36-1.2s-1-1.37-1.75-1.55c-3.71-.84-6.18-3.2-8.16-6.28-.42-.65-.73-1.92-1.91-1.26-.79.44-.47,1.42-.33,2.17C168.82,224.53,173.63,228.54,177.8,228.44Z"/><path class="cls-8" d="M100,84.56c-4.57.16-7.47,2.48-9.23,6.42-.39.86-.68,1.79.39,2.29s1.45-.43,1.84-1.06c2-3.2,5.19-4.37,8.63-5.11.9-.19,2.38.34,2.44-1s-1.4-1.36-2.46-1.53C101,84.51,100.43,84.31,100,84.56Z"/><path class="cls-10" d="M144.86,244.29c.28-.16.69-.27.89-.54a.86.86,0,0,0-.31-1.27,11,11,0,0,0-1.51-.91C118.09,228.22,93.37,213,69.12,197c-1-.69-2.47-2.54-3.43-1.16s1.31,2.07,2.28,2.8a390.66,390.66,0,0,0,72.69,43.87C142,243.08,143.36,243.64,144.86,244.29Z"/><path class="cls-10" d="M158.05,239.26c.61,0,1.16,0,1.32-.58s-.36-1.08-.87-1.36q-3.88-2.15-7.79-4.23Q119.94,216.62,90,198.75a16.51,16.51,0,0,0-1.54-.87,1,1,0,0,0-1.33.26c-.33.47,0,.94.36,1.28a14.6,14.6,0,0,0,1.4,1.09A443,443,0,0,0,156,238.38C156.69,238.7,157.42,239,158.05,239.26Z"/><path class="cls-10" d="M77.1,217.53a15.09,15.09,0,0,1,1.68,1,166.26,166.26,0,0,0,31.51,19.67c.73.35,1.62.84,2.14,0,.71-1.09-.46-1.58-1.13-2q-15.76-9.9-31.58-19.73c-.59-.37-1.22-.72-1.91-.28C77.61,216.4,77.54,216.73,77.1,217.53Z"/><path class="cls-10" d="M156,273.13c.5,1.39-.82,4.06,1.17,4.22s1.43-2.64,1.66-4.07a97,97,0,0,1,4.49-17c.28-.81,1-1.8-.08-2.35s-1.48.63-1.93,1.31A34.44,34.44,0,0,0,156,273.13Z"/><path class="cls-10" d="M63.22,182.55a14,14,0,0,0,1.06,1.3,55.37,55.37,0,0,0,13.4,9.46c.77.4,1.75.93,2.32-.07s-.48-1.38-1-1.88a72.53,72.53,0,0,0-13.44-9.43C64.67,181.45,63.72,180.92,63.22,182.55Z"/><path class="cls-10" d="M137,270.25a14.79,14.79,0,0,0,.41,4.47c.22.64.38,1.44,1.27,1.38.72-.05.88-.72,1-1.31a74.4,74.4,0,0,0,.87-13.25c0-.61-.24-1.24-.89-1.39-.89-.22-1.16.5-1.42,1.16C137.14,263.92,137,266.67,137,270.25Z"/><path class="cls-10" d="M147.12,271a15.21,15.21,0,0,0,.61,5.17c.22.67.4,1.43,1.26,1.38s1.06-.78,1.1-1.5c.17-3.74.34-7.48.46-11.22,0-.76,0-1.72-1-1.86s-1.18.85-1.43,1.56A17,17,0,0,0,147.12,271Z"/><path class="cls-10" d="M128.48,247.92a1.14,1.14,0,0,0,1.29-.47,1,1,0,0,0-.19-1.33,21.14,21.14,0,0,0-9.49-5.1,1,1,0,0,0-1.28.45,1.27,1.27,0,0,0,.37,1.59A22,22,0,0,0,128.48,247.92Z"/><path class="cls-11" d="M295.15,153.66a6.33,6.33,0,0,0-.3-1.57c-.77-2-.27-3.42,1.32-4.94,3.78-3.6,4.25-7.26,1.64-11.7a4,4,0,0,1-.07-4.37c2.89-5.38-.08-12.49-6-14.61a3.39,3.39,0,0,0-3.61.33,3,3,0,0,0-1,3.72c1.81,3.49,1.4,6.32-1.08,9.49-2.05,2.62-1.11,5.89.54,8.65a3.28,3.28,0,0,1-.2,4c-3.15,4.74-1.6,11.61,3.14,14.86a3.47,3.47,0,0,0,3.88.44C294.9,157.14,295.18,155.67,295.15,153.66Z"/><path class="cls-11" d="M197,173a7.38,7.38,0,0,0-.34-1.93c-.72-1.7-.26-2.88,1-4.17,4.27-4.22,4.71-7.16,1.8-12.35-.87-1.55-.57-2.67.18-4.08,2.85-5.33-.23-12.66-6.06-14.61-3.14-1.06-5.13.75-4.6,4.18.64,4.18.45,5.69-1.29,9.35a8.65,8.65,0,0,0,.61,8.46,3.3,3.3,0,0,1,0,4,10.93,10.93,0,0,0,2.46,14.51c1.29,1.07,2.66,1.75,4.33,1.05C196.39,177,197,175.46,197,173Z"/><path class="cls-12" d="M291,134a6.66,6.66,0,0,0,3.12,5.57c.57.35,1.25.72,1.88.09s.26-1.09-.06-1.61a7.81,7.81,0,0,1-1-7.29,1,1,0,0,0-.47-1.27c-.53-.32-1,0-1.32.32A6.26,6.26,0,0,0,291,134Z"/><path class="cls-13" d="M292.18,123.67a3.6,3.6,0,0,0,2.63,3.11c1.11.24,1.55-.72,1.41-1.67-.24-1.63-1-3-2.81-3.23C292.34,121.73,292.12,122.47,292.18,123.67Z"/><path class="cls-12" d="M192.79,153.58a6.5,6.5,0,0,0,3.07,5.44c.59.37,1.28.65,1.89.07s.25-1.09-.06-1.6c-1.39-2.3-2-4.67-.95-7.3a1,1,0,0,0-.47-1.27c-.54-.36-1,0-1.31.3A6.22,6.22,0,0,0,192.79,153.58Z"/><path class="cls-14" d="M198.06,144.35c-.29-1.6-1.09-2.92-2.88-3.17-1-.14-1.37.69-1.18,1.57.33,1.57,1,3.1,2.72,3.46C197.87,146.45,198.06,145.38,198.06,144.35Z"/></g></g></svg>