<svg xmlns="http://www.w3.org/2000/svg" viewBox="0 0 514 93.75"><defs><style>.cls-1{fill:#582974;}</style></defs><g id="Camada_2" data-name="Camada 2"><g id="Layer_1" data-name="Layer 1"><path class="cls-1" d="M38.94,73c.76,3.94,1.48,7.89,2.28,11.82.31,1.51.34,3-1.21,3.68s-2.62-.56-3.44-1.72c-2.52-3.56-5.21-7-7.41-10.78-1.91-3.27-4.11-4.5-7.84-3.24a62.73,62.73,0,0,1-8.62,2c-5.48,1-8.94-1-10.67-6.24C-.54,60.79-.85,53,2.14,45.31c1.77-4.57,4.21-5.07,7.65-1.7A27.57,27.57,0,0,1,16,53c1.27,3.1,3.39,4.38,6.87,4.34,13.35-.17,11.16,0,14.67,10.89.51,1.57.81,3.21,1.21,4.82Z"/><path class="cls-1" d="M86.66,54.55c-.47,4-1,8-1.41,12-.17,1.53-.58,2.93-2.28,3.14S80.64,68.32,80.21,67c-1.31-4.16-2.83-8.28-3.78-12.52C75.6,50.75,73.88,48.91,70,49a62.18,62.18,0,0,1-8.82-.71c-5.53-.69-8.21-3.7-8.28-9.19-.09-8.16,2-15.65,7.17-22.1,3.07-3.81,5.55-3.54,7.8.71a27.39,27.39,0,0,1,3,10.83c.27,3.34,1.91,5.21,5.23,6.22,12.77,3.9,10.63,3.44,10.67,14.84,0,1.65-.2,3.3-.31,5Z"/><path class="cls-1" d="M139.69,47.75c-1.87,3.56-3.76,7.1-5.58,10.68-.7,1.37-1.59,2.53-3.24,2.12s-1.71-2.07-1.63-3.49c.25-4.35.3-8.74.92-13,.54-3.76-.41-6.09-4.11-7.42a64.22,64.22,0,0,1-8-3.8c-4.92-2.61-6.35-6.38-4.46-11.53,2.82-7.66,7.42-13.93,14.56-18.1,4.22-2.47,6.44-1.35,7,3.43a27.37,27.37,0,0,1-1,11.2c-.94,3.21-.07,5.54,2.67,7.67,10.55,8.18,8.71,7,4.7,17.66-.58,1.55-1.37,3-2.06,4.52Z"/><path class="cls-1" d="M396,45.81c-1.84,3.57-3.71,7.12-5.51,10.71-.69,1.37-1.57,2.54-3.23,2.14s-1.72-2.06-1.64-3.48c.22-4.35.24-8.74.84-13,.52-3.76-.45-6.08-4.16-7.39a64.22,64.22,0,0,1-8-3.76c-4.93-2.58-6.39-6.33-4.53-11.5,2.77-7.68,7.33-14,14.45-18.19,4.21-2.49,6.44-1.38,7.06,3.4a27.54,27.54,0,0,1-1,11.2c-.92,3.22,0,5.54,2.72,7.65,10.59,8.12,8.75,6.94,4.8,17.64-.58,1.55-1.35,3-2,4.53Z"/><path class="cls-1" d="M444.91,60.81c-2.83,2.83-5.69,5.65-8.5,8.52-1.08,1.1-2.27,1.94-3.73,1.06s-1-2.48-.51-3.81c1.54-4.08,2.89-8.26,4.77-12.18,1.63-3.42,1.42-5.93-1.72-8.31a63.57,63.57,0,0,1-6.5-6c-3.91-4-4.16-8-.82-12.33,5-6.48,11.23-11.09,19.29-12.95,4.77-1.09,6.56.64,5.7,5.38a27.4,27.4,0,0,1-4.32,10.38c-1.85,2.79-1.72,5.27.26,8.12,7.63,11,6.23,9.27-.78,18.26-1,1.3-2.2,2.47-3.31,3.7Z"/><path class="cls-1" d="M490.8,88.23c-3.67,1.65-7.34,3.27-11,5-1.4.64-2.81,1-3.86-.34s-.07-2.68.88-3.74c2.88-3.27,5.63-6.69,8.78-9.69,2.75-2.62,3.44-5,1.35-8.37A63.55,63.55,0,0,1,483,63.11c-2.26-5.1-1.06-8.94,3.61-11.82,7-4.29,14.45-6.37,22.64-5.24,4.85.67,5.9,2.93,3.41,7.06A27.6,27.6,0,0,1,505,61.27c-2.72,1.95-3.48,4.31-2.64,7.68,3.23,13,2.52,10.88-7.23,16.79-1.41.85-2.93,1.52-4.4,2.28Z"/></g></g></svg>