<?xml version="1.0" encoding="utf-8"?>
<!-- Generator: Adobe Illustrator 25.2.3, SVG Export Plug-In . SVG Version: 6.00 Build 0)  -->
<svg version="1.1" id="Camada_1" xmlns="http://www.w3.org/2000/svg" xmlns:xlink="http://www.w3.org/1999/xlink" x="0px" y="0px"
	 viewBox="0 0 664.4 245" style="enable-background:new 0 0 664.4 245;" xml:space="preserve">
<style type="text/css">
	.st0{fill:#FFFFFF;}
</style>
<g id="Camada_2_1_">
	<g id="Layer_1">
		<path class="st0" d="M7.3,116h54.4c25.6,0,39.6,11,39.6,34.8c0,12.1-4.7,20.9-12.9,26c13.6,4.1,21.5,14.2,21.5,31.2
			c0,21.9-14.8,35.1-40.9,35.1H7.3V116z M44.7,164.4h9.7c6.9,0,9.3-4.1,9.3-10.3c0-6-2.6-10.1-9.2-10.1h-9.9L44.7,164.4z
			 M44.7,215.1h16.8c6.5,0,9.5-4.7,9.5-10.8c0-6.5-2.8-11.2-10.1-11.2H44.7V215.1z"/>
		<path class="st0" d="M130.3,116h57c28.2,0,41.9,18.7,41.9,42.6c0,18.1-9.9,31.4-24.9,36.6c9.3,9.2,17.2,17.6,25.4,17.6
			c3-0.1,6-0.7,8.8-1.9l3.5,29.1c-6,3.2-12.8,4.9-19.6,4.9c-23.4,0-40.4-27.8-54.8-42v40.2h-37.4L130.3,116z M167.7,172.5h12.7
			c7.5,0,10.8-5.6,10.8-12c0-6.5-3.4-12.1-10.8-12.1h-12.7L167.7,172.5z"/>
		<path class="st0" d="M282.8,116h43.5l38.9,127.1H328l-5.2-20.9h-36.6l-5,20.9h-37L282.8,116z M295.1,194.9H314l-9.4-42
			L295.1,194.9z"/>
		<path class="st0" d="M379.6,116H417v127.1h-37.4V116z"/>
		<path class="st0" d="M482,178.8v64.3h-37.2V116H477l40.4,64.3V116h37.6v127.1h-32.5L482,178.8z"/>
		<path class="st0" d="M586.9,203.5c9.2,6.4,19.1,10.3,27.3,10.3c7.1,0,11.8-3.2,11.8-9.3c0-3.7-2.1-6.5-8.2-8.8l-15.3-5.6
			c-17.6-6.5-25.6-16.6-25.6-34.6c0-23.4,17.2-41.1,46.3-41.1c15.3,0,30.9,3.7,39.6,8.4l-10.1,31c-8.9-5.4-19.4-8.9-28-8.9
			c-7.1,0-10.8,3.2-10.8,8.2c0,4.1,2.1,6.7,6.4,8.2l15.7,6.2c20.4,7.8,28.6,18.5,28.6,35.1c0,24.5-16.8,42.4-45.6,42.4
			c-16.4,0-32.5-5.2-40.4-9.3L586.9,203.5z"/>
		<path class="st0" d="M69.4,64.5l-9.1,32.5H29.5L0,0h30.3l17.3,65.1l9.6-34.4L48.5,0h30.7l13.4,60.2L107.2,0h30.7l-29.4,97.1H77.7
			L69.4,64.5z"/>
		<path class="st0" d="M149,97.1V0h69.1v24.7h-41.8v11.7h33v23.1h-33v12.8h41.8v24.7H149z"/>
		<path class="st0" d="M325.7,64.5l-9.1,32.5h-30.7L256.4,0h30.3l17.3,65.1l9.6-34.4L304.9,0h30.7L349,60.2L363.5,0h30.7l-29.4,97.1
			H334L325.7,64.5z"/>
		<path class="st0" d="M420.8,0H454l29.7,97.1h-28.4l-4-16h-28l-3.9,16h-28.2L420.8,0z M430.2,60.2h14.4l-7.1-32.1L430.2,60.2z"/>
		<path class="st0" d="M523.1,48v49.1h-28.4V0h24.6l30.8,49.1V0h28.7v97.1H554L523.1,48z"/>
		<path class="st0" d="M643.4,28.5v68.5h-28.5V28.5h-20.8V0h70.4v28.5H643.4z"/>
	</g>
</g>
</svg>
