<svg xmlns="http://www.w3.org/2000/svg" viewBox="0 0 42.15 29.38"><defs><style>.cls-1{fill:#fff;fill-rule:evenodd;}</style></defs><g id="Camada_2" data-name="Camada 2"><g id="Layer_1" data-name="Layer 1"><path class="cls-1" d="M41.42,4.73A5.33,5.33,0,0,0,36.86.58,143.05,143.05,0,0,0,21.08,0,143.05,143.05,0,0,0,5.3.58,5.33,5.33,0,0,0,.74,4.73a45.35,45.35,0,0,0-.74,10,44.75,44.75,0,0,0,.74,10,5.3,5.3,0,0,0,4.55,4.14,140.82,140.82,0,0,0,15.78.59,140.91,140.91,0,0,0,15.79-.59,5.31,5.31,0,0,0,4.55-4.14,44.75,44.75,0,0,0,.74-10,44.74,44.74,0,0,0-.73-10ZM15.64,21.23V7.29l13.39,7-13.39,7Z"/></g></g></svg>