<?xml version="1.0" encoding="utf-8"?>
<!-- Generator: Adobe Illustrator 25.2.3, SVG Export Plug-In . SVG Version: 6.00 Build 0)  -->
<svg version="1.1" id="Camada_1" xmlns="http://www.w3.org/2000/svg" xmlns:xlink="http://www.w3.org/1999/xlink" x="0px" y="0px"
	 viewBox="0 0 874.1 564.8" style="enable-background:new 0 0 874.1 564.8;" xml:space="preserve">
<style type="text/css">
	.st0{fill:#FAB334;}
	.st1{fill:#DEDC0A;}
	.st2{fill:#DD9BA9;}
	.st3{fill:#C97DA8;}
	.st4{fill:#FFFFFF;}
	.st5{fill:#192B4A;}
	.st6{fill:#F3E4E6;}
	.st7{fill:#F6F6F6;}
	.st8{fill:#532D87;}
	.st9{fill:#F7FCFD;}
	.st10{fill:#F5FBFD;}
	.st11{fill:#F2F9FB;}
	.st12{enable-background:new    ;}
	.st13{fill:#582A74;}
</style>
<g>
	<g>
		<path class="st0" d="M665.9,0.7l-73,174.3l-17.1,25l-42.1,56.5L473.2,313l-38.1,39.4l-1.3,17.1l14.5,17.1l25,19.7l32.9,36.8
			l18.4,57.8l-28.9,2.6L328.6,455L388.3,0.5c-3.2-0.2-6.5-0.3-9.7-0.5l-26.3,197.4l-40.6-8.9L184,340.7l-15.8,76.2l10.5,2.6
			l13.1-72.3l124.9-148.5l32.9,9.2l-46,260.3l198.5,51.3l11.8,26.3l36.8-21l-2.6-22.3l-47.3-97.3l-21-14.5l-21-17.1l-5.3-19.7
			l93.3-85.4l27.5,7.9l12-23.7l111.6-252C687.2,0.9,676.5,0.9,665.9,0.7z"/>
		<polygon class="st0" points="557.3,269.7 496.9,411.6 507.4,427.4 577.1,272.3 		"/>
		<path class="st0" d="M316.8,452.4C312.9,451.1,4,372.2,4,372.2l-4,18.4l319.4,81.5L316.8,452.4z"/>
		<path class="st0" d="M362.8,131.6c-3.9,0-228.7,10.5-228.7,10.5s-6.6-13.1-2.6-13.1c3.9,0,236.6-13.1,236.6-13.1L362.8,131.6z"/>
		<path class="st0" d="M606.4,564.6c4.6-0.3,9.1-0.5,13.7-0.6l-22-21l276-78.9l-3.9-11.8l-270.8,84.1l-6.6-11.8l270.8-78.9v-13.1
			L590.2,518l-10.5-21l266.8-214.3l-7.9-15.8l-92,69.7L574.4,487.9l-53.9-85.4v-11.8l-13.1,19.7l53.9,89.4l34.2,53.9L606.4,564.6z"
			/>
		<path class="st0" d="M576.6,564.5c6-0.2,12.1-0.1,18.1,0.3l-7.1-24.4l-28.9-52.6L536.3,505l-5.3,14.5l21-7.9l15.8,28.9
			L576.6,564.5z"/>
		<polygon class="st0" points="333.9,357.7 394.3,355.1 425.9,351.2 443,351.2 441.7,368.3 407.5,365.6 339.1,374.8 		"/>
		<path class="st1" d="M362.6,194.6l23.8,5.4l14.5,23.7l22.3,21l23.7,23.7l10.5,11.8l46-35.5l-42-19.7c0,0-15.8-13.1-14.5-17.1
			c1.3-3.9,6.6-18.4,6.6-18.4l11.8,15.8l13.1-36.8L481,133l-17-4l-6.6-21l-52.6-11.8l-29-2.6"/>
		<g>
			<path class="st2" d="M456.2,83.1c0,0,2.3-7.7-3.2-12.5c-1.1-2.1-2.7-3.8-4.9-4.6c-1.6-0.6-2.6-1.6-3.5-3.1
				c-1.9-3.1-4.8-4.8-8.5-4.9c-2.6-0.1-5.1,0.1-7.7-0.2s-5.2-0.6-7.8-0.7c-2-0.1-4,0-5.7,1.1c-2.3,1.4-4.2,3.2-6,5.3
				c-1.6,1.9-3.4,3.4-6,3.9c-1.7,0.3-3.3,0.3-5,0.3c-2.2,0-3.8,0.9-4.9,2.7c-0.9,1.4-1.4,3-2,4.5c-1.1,3-2.6,5.7-5.3,7.7
				c-3.1,2.2-4.2,5.3-4.2,9c0,1.8,0.1,3.6,0.4,5.4c0.1,0.4,0.3,1-0.3,1.1c-0.6,0.1-0.5-0.6-0.6-0.9c-0.4-2.6-0.9-5.1-0.5-7.8
				c0.4-3.2,1.8-5.8,4.3-7.7c1.6-1.3,3.1-2.7,3.9-4.7s1.5-3.9,2.4-5.9c1.2-2.6,2.9-4.5,6-4.9c1.5-0.2,2.9,0,4.4-0.1
				c2-0.1,3.8-0.8,5.2-2.2c1.4-1.4,2.8-2.9,4.2-4.2c1.8-1.6,3.7-3.1,6.2-3.6c2.3-0.4,4.7-0.2,7,0.1c1.8,0.2,3.5,0.5,5.3,0.7
				c-2.5-1.1-4.3-2.9-6.2-4.8c-3.7-3.8-9.4-4.7-14.1-2.2c-1.9,1-3.7,1.3-5.8,0.7c-2.9-0.7-5.6-0.1-7.6,2.2c-1.5,1.7-3.3,2-5.3,1.7
				c-2.3-0.4-4.4,0-6.5,1c-2.6,1.2-4.3,3.3-5.6,5.8c-0.6,1.1-1.2,2.2-2.4,2.7c-0.1,0.1-0.2,0.3-0.3,0.4c-2.6,1.5-5,3.4-7.1,5.6
				c-0.1,0.2-0.2,0.4-0.4,0.6c-2.2,2.7-3.7,5.7-4.4,9.1c-0.4,2-1.4,3.7-2.6,5.3c-1.7,2.3-2.6,4.8-2.5,7.7c0.1,1.6,0.5,3.2,0.8,4.7
				c0.7,3.6,1.2,7.1,0.5,10.7c-0.5,3,0.7,5.5,3.3,7.2c1.3,0.9,2.8,1.2,4.3,1.4c2.1,0.3,3.8,1.1,4.6,3.3c1.5,4,5.1,6.6,9.5,6.5
				c2,0,3.7,0.6,5.2,1.8c2.3,2,4.9,2.6,7.8,1.6c1.3-0.4,2.4-0.3,3.5,0.3c1.7,0.9,3.4,1.6,5.4,1.7c1,0,1.9-0.2,2.8-0.1
				c0.4,0.2,0.7,0.1,1.1,0.1c4.5-0.8,8.3-2.7,11.2-6.2c1.1-1.3,2.4-2.3,4-2.8c1.5-0.5,2.9-1.3,3.7-2.8c0.6-1.1,1.5-1.5,2.6-1.5
				c0.5,0,1,0,1.5,0c1.9,0.1,3.5-0.6,5.1-1.7c1.7-1.2,2.6-2.8,3.2-4.7c0.4-1.2,1.1-1.9,2.4-2c0.8-0.1,1.6-0.2,2.4-0.5
				c1.9-0.7,3.8-1.4,5.1-3.1c1.6-1.8,2.9-3.9,3.6-6.2c0.3-1.1,0.9-2.2,1.6-3.2c1.9-2.4,2.4-5.1,1.7-8c-0.2-0.6-0.2-1.2-0.1-1.8
				C455.9,85.9,456.1,84.5,456.2,83.1z"/>
			<path class="st3" d="M406.6,131.7c5.1-0.7,9.5-2.8,12.7-7c0.8-1.1,2-1.7,3.3-2.1c1.7-0.5,3.1-1.5,4-3.1c0.6-1,1.6-1.2,2.6-1.2
				c1.1,0,2.2,0.1,3.4-0.2c3-0.8,5.1-2.7,6-5.7c0.5-1.7,1.4-2.5,3.1-2.6c2.4-0.2,4.5-1.2,6.4-2.7c0.2-0.2,0.4-0.5,0.7-0.5
				c1.5,8.8-1.5,16-7.8,22c-4.8,4.5-10.6,6.9-17.2,7.2c-0.7,0-1,0.1-0.8,0.9c0.6,2.2,0.7,4.4,0.7,6.7c0,1.3-0.6,2.3-1.7,2.8
				c-2.6,1.3-5.2,1.2-7.8-0.1c-0.8-0.4-1.4-1-1.5-2c-0.2-4.6-2.6-8.1-5.5-11.3C407.1,132.3,406.9,132,406.6,131.7z"/>
			<path class="st4" d="M374,96.8c0,1.9-0.1,3.3-0.4,4.7c-0.4,1.6-1.5,2.7-2.9,2.9c-1.6,0.2-3.1-0.4-3.9-1.9
				c-2.3-4.7-2.5-9.4-0.6-14.3c0.6-1.5,2-2.2,3.5-2.1s2.7,1.2,3.2,2.7C373.7,91.6,373.9,94.4,374,96.8z"/>
			<path class="st4" d="M407.4,103.5c0,2-0.1,3.4-0.4,4.7c-0.4,1.7-1.5,2.8-3,3c-1.7,0.2-3.1-0.4-3.9-2c-1.5-2.9-1.9-6.1-1.7-9.3
				c0.1-1.5,0.4-3,1-4.5c0.7-1.7,2-2.6,3.7-2.5c1.5,0.1,2.8,1.2,3.2,2.8C407.2,98.5,407.4,101.3,407.4,103.5z"/>
			<path class="st5" d="M382.3,118.9c1.4,0.3,2.6,0.4,3.9,0.2c0.4-0.1,0.8-0.1,1,0.3c0.2,0.5-0.3,0.7-0.7,0.8
				c-1.7,0.8-3.4,0.7-5-0.2c-0.5-0.3-1-0.3-1.5-0.2c-2.7,0.5-4.4-0.8-4.5-3.6c-0.1-1.4-0.8-2.4-1.8-3.2c-0.6-0.6-1.2-1.1-1.3-2
				c-0.3-2,1.2-3.7,3.3-3.5c1.4,0.1,2.3-0.1,2.9-1.4c0.4-0.9,1.4-1.4,2.4-1.7c0.3-0.1,0.6-0.2,0.8,0.2c0.2,0.3-0.1,0.5-0.3,0.7
				c-0.9,1-2,1.8-2.8,2.9c0.6,0.4,1,0.7,1.5,1c0.3,0.2,0.5,0.4,0.2,0.8c-0.2,0.3-0.5,0.2-0.7,0c-0.9-0.5-1.9-0.9-2.9-1.1
				c-0.5-0.1-1.1-0.2-1.6,0c-0.7,0.2-1.2,0.5-1.4,1.2c-0.2,0.6,0.1,1.1,0.6,1.5c1.6,1.3,2.6,2.9,2.5,5.1c-0.1,1.2,0.5,1.6,1.7,1.8
				c1.6,0.2,2.9-0.3,4-1.5c0.2-0.2,0.4-0.7,0.8-0.4c0.4,0.3,0.2,0.7,0,1C383.1,117.9,382.7,118.4,382.3,118.9z"/>
			<path class="st6" d="M407.5,78.8c1.9,0.2,3.7,0.4,5.2,1.5c0.5,0.3,0.8,0.3,1.3,0c1.8-1.1,4.3-0.7,5.6,0.7
				c0.2,0.2,0.5,0.4,0.3,0.7c-0.2,0.4-0.6,0.1-0.8,0c-1.3-0.8-2.7-1-4.2-0.6c-0.9,0.2-0.7,0.5-0.2,0.9c0.9,0.9,1.4,2,1.8,3.2
				c0.1,0.3,0.3,0.6-0.1,0.8c-0.4,0.2-0.5-0.3-0.6-0.5c-1.4-3-3.8-4.8-7-5.4c-0.8-0.2-1.6-0.2-2.4-0.3c-0.2,0-0.4,0-0.4-0.3
				s0.2-0.3,0.4-0.4C406.7,78.9,407.1,78.9,407.5,78.8z"/>
			<path class="st6" d="M423,114.6c0,0.3,0,0.5-0.2,0.6s-0.4-0.1-0.5-0.2c-0.7-0.7-1.3-1.4-2.3-1.7c-0.7-0.2-1.1-0.2-1.3,0.6
				c-0.2,0.8-0.6,1.5-1.1,2.2c-0.2,0.2-0.3,0.4-0.6,0.2c-0.3-0.2-0.2-0.4-0.1-0.6c1.5-3,1.1-5.7-0.8-8.4c-0.1-0.2-0.3-0.4-0.1-0.6
				c0.3-0.2,0.5,0,0.7,0.2c1.3,1.2,2,2.8,2.2,4.5c0.1,0.7,0.3,0.8,0.9,0.9c1.2,0.1,2.2,0.7,2.8,1.8C422.9,114.2,423,114.4,423,114.6
				z"/>
			<path class="st6" d="M401.9,53.8c1.1,0,2.1,0.4,2.7,1.3c0.4,0.6,0.9,0.8,1.5,0.7c0.9,0,1.7,0.4,2.4,1c0.2,0.1,0.3,0.3,0.2,0.5
				c-0.1,0.2-0.4,0.2-0.5,0.1c-2-0.9-3.9-0.5-5.7,0.5c-0.2,0.1-0.4,0.2-0.5-0.1c-0.1-0.2,0-0.4,0.1-0.6c0.4-0.5,0.8-0.8,1.4-1.1
				c0.5-0.3,0.4-0.5,0.1-0.8c-0.6-0.5-1.4-0.7-2.2-0.9c-0.3-0.1-0.8,0.1-0.8-0.4c0-0.4,0.5-0.4,0.9-0.4
				C401.6,53.8,401.8,53.8,401.9,53.8z"/>
			<path class="st6" d="M390.1,58.7c2.1,0.1,3.8,0.8,5.2,2.5c0.2,0.3,0.5,0.6,0.2,0.9c-0.3,0.3-0.6-0.1-0.8-0.3
				c-2.4-2-5.1-2.2-8-1.4c-0.3,0.1-0.6,0.3-0.8,0c-0.2-0.4,0.3-0.6,0.5-0.7C387.6,59.1,388.8,58.6,390.1,58.7z"/>
			<path class="st6" d="M429.3,64.6c1.2-0.1,2.5,0.4,3.6,1.2c0.2,0.2,0.5,0.3,0.3,0.7c-0.2,0.3-0.4,0.1-0.6,0
				c-2.9-1.3-5.6-0.8-8.2,1c-0.2,0.2-0.5,0.5-0.8,0.2s0.1-0.5,0.3-0.7C425.3,65.4,427,64.6,429.3,64.6z"/>
			<path class="st6" d="M401.1,124.9c-1.5-0.1-2.7-0.5-3.9-1.2c-0.2-0.1-0.5-0.3-0.3-0.6c0.2-0.3,0.5-0.1,0.7,0
				c2.3,0.9,4.6,0.9,6.8-0.3c0.4-0.2,0.8-0.6,1.3-0.8c0.3-0.1,0.5-0.7,0.8-0.2c0.3,0.4-0.1,0.6-0.4,0.9c-1.1,1.1-2.4,1.9-4,2.1
				C401.8,124.8,401.4,124.9,401.1,124.9z"/>
			<path class="st5" d="M380.5,114.6c-0.1,0.7-0.4,1.3-1.3,1.3s-1.4-0.5-1.5-1.3c-0.1-0.7-0.1-1.3-0.6-1.9c-0.2-0.2-0.2-0.6,0-0.9
				s0.4-0.4,0.8-0.3C379.1,111.7,380.6,113.4,380.5,114.6z"/>
			<path class="st6" d="M381.3,72.2c-0.1,0.3-0.3,0.4-0.6,0.4c-2.1-0.2-3.8,0.6-5.1,2.2c-0.2,0.2-0.4,0.4-0.6,0.2
				c-0.2-0.2-0.1-0.4,0-0.6c1.1-2.4,3.5-3.4,5.9-2.6C381.1,71.9,381.3,72,381.3,72.2z"/>
			<path class="st6" d="M424.7,104.8c0,0.2,0,0.5-0.2,0.6c-0.3,0.1-0.4-0.2-0.5-0.4c-0.9-1.9-2.5-2.9-4.5-3.3
				c-0.2,0-0.5-0.1-0.4-0.4c0-0.3,0.3-0.4,0.5-0.4c1.7-0.1,3.1,0.4,4.2,1.7C424.2,103.3,424.5,104,424.7,104.8z"/>
			<path class="st6" d="M390.3,87.2c1,0.1,2,0.4,2.6,1.5c0.1,0.2,0.3,0.4,0.1,0.7c-0.2,0.2-0.5,0.1-0.6,0c-1.1-0.9-2.4-0.9-3.7-0.9
				c-0.2,0-0.6,0.1-0.7-0.3c0-0.3,0.2-0.4,0.4-0.5C389,87.4,389.5,87.2,390.3,87.2z"/>
			<path class="st6" d="M447.5,102.8c-0.1,1.4-0.6,2.5-1.9,3.1c-0.2,0.1-0.4,0.3-0.7,0.1c-0.3-0.3,0-0.5,0.2-0.7
				c0.9-1,1.4-2.1,1.4-3.5c0-0.3,0-0.6,0.3-0.7c0.4-0.1,0.4,0.3,0.5,0.6S447.5,102.4,447.5,102.8z"/>
			<path class="st6" d="M408.1,127.6c-0.3-0.1-0.7,0-0.8-0.4c-0.1-0.4,0.3-0.5,0.6-0.5c1.3-0.3,2.1-1.1,2.8-2.2
				c0.1-0.2,0.3-0.7,0.7-0.4c0.3,0.2,0.2,0.5,0.1,0.8C411.2,126.2,409.6,127.6,408.1,127.6z"/>
			<path class="st6" d="M435.1,77.7c1.6,0.1,2.6,0.9,3.2,2.2c0.1,0.3,0.2,0.6-0.1,0.8c-0.3,0.2-0.5-0.1-0.6-0.4
				c-0.7-1.1-1.8-1.5-3-1.8c-0.3-0.1-0.8,0.1-0.8-0.3c0-0.5,0.5-0.5,0.9-0.5C434.7,77.7,434.9,77.6,435.1,77.7z"/>
			<path class="st7" d="M419.5,133.1c-0.1-0.1-0.2-0.1-0.3-0.2c-0.1-0.2,0-0.3,0.1-0.4c0.2-0.1,0.3-0.2,0.5-0.3
				c9-4.6,17.5-9.9,25.9-15.5c0.4-0.2,0.9-0.9,1.2-0.4c0.3,0.5-0.5,0.7-0.8,1c-7.9,5.9-16.2,11.1-25.2,15.2
				C420.5,132.6,420,132.8,419.5,133.1z"/>
			<path class="st7" d="M415,131.3c-0.2,0-0.4,0-0.5-0.2s0.1-0.4,0.3-0.5c0.9-0.5,1.8-1,2.7-1.5c7.1-3.8,14.1-7.8,21-11.9
				c0.2-0.1,0.3-0.2,0.5-0.3c0.2-0.1,0.4-0.1,0.5,0.1s0,0.3-0.1,0.4c-0.2,0.1-0.3,0.3-0.5,0.4c-7.4,5-15.1,9.4-23.3,13.1
				C415.4,131.1,415.2,131.2,415,131.3z"/>
			<path class="st7" d="M443,123.8c-0.2,0.1-0.4,0.2-0.6,0.4c-3.4,2.7-7,4.9-10.9,6.8c-0.3,0.1-0.6,0.3-0.7,0
				c-0.2-0.4,0.2-0.5,0.4-0.7c3.6-2.3,7.3-4.6,10.9-6.8c0.2-0.1,0.4-0.3,0.7-0.1C442.8,123.4,442.9,123.5,443,123.8z"/>
			<path class="st7" d="M415.7,143.1c-0.2,0.5,0.3,1.4-0.4,1.5c-0.7,0.1-0.5-0.9-0.6-1.4c-0.3-2-0.9-4-1.6-5.9
				c-0.1-0.3-0.3-0.6,0-0.8c0.4-0.2,0.5,0.2,0.7,0.5C415.1,138.7,415.6,140.8,415.7,143.1z"/>
			<path class="st7" d="M447.8,111.7c-0.1,0.1-0.2,0.3-0.4,0.4c-1.4,1.3-2.9,2.4-4.6,3.3c-0.3,0.1-0.6,0.3-0.8,0
				c-0.2-0.3,0.2-0.5,0.4-0.7c1.4-1.3,3-2.3,4.7-3.3C447.3,111.3,447.6,111.1,447.8,111.7z"/>
			<path class="st7" d="M422.3,142.1c0,0.3,0.1,1-0.1,1.6c-0.1,0.2-0.1,0.5-0.4,0.5c-0.2,0-0.3-0.2-0.3-0.5c-0.2-1.5-0.4-3-0.3-4.6
				c0-0.2,0.1-0.4,0.3-0.5c0.3-0.1,0.4,0.2,0.5,0.4C422.2,139.9,422.3,140.8,422.3,142.1z"/>
			<path class="st7" d="M418.7,142.3c0,0.7,0,1.2-0.2,1.8c-0.1,0.2-0.1,0.5-0.4,0.5s-0.4-0.3-0.4-0.5c-0.1-1.3-0.1-2.6-0.2-3.9
				c0-0.3,0-0.6,0.4-0.6c0.4-0.1,0.4,0.3,0.5,0.5C418.7,140.8,418.8,141.6,418.7,142.3z"/>
			<path class="st7" d="M425.2,134.3c-0.2,0-0.3,0-0.4-0.2s-0.1-0.3,0.1-0.5c0.9-0.9,2-1.4,3.3-1.8c0.2,0,0.4,0,0.4,0.2
				c0.1,0.2,0,0.4-0.1,0.6C427.5,133.5,426.4,134,425.2,134.3z"/>
			<path class="st8" d="M367.5,101.7c0-0.1,0-0.3,0.1-0.5c0.3-0.7,0.1-1.2-0.5-1.7c-1.3-1.2-1.5-2.5-0.6-4.1c0.3-0.5,0.3-1,0-1.5
				c-1-1.9,0-4.3,2.1-5.1c0.4-0.2,0.9-0.2,1.3,0.1c0.4,0.3,0.6,0.8,0.4,1.3c-0.6,1.2-0.5,2.2,0.4,3.3c0.7,0.9,0.4,2-0.2,3
				c-0.3,0.5-0.3,0.9,0.1,1.4c1.1,1.6,0.6,4-1.1,5.2c-0.4,0.3-0.9,0.4-1.3,0.1C367.5,102.9,367.4,102.4,367.5,101.7z"/>
			<path class="st8" d="M401.5,108.4c0-0.1,0-0.4,0.1-0.7c0.2-0.6,0.1-1-0.4-1.4c-1.5-1.5-1.6-2.5-0.6-4.3c0.3-0.5,0.2-0.9-0.1-1.4
				c-1-1.8,0.1-4.4,2.1-5.1c1.1-0.4,1.8,0.3,1.6,1.5c-0.2,1.4-0.2,2,0.4,3.2c0.5,1,0.3,2-0.2,2.9c-0.3,0.5-0.3,0.9,0,1.4
				c1.1,1.6,0.7,3.8-0.9,5c-0.4,0.4-0.9,0.6-1.5,0.4C401.7,109.7,401.5,109.2,401.5,108.4z"/>
			<path class="st9" d="M368.9,94.8c-0.1,0.9-0.4,1.5-1.1,1.9c-0.2,0.1-0.4,0.2-0.7,0c-0.2-0.2-0.1-0.4,0-0.6
				c0.5-0.8,0.7-1.6,0.3-2.5c-0.1-0.2,0-0.3,0.2-0.4s0.3,0,0.5,0.1C368.6,93.8,368.8,94.3,368.9,94.8z"/>
			<path class="st10" d="M368.5,91.3c-0.1,0.4-0.3,0.9-0.9,1.1c-0.4,0.1-0.5-0.2-0.5-0.6c0.1-0.6,0.3-1,1-1.1
				C368.4,90.6,368.5,90.9,368.5,91.3z"/>
			<path class="st9" d="M402.9,101.6c-0.1,0.8-0.4,1.4-1.1,1.9c-0.2,0.1-0.4,0.2-0.7,0c-0.2-0.2-0.1-0.4,0-0.6
				c0.5-0.8,0.7-1.6,0.3-2.5c-0.1-0.2,0-0.3,0.2-0.4s0.3,0,0.5,0.1C402.6,100.5,402.9,101,402.9,101.6z"/>
			<path class="st11" d="M401.1,98.4c0.1-0.6,0.4-1,1-1.1c0.3,0,0.5,0.2,0.4,0.5c-0.1,0.5-0.3,1.1-0.9,1.2
				C401.2,99.2,401.1,98.8,401.1,98.4z"/>
		</g>
		<ellipse class="st1" cx="516.3" cy="410.7" rx="47.9" ry="50.2"/>
		<g class="st12">
			<path class="st13" d="M390.5,170.6l-1.2,7.1h-4l2.4-13.7h3.5l2.8,7.1l1.2-7.1h4l-2.4,13.7h-3.5L390.5,170.6z"/>
			<path class="st13" d="M404.7,164.1h4.7l1.6,13.7h-3.9l-0.1-2.3h-3.7l-0.9,2.3h-4.1L404.7,164.1z M404.8,172.6h1.8l-0.1-4.5
				L404.8,172.6z"/>
			<path class="st13" d="M419.5,168.1l-1.7,9.7h-4l1.7-9.7h-2.8l0.7-4h9.6l-0.7,4H419.5z"/>
			<path class="st13" d="M425,164.1h4l-2.4,13.7h-4L425,164.1z"/>
			<path class="st13" d="M443.2,164.3l-4.6,6.6l2.3,6.5l-0.1,0.3h-4.4l-0.9-4.2l-2.4,4.2h-4.6l0.1-0.3l4.5-6.5l-2.2-6.6l0-0.3h4.4
				l0.9,4.3l2.5-4.3h4.6L443.2,164.3z"/>
			<path class="st13" d="M445.1,164.1h4l-2.4,13.7h-4L445.1,164.1z"/>
			<path class="st13" d="M450.8,173.6c0.8,0.6,1.8,1,2.6,1c0.8,0,1.3-0.4,1.3-1.2c0-0.3-0.2-0.6-0.7-0.8l-1.3-0.6
				c-1.5-0.7-2.2-1.5-2.2-3.1c0-2.8,2.2-5,5.6-5c1.6,0,3.1,0.4,4,0.9l-1.5,3.3c-0.8-0.6-1.9-0.9-2.7-0.9c-0.9,0-1.3,0.4-1.3,1.1
				c0,0.3,0.2,0.6,0.6,0.7l1.3,0.6c1.7,0.8,2.4,1.7,2.4,3.3c0,2.8-2.1,5.1-5.6,5.1c-1.7,0-3.3-0.6-4-1L450.8,173.6z"/>
		</g>
		<g class="st12">
			<path class="st13" d="M488.4,420.6l4.5-3.7c1.1-0.9,1.5-1.7,1.5-2.6c0-0.6-0.2-0.9-0.7-0.9c-0.7,0-1.1,0.9-1.3,2.2l-3.6-0.7
				c0.6-3.1,2.5-5.1,5.6-5.1c2.7,0,4.2,1.7,4.2,3.9c0,1.9-0.7,3.1-3,5.1l-1.6,1.4h3.6l-0.6,3.5h-9.2L488.4,420.6z"/>
			<path class="st13" d="M508.3,421.4l-0.4,2.2h-4l0.4-2.2h-5.4l0.5-2.6l5.6-8.9h5.3l-1.5,8.5h1.4l-0.5,2.9H508.3z M504.8,418.5
				l0.6-3.3l-2,3.3H504.8z"/>
			<path class="st13" d="M518.2,409.9h5.4c3.1,0,5.1,2.2,5.1,5.5c0,5.3-3.2,8.2-7.1,8.2h-5.8L518.2,409.9z M521.5,420.1
				c2.1,0,3-1.9,3-4.4c0-1.4-0.6-2.4-1.8-2.4h-1.1l-1.2,6.7H521.5z"/>
			<path class="st13" d="M529.6,423.6l2.4-13.7h9.5l-0.6,3.5h-5.6l-0.3,1.7h4.4l-0.6,3.3h-4.4l-0.3,1.8h5.7l-0.6,3.5H529.6z"/>
		</g>
		<g class="st12">
			<path class="st13" d="M485,428.8h4.7l1.6,13.7h-3.9l-0.1-2.3h-3.7l-0.9,2.3h-4.1L485,428.8z M485,437.3h1.8l-0.1-4.5L485,437.3z"
				/>
			<path class="st13" d="M502.5,433.3c-0.7-0.6-1.5-0.9-2.3-0.9c-2.1,0-3.2,1.7-3.2,4.5c0,1.5,0.7,2.3,1.8,2.3
				c0.4,0,0.9-0.1,1.2-0.3l0.2-1.5h-1.9l0.5-2.8h5.5l-1.2,6.7c-1.2,0.9-3.3,1.6-4.9,1.6c-3.2,0-5.3-2.3-5.3-5.7
				c0-5.2,3.4-8.4,7.3-8.4c1.8,0,3.2,0.5,4.3,1.4L502.5,433.3z"/>
			<path class="st13" d="M512.7,428.6c3.1,0,4.9,2.4,4.9,5.7c0,4.6-2.8,8.4-7.1,8.4c-3.1,0-4.9-2.4-4.9-5.6
				C505.7,432.5,508.4,428.6,512.7,428.6z M511.1,439c1.5,0,2.7-1.5,2.7-4.3c0-1.5-0.6-2.2-1.5-2.2c-1.5,0-2.6,1.6-2.6,4.4
				C509.6,438.2,510.2,439,511.1,439z"/>
			<path class="st13" d="M519.8,438.3c0.8,0.6,1.8,1,2.6,1c0.8,0,1.3-0.4,1.3-1.2c0-0.3-0.2-0.6-0.7-0.8l-1.3-0.6
				c-1.5-0.7-2.2-1.5-2.2-3.1c0-2.8,2.2-5,5.6-5c1.6,0,3.1,0.4,4,0.9l-1.5,3.3c-0.8-0.6-1.9-0.9-2.7-0.9c-0.9,0-1.3,0.4-1.3,1.1
				c0,0.3,0.2,0.6,0.6,0.7l1.3,0.6c1.7,0.8,2.4,1.7,2.4,3.3c0,2.8-2.1,5.1-5.6,5.1c-1.7,0-3.3-0.6-4-1L519.8,438.3z"/>
			<path class="st13" d="M537,432.9l-1.7,9.7h-4l1.7-9.7h-2.8l0.7-4h9.6l-0.7,4H537z"/>
			<path class="st13" d="M547.6,428.6c3.1,0,4.9,2.4,4.9,5.7c0,4.6-2.8,8.4-7.1,8.4c-3.1,0-4.9-2.4-4.9-5.6
				C540.5,432.5,543.3,428.6,547.6,428.6z M545.9,439c1.5,0,2.7-1.5,2.7-4.3c0-1.5-0.6-2.2-1.5-2.2c-1.5,0-2.6,1.6-2.6,4.4
				C544.5,438.2,545,439,545.9,439z"/>
		</g>
		<g class="st12">
			<path class="st1" d="M639.1,401.7l3.3-2.8c1.6-1.3,3.1-0.9,4.1,0.3c1.2,1.4,1.2,3.1,0.4,4.3c0.9,0.2,1.7,0.4,2.2,0
				c0.1-0.1,0.3-0.4,0.4-0.6l1.4,1.9c-0.2,0.4-0.4,0.9-0.9,1.3c-1.4,1.2-3.5,0.1-5-0.2l1.6,2.8l-2.3,1.9L639.1,401.7z M643.7,403.7
				l0.7-0.6c0.5-0.4,0.3-1.1,0-1.5c-0.3-0.3-0.6-0.4-1-0.1l-0.7,0.6L643.7,403.7z"/>
			<path class="st1" d="M651.8,398.6c0.7,1.1,1.2,1.4,1.8,0.9c0.6-0.5,0.6-1.2,0-2.3l-3-5.1l2.3-1.9l3.1,5.3
				c1.3,2.2,1.4,4.5-0.9,6.4c-2.2,1.8-4.1,1.3-5.5-1.1l-3.1-5.3l2.3-1.9L651.8,398.6z"/>
			<path class="st1" d="M655.9,387.5l2.7-2.3l7.5,7l-2.2,1.9l-1.2-1.2l-2.1,1.8l0.6,1.7l-2.3,2L655.9,387.5z M660,392.4l1-0.9
				l-2.2-2.5L660,392.4z"/>
			<path class="st1" d="M664.1,380.6l3.1-2.6c1.8-1.5,3.9-1.2,5.5,0.7c2.5,3,2.1,6.2-0.1,8.1l-3.3,2.8L664.1,380.6z M670.9,384.8
				c1.2-1,0.8-2.5-0.4-4c-0.7-0.8-1.5-1.1-2.2-0.5l-0.6,0.5l2.6,4.4L670.9,384.8z"/>
			<path class="st1" d="M674.8,371.3c1.8-1.5,4-1,5.5,0.9c2.2,2.6,2.5,6.1,0,8.2c-1.8,1.5-3.9,1-5.5-0.9
				C672.6,376.9,672.4,373.4,674.8,371.3z M678.8,378c0.9-0.7,0.8-2.2-0.6-3.8c-0.7-0.8-1.4-1-1.9-0.5c-0.9,0.7-0.7,2.2,0.6,3.7
				C677.6,378.3,678.3,378.5,678.8,378z"/>
			<path class="st1" d="M682.1,365.4l3.2-2.7c1.3-1.1,2.7-1.2,3.6,0c0.8,1,1,2,0.6,3c0.8-0.3,1.6-0.1,2.2,0.7c1.4,1.6,1,3.5-0.8,5
				l-3.7,3.1L682.1,365.4z M686.4,366.9l0.5-0.5c0.4-0.3,0.4-0.8,0-1.3c-0.2-0.3-0.5-0.3-0.8-0.1l-0.5,0.4L686.4,366.9z
				 M688.4,370.4l0.9-0.8c0.4-0.4,0.4-0.9,0-1.4c-0.2-0.3-0.6-0.4-0.9-0.1l-0.9,0.8L688.4,370.4z"/>
			<path class="st1" d="M692.3,356.6c1.8-1.5,4-1,5.5,0.9c2.2,2.6,2.5,6.1,0,8.2c-1.8,1.5-3.9,1-5.5-0.9
				C690.1,362.2,689.8,358.7,692.3,356.6z M696.3,363.3c0.9-0.7,0.8-2.2-0.6-3.8c-0.7-0.8-1.4-1-1.9-0.5c-0.9,0.7-0.7,2.2,0.6,3.7
				C695.1,363.6,695.8,363.7,696.3,363.3z"/>
			<path class="st1" d="M701.8,355.2l2.7,4.6l-2.3,1.9l-5.2-9l2-1.7l5,2.7l-2.7-4.6l2.3-1.9l5.2,9l-2,1.7L701.8,355.2z"/>
			<path class="st1" d="M711.1,350.3l1.6,2.7l-2.2,1.8l-5.2-9l5.2-4.4l1.3,2.3l-3,2.6l1,1.7l2.5-2.1l1.3,2.3L711.1,350.3z"/>
			<path class="st1" d="M711.7,340.4l2.3-1.9l5.2,9l-2.3,1.9L711.7,340.4z"/>
			<path class="st1" d="M723.6,336.9l0.1,3.8l-0.4,0.3l-2.9-1.4l2.7,4.6l-2.3,1.9l-5.2-9l2-1.7l3.7,1.7l0-4.8l2.1-1.8l5.2,9
				l-2.3,1.9L723.6,336.9z"/>
		</g>
		<g class="st12">
			<path class="st1" d="M210.4,101.2l4.3-0.2c2.1-0.1,3,1.2,3.1,2.7c0.1,1.8-0.9,3.2-2.3,3.7c0.6,0.7,1.1,1.4,1.8,1.3
				c0.2,0,0.5-0.1,0.7-0.2l0,2.3c-0.4,0.2-0.9,0.4-1.5,0.5c-1.8,0.1-2.9-2.1-3.8-3.2l-0.4,3.3l-3,0.2L210.4,101.2z M212.9,105.6
				l0.9,0c0.7,0,0.9-0.7,0.9-1.2c0-0.4-0.2-0.7-0.7-0.7l-0.9,0L212.9,105.6z"/>
			<path class="st1" d="M222.4,106.4c-0.2,1.3,0.1,1.8,0.9,1.8c0.8,0,1.2-0.6,1.4-1.9l0.7-5.9l3-0.2l-0.7,6.1
				c-0.3,2.5-1.6,4.4-4.6,4.6c-2.9,0.2-4-1.4-3.7-4.2l0.7-6.1l3-0.2L222.4,106.4z"/>
			<path class="st1" d="M232.3,100l3.5-0.2l1.8,10.1l-2.9,0.2l-0.2-1.7l-2.8,0.1l-0.6,1.7l-3,0.2L232.3,100z M232.7,106.4l1.4-0.1
				l-0.3-3.4L232.7,106.4z"/>
			<path class="st1" d="M243.1,99.5l4-0.2c2.3-0.1,3.8,1.4,4,3.9c0.2,3.9-2.1,6.2-5,6.4l-4.3,0.2L243.1,99.5z M246,106.9
				c1.5-0.1,2.2-1.5,2.1-3.4c-0.1-1.1-0.5-1.7-1.5-1.7l-0.8,0l-0.6,5.1L246,106.9z"/>
			<path class="st1" d="M255.4,98.8l3.5-0.2l1.8,10.1l-2.9,0.2l-0.2-1.7l-2.8,0.1l-0.6,1.7l-3,0.2L255.4,98.8z M255.7,105.2l1.4-0.1
				l-0.3-3.4L255.7,105.2z"/>
			<path class="st1" d="M268.2,105.3l-0.4,3.1l-2.9,0.2l1.3-10.3l6.8-0.4l-0.3,2.6l-4,0.2l-0.2,2l3.3-0.2l-0.3,2.6L268.2,105.3z"/>
			<path class="st1" d="M274.5,97.8l3-0.2l-1.3,10.3l-3,0.2L274.5,97.8z"/>
			<path class="st1" d="M279.6,97.6l4.3-0.2c2.1-0.1,3,1.2,3.1,2.7c0.1,1.8-0.9,3.2-2.3,3.7c0.6,0.7,1.1,1.4,1.8,1.3
				c0.2,0,0.5-0.1,0.7-0.2l0,2.3c-0.4,0.2-0.9,0.4-1.5,0.5c-1.8,0.1-2.9-2.1-3.9-3.2l-0.4,3.3l-3,0.2L279.6,97.6z M282.1,102l0.9,0
				c0.7,0,0.9-0.7,0.9-1.3c0-0.4-0.2-0.7-0.7-0.7l-0.9,0L282.1,102z"/>
			<path class="st1" d="M296,101.7l-2.2,3.1l-0.5,0l-1.4-2.9l-0.7,5.3l-3,0.2l1.3-10.3l2.6-0.1l1.9,3.6l2.9-3.8l2.7-0.1l-1.3,10.3
				l-3,0.2L296,101.7z"/>
			<path class="st1" d="M300.5,106.7l1.3-10.3l7.1-0.4l-0.3,2.6l-4.2,0.2l-0.2,1.2l3.3-0.2l-0.3,2.5l-3.3,0.2l-0.2,1.4l4.2-0.2
				l-0.3,2.6L300.5,106.7z"/>
			<path class="st1" d="M313.1,98.4l-3.2,0.2l0.3-2.6l7-0.4l-0.2,2.1l-3.8,5.8l3.1-0.2l-0.3,2.6l-7,0.4l0.3-2.1L313.1,98.4z"/>
			<path class="st1" d="M320.9,95.4l3.5-0.2l1.8,10.1l-2.9,0.2l-0.2-1.7l-2.8,0.1l-0.6,1.7l-3,0.2L320.9,95.4z M321.3,101.7l1.4-0.1
				l-0.3-3.4L321.3,101.7z"/>
		</g>
		<g class="st12">
			<path class="st1" d="M286.5,419.9l0.8-4.2c0.4-2,1.9-2.6,3.3-2.3c1.8,0.4,2.8,1.7,3,3.1c0.8-0.4,1.6-0.8,1.7-1.4
				c0-0.2,0-0.5,0-0.7l2.3,0.6c0.1,0.4,0.2,1,0.1,1.6c-0.4,1.8-2.7,2.3-4,2.9l3.1,1.2l-0.6,2.9L286.5,419.9z M291.4,418.7l0.2-0.9
				c0.1-0.7-0.4-1.1-1-1.2c-0.4-0.1-0.8,0-0.8,0.5l-0.2,0.9L291.4,418.7z"/>
			<path class="st1" d="M294.5,409.6c1.2,0.5,1.8,0.3,1.9-0.4c0.2-0.8-0.3-1.3-1.5-1.8l-5.5-2.2l0.6-2.9l5.7,2.2
				c2.4,0.9,3.9,2.7,3.3,5.6c-0.6,2.8-2.4,3.6-4.9,2.6l-5.7-2.2l0.6-2.9L294.5,409.6z"/>
			<path class="st1" d="M290.8,398.5l0.7-3.4l10.2,0.8l-0.6,2.9l-1.7-0.2l-0.6,2.7l1.5,1l-0.6,3L290.8,398.5z M297.1,399.7l0.3-1.3
				l-3.3-0.6L297.1,399.7z"/>
			<path class="st1" d="M293.6,384.7l0.8-4c0.5-2.3,2.3-3.4,4.8-2.9c3.9,0.8,5.5,3.5,4.9,6.4l-0.9,4.2L293.6,384.7z M301.6,383.8
				c0.3-1.5-0.9-2.5-2.7-2.9c-1.1-0.2-1.8,0.1-2,1l-0.2,0.8l4.7,1.9L301.6,383.8z"/>
			<path class="st1" d="M305.3,378.4l-9.7-3.8l1.4-6.9l2.5,1l-0.8,4.1l1.2,0.5l0.7-3.3l2.3,0.9l-0.7,3.2l1.3,0.5l0.8-4.1l2.5,1
				L305.3,378.4z"/>
			<path class="st1" d="M304.8,365c0.6-0.5,1-1.2,1.1-1.8c0.1-0.6-0.1-1-0.7-1.1c-0.2,0-0.4,0-0.7,0.4l-0.6,0.8
				c-0.7,1-1.4,1.4-2.6,1.1c-2.1-0.4-3.3-2.3-2.8-4.9c0.2-1.2,0.8-2.2,1.2-2.8l2.2,1.6c-0.6,0.5-1,1.2-1.1,1.8
				c-0.1,0.6,0.1,1,0.6,1.1c0.2,0,0.4,0,0.6-0.3l0.7-0.9c0.8-1.1,1.6-1.5,2.8-1.3c2.1,0.4,3.4,2.3,2.9,4.8c-0.3,1.2-0.9,2.3-1.3,2.8
				L304.8,365z"/>
			<path class="st1" d="M300,352.9l0.7-3.4l10.2,0.8l-0.6,2.9l-1.7-0.2l-0.6,2.7l1.5,1l-0.6,3L300,352.9z M306.2,354.2l0.3-1.3
				l-3.3-0.6L306.2,354.2z"/>
			<path class="st1" d="M306.8,344.4l5,1.9l-0.6,2.9l-9.7-3.8l0.5-2.5l5.6-1l-5-1.9l0.6-3l9.7,3.8l-0.5,2.6L306.8,344.4z"/>
			<path class="st1" d="M307.4,331.7l6.8,2.7l-0.6,2.9l-6.8-2.7l-0.4,2l-2.8-1.1l1.4-7l2.8,1.1L307.4,331.7z"/>
			<path class="st1" d="M305.8,323.4c0.5-2.3,2.5-3.2,4.9-2.8c3.4,0.7,5.7,3.3,5.1,6.4c-0.5,2.3-2.5,3.2-4.8,2.7
				C307.6,329.1,305.2,326.5,305.8,323.4z M313.1,326.1c0.2-1.1-0.7-2.2-2.8-2.6c-1.1-0.2-1.7,0.1-1.9,0.8c-0.2,1.1,0.8,2.1,2.8,2.6
				C312.4,327.1,313,326.8,313.1,326.1z"/>
			<path class="st1" d="M314,319.7c0.6-0.5,1-1.2,1.1-1.8c0.1-0.6-0.1-1-0.7-1.1c-0.2,0-0.4,0-0.7,0.4l-0.6,0.8
				c-0.7,1-1.4,1.4-2.6,1.1c-2.1-0.4-3.3-2.3-2.8-4.9c0.2-1.2,0.8-2.2,1.3-2.8l2.2,1.6c-0.6,0.5-1,1.2-1.1,1.8
				c-0.1,0.6,0.1,1,0.6,1.1c0.2,0,0.4,0,0.6-0.3l0.7-0.9c0.8-1.1,1.6-1.5,2.8-1.3c2.1,0.4,3.4,2.3,2.9,4.8c-0.3,1.3-0.9,2.3-1.3,2.8
				L314,319.7z"/>
			<path class="st1" d="M309.4,306.3l0.9-4.5c0.3-1.5,1.6-2.5,3.5-2.1c2.9,0.6,4.1,2.8,3.7,4.7l-0.3,1.7l2.4,1l-0.6,2.9L309.4,306.3
				z M314.8,305.2l0.2-0.9c0.1-0.6-0.4-1.3-1.3-1.4c-0.5-0.1-1,0.1-1.1,0.5l-0.2,0.9L314.8,305.2z"/>
			<path class="st1" d="M311.9,293.4c0.5-2.3,2.5-3.2,4.9-2.8c3.4,0.7,5.7,3.3,5.1,6.4c-0.5,2.3-2.5,3.2-4.8,2.7
				C313.6,299.1,311.3,296.6,311.9,293.4z M319.2,296.2c0.2-1.1-0.7-2.2-2.8-2.6c-1.1-0.2-1.7,0.1-1.9,0.8c-0.2,1.1,0.8,2.1,2.8,2.6
				C318.4,297.1,319.1,296.8,319.2,296.2z"/>
			<path class="st1" d="M319.3,286.7c1.2,0.5,1.8,0.3,1.9-0.4c0.2-0.8-0.3-1.3-1.5-1.8l-5.5-2.2l0.6-2.9l5.7,2.2
				c2.4,0.9,3.9,2.7,3.3,5.6c-0.6,2.8-2.4,3.6-4.9,2.6l-5.7-2.2l0.6-2.9L319.3,286.7z"/>
			<path class="st1" d="M322.1,279.6c0.6-0.5,1-1.2,1.1-1.8c0.1-0.6-0.1-1-0.7-1.1c-0.2,0-0.4,0-0.7,0.4l-0.6,0.8
				c-0.7,1-1.4,1.4-2.6,1.1c-2.1-0.4-3.3-2.3-2.8-4.9c0.2-1.2,0.8-2.2,1.2-2.8l2.2,1.6c-0.6,0.5-1,1.2-1.1,1.8
				c-0.1,0.6,0.1,1,0.6,1.1c0.2,0,0.4,0,0.6-0.3l0.7-0.9c0.8-1.1,1.6-1.5,2.8-1.3c2.1,0.4,3.4,2.3,2.9,4.8c-0.3,1.3-0.9,2.3-1.3,2.8
				L322.1,279.6z"/>
			<path class="st1" d="M317.3,267.5l0.7-3.4l10.2,0.8l-0.6,2.9l-1.7-0.2l-0.6,2.7l1.5,1l-0.6,3L317.3,267.5z M323.5,268.8l0.3-1.3
				l-3.3-0.6L323.5,268.8z"/>
			<path class="st1" d="M318.8,260.1l0.8-4c0.5-2.3,2.3-3.4,4.8-2.9c3.9,0.8,5.5,3.5,4.9,6.4l-0.9,4.2L318.8,260.1z M326.7,259.2
				c0.3-1.5-0.9-2.5-2.7-2.9c-1.1-0.2-1.8,0.1-2,1l-0.2,0.8l4.7,1.9L326.7,259.2z"/>
			<path class="st1" d="M321.2,248.1l0.7-3.4l10.2,0.8l-0.6,2.9l-1.7-0.2l-0.6,2.7l1.5,1l-0.6,3L321.2,248.1z M327.4,249.3l0.3-1.3
				l-3.3-0.6L327.4,249.3z"/>
		</g>
		<g class="st12">
			<path class="st1" d="M261.7,478.2l4.2,0.9c2,0.5,2.6,1.9,2.3,3.4c-0.4,1.8-1.7,2.8-3.2,2.9c0.4,0.8,0.7,1.6,1.3,1.7
				c0.2,0,0.5,0,0.7,0l-0.6,2.3c-0.4,0.1-1,0.2-1.6,0.1c-1.8-0.4-2.2-2.8-2.9-4.1l-1.3,3l-2.9-0.6L261.7,478.2z M262.9,483.1
				l0.9,0.2c0.7,0.1,1.1-0.4,1.2-1c0.1-0.4,0-0.8-0.5-0.9l-0.9-0.2L262.9,483.1z"/>
			<path class="st1" d="M271.9,486.4c-0.5,1.2-0.4,1.8,0.4,1.9c0.8,0.2,1.3-0.2,1.8-1.4l2.3-5.5l2.9,0.6l-2.3,5.6
				c-1,2.3-2.8,3.8-5.6,3.2c-2.8-0.6-3.5-2.5-2.5-5l2.3-5.6l2.9,0.6L271.9,486.4z"/>
			<path class="st1" d="M283.1,482.9l3.4,0.8l-1,10.2l-2.9-0.6l0.3-1.7l-2.7-0.6l-1,1.5l-3-0.7L283.1,482.9z M281.8,489.1l1.3,0.3
				l0.6-3.3L281.8,489.1z"/>
			<path class="st1" d="M293.7,485.2l3.9,0.9c2.2,0.5,3.3,2.4,2.8,4.8c-0.8,3.8-3.6,5.4-6.5,4.8l-4.2-0.9L293.7,485.2z M294.4,493.2
				c1.5,0.3,2.5-0.9,2.9-2.7c0.2-1.1-0.1-1.8-1-2l-0.8-0.2l-1.9,4.7L294.4,493.2z"/>
			<path class="st1" d="M299.8,497l4-9.6l6.9,1.5l-1,2.4l-4.1-0.9l-0.5,1.2l3.2,0.7l-0.9,2.3l-3.2-0.7l-0.5,1.3l4.1,0.9l-1,2.4
				L299.8,497z"/>
			<path class="st1" d="M315.5,497.4l-1.2,2.9l-2.8-0.6l4-9.6l6.7,1.5l-1,2.5l-3.9-0.9l-0.8,1.8l3.2,0.7l-1,2.5L315.5,497.4z"/>
			<path class="st1" d="M319.7,501.4l4-9.6l6.9,1.5l-1,2.4l-4.1-0.9l-0.5,1.2l3.2,0.7l-0.9,2.3l-3.2-0.7l-0.5,1.3l4.1,0.9l-1,2.4
				L319.7,501.4z"/>
			<path class="st1" d="M332.3,493.8l4.2,0.9c2,0.5,2.6,1.9,2.2,3.4c-0.4,1.8-1.7,2.8-3.2,2.9c0.4,0.8,0.7,1.6,1.3,1.7
				c0.2,0,0.5,0,0.7,0l-0.6,2.3c-0.4,0.1-1,0.2-1.6,0.1c-1.8-0.4-2.2-2.8-2.9-4.1l-1.3,3l-2.9-0.6L332.3,493.8z M333.4,498.7
				l0.9,0.2c0.7,0.1,1.1-0.4,1.2-1c0.1-0.4,0-0.8-0.5-0.9l-0.9-0.2L333.4,498.7z"/>
			<path class="st1" d="M342.9,501.1l-2,5l-2.9-0.6l4-9.6l2.5,0.6l0.9,5.6l2-5l2.9,0.7l-4,9.6l-2.6-0.6L342.9,501.1z"/>
			<path class="st1" d="M354.3,498.6l3.4,0.8l-1,10.2l-2.9-0.6l0.3-1.7l-2.7-0.6l-1,1.5l-3-0.7L354.3,498.6z M353,504.8l1.3,0.3
				l0.6-3.3L353,504.8z"/>
			<path class="st1" d="M362.7,505.5l-2,5l-2.9-0.6l4-9.6l2.5,0.6l0.9,5.6l2-5l2.9,0.7l-4,9.6l-2.6-0.6L362.7,505.5z"/>
			<path class="st1" d="M372.2,502.6l3.9,0.9c2.2,0.5,3.3,2.4,2.8,4.8c-0.8,3.8-3.6,5.4-6.5,4.8l-4.2-0.9L372.2,502.6z M373,510.6
				c1.5,0.3,2.5-0.9,2.9-2.7c0.2-1.1-0.1-1.8-1-2l-0.8-0.2l-1.9,4.7L373,510.6z"/>
			<path class="st1" d="M378.4,514.4l4-9.6l6.9,1.5l-1,2.4l-4.1-0.9l-0.5,1.2l3.2,0.7l-1,2.3l-3.2-0.7l-0.5,1.3l4.1,0.9l-1,2.4
				L378.4,514.4z"/>
			<path class="st1" d="M388.5,513.5c0.5,0.6,1.1,1,1.8,1.2c0.6,0.1,1-0.1,1.2-0.6c0.1-0.2,0-0.5-0.4-0.7l-0.8-0.6
				c-1-0.7-1.4-1.5-1.1-2.6c0.5-2.1,2.4-3.3,4.9-2.7c1.2,0.3,2.2,0.8,2.8,1.3l-1.7,2.2c-0.5-0.6-1.2-1-1.8-1.1
				c-0.6-0.1-1,0.1-1.1,0.6c-0.1,0.2,0,0.4,0.3,0.6l0.9,0.7c1.1,0.8,1.5,1.7,1.2,2.8c-0.5,2.1-2.4,3.3-4.9,2.8
				c-1.2-0.3-2.3-0.9-2.8-1.4L388.5,513.5z"/>
			<path class="st1" d="M405.1,512.9l-2.8,6.8l-2.9-0.6l2.8-6.8l-2-0.4l1.2-2.8l7,1.5l-1.2,2.8L405.1,512.9z"/>
			<path class="st1" d="M413.5,511.6c2.3,0.5,3.2,2.5,2.7,4.9c-0.7,3.4-3.4,5.7-6.5,5c-2.2-0.5-3.1-2.5-2.6-4.9
				C407.7,513.2,410.4,510.9,413.5,511.6z M410.6,518.8c1.1,0.2,2.2-0.7,2.6-2.7c0.2-1.1-0.1-1.7-0.8-1.9c-1.1-0.2-2.2,0.7-2.6,2.8
				C409.7,518,410,518.7,410.6,518.8z"/>
			<path class="st1" d="M424.5,519.3l-2.9,2.4l-0.5-0.1l-0.6-3.2l-2,4.9l-2.9-0.6l4-9.6l2.5,0.6l0.9,4l3.8-2.9l2.7,0.6l-4,9.6
				l-2.9-0.6L424.5,519.3z"/>
			<path class="st1" d="M433.4,516.1l3.4,0.8l-1,10.2l-2.9-0.6l0.3-1.7l-2.7-0.6l-1,1.5l-3-0.7L433.4,516.1z M432,522.3l1.3,0.3
				l0.6-3.3L432,522.3z M436.3,515.9l-2.4-0.5l1.9-2.1l2.8,0.6L436.3,515.9z"/>
			<path class="st1" d="M438.3,524.5c0.5,0.6,1.1,1,1.8,1.2c0.6,0.1,1-0.1,1.2-0.6c0.1-0.2,0-0.5-0.4-0.7l-0.8-0.6
				c-1-0.7-1.4-1.5-1.1-2.6c0.5-2.1,2.4-3.3,4.9-2.7c1.2,0.3,2.2,0.8,2.8,1.3l-1.7,2.2c-0.5-0.6-1.2-1-1.8-1.1
				c-0.6-0.1-1,0.1-1.1,0.6c-0.1,0.2,0,0.4,0.3,0.6l0.9,0.7c1.1,0.8,1.5,1.7,1.2,2.8c-0.5,2.1-2.4,3.3-4.9,2.8
				c-1.2-0.3-2.3-0.9-2.8-1.4L438.3,524.5z"/>
		</g>
		<g class="st12">
			<path class="st1" d="M640.9,172.1l2.5,1.8l-1.3,2.6l-8.4-6.1l3-6.1l2.2,1.5l-1.7,3.6l1.6,1.2l1.4-3l2.2,1.5L640.9,172.1z"/>
			<path class="st1" d="M645.8,169l-8.4-6.1l3.1-6.4l2.1,1.6l-1.8,3.8l1,0.7l1.4-3l2,1.5l-1.4,3l1.1,0.8l1.8-3.8l2.1,1.6L645.8,169z
				"/>
			<path class="st1" d="M641.3,154.9l1.9-3.9c0.9-1.9,2.5-2.1,3.8-1.4c1.7,0.8,2.3,2.3,2.1,3.8c0.9-0.2,1.7-0.3,2-0.9
				c0.1-0.2,0.2-0.5,0.2-0.7l2,1.1c0,0.4,0,1-0.3,1.5c-0.8,1.6-3.2,1.5-4.6,1.8l2.7,1.9l-1.3,2.7L641.3,154.9z M646.3,154.9l0.4-0.8
				c0.3-0.6-0.1-1.2-0.7-1.4c-0.4-0.2-0.7-0.1-0.9,0.3l-0.4,0.8L646.3,154.9z"/>
			<path class="st1" d="M650.9,146.3l4.4,3.1l-1.3,2.7l-8.4-6.1l1.1-2.3l5.7,0.4L648,141l1.3-2.7l8.4,6.1l-1.1,2.4L650.9,146.3z"/>
			<path class="st1" d="M649.1,134.4c-0.5-0.8-0.8-1.6-0.5-2.2c0.5-0.9,1.3-0.8,1.6-1.4c0.2-0.4,0-0.8-0.2-1.1l1.1-0.1
				c0.6,1,0.8,1.6,0.5,2.2c-0.4,0.8-1.4,0.9-1.6,1.4c-0.2,0.3-0.1,0.7,0.1,1.2L649.1,134.4z M651.2,134.6l1.5-3.1l9.7,3.4l-1.3,2.6
				l-1.6-0.7l-1.2,2.5l1.2,1.3l-1.3,2.7L651.2,134.6z M656.9,137.4l0.6-1.2l-3.1-1.4L656.9,137.4z"/>
			<path class="st1" d="M655.9,124.5c1-2.1,3.2-2.5,5.4-1.4c3.1,1.5,4.7,4.6,3.3,7.5c-1,2.1-3.2,2.5-5.4,1.4
				C656.2,130.5,654.5,127.4,655.9,124.5z M662.3,129c0.5-1-0.2-2.3-2-3.2c-1-0.5-1.7-0.3-2,0.3c-0.5,1,0.2,2.3,2.1,3.2
				C661.3,129.7,662,129.6,662.3,129z"/>
			<path class="st1" d="M667.3,112.7l1.6,3.4l-0.2,0.4l-3.2-0.1l4.3,3.1l-1.3,2.7l-8.4-6.1l1.1-2.3l4.1,0l-2-4.4l1.2-2.5l8.4,6.1
				l-1.3,2.7L667.3,112.7z"/>
			<path class="st1" d="M666.4,103.3l1.5-3.1l9.7,3.4l-1.3,2.6l-1.6-0.7l-1.2,2.5l1.2,1.3l-1.3,2.7L666.4,103.3z M672.1,106l0.6-1.2
				l-3.1-1.4L672.1,106z"/>
			<path class="st1" d="M675,93c-0.6,0.3-1.1,0.7-1.4,1.3c-0.7,1.4,0.1,2.7,2,3.6c1,0.5,1.7,0.3,2.1-0.4c0.1-0.3,0.2-0.6,0.2-0.9
				l-1-0.7l-0.6,1.3l-1.7-1.2l1.8-3.7l4.1,3c0.2,1.1,0,2.7-0.5,3.8c-1.1,2.2-3.3,2.8-5.6,1.7c-3.5-1.7-4.5-5-3.2-7.6
				c0.6-1.2,1.4-2,2.4-2.4L675,93z"/>
			<path class="st1" d="M674.6,86.3l1.5-3.1l9.7,3.4l-1.3,2.6l-1.6-0.7l-1.2,2.5l1.2,1.3l-1.3,2.7L674.6,86.3z M680.3,89.1l0.6-1.2
				l-3.1-1.4L680.3,89.1z"/>
			<path class="st1" d="M686.3,85.6l-8.4-6.1l1.3-2.7l6.3,4.5l1.6-3.4l2.1,1.6L686.3,85.6z"/>
			<path class="st1" d="M689,71.1l-1.1,2.4l3.2,2.3l-1.3,2.7l-8.4-6.1l1.3-2.7l3.1,2.2l1.1-2.4l-3.1-2.2l1.3-2.7l8.4,6.1l-1.3,2.7
				L689,71.1z"/>
			<path class="st1" d="M684.9,60.8c-0.5-0.8-0.8-1.6-0.5-2.2c0.5-0.9,1.3-0.8,1.6-1.4c0.2-0.4,0-0.8-0.2-1.1l1.1-0.1
				c0.6,1,0.8,1.6,0.5,2.2c-0.4,0.8-1.4,0.9-1.6,1.4c-0.2,0.3-0.1,0.7,0.1,1.2L684.9,60.8z M686.9,60.9l1.5-3.1l9.7,3.4l-1.3,2.6
				l-1.6-0.7l-1.2,2.5l1.2,1.3l-1.3,2.7L686.9,60.9z M692.6,63.7l0.6-1.2l-3.1-1.4L692.6,63.7z"/>
			<path class="st1" d="M698.6,60.2l-8.4-6.1l3.1-6.4l2.1,1.6l-1.8,3.8l1,0.7l1.4-3l2,1.5l-1.4,3l1.1,0.8l1.8-3.8l2.1,1.6
				L698.6,60.2z"/>
			<path class="st1" d="M700.1,50.1c0.7-0.4,1.3-0.9,1.5-1.4c0.3-0.5,0.1-1-0.4-1.3c-0.2-0.1-0.4-0.1-0.8,0.2l-0.8,0.7
				c-0.9,0.8-1.7,1-2.8,0.5c-1.9-0.9-2.6-3.1-1.5-5.4c0.5-1.1,1.3-1.9,1.9-2.4l1.7,2.1c-0.7,0.4-1.2,1-1.5,1.5
				c-0.3,0.6-0.1,1,0.3,1.2c0.2,0.1,0.4,0.1,0.7-0.1l0.9-0.7c1.1-0.9,2-1.1,3-0.6c1.9,0.9,2.7,3.1,1.6,5.4c-0.6,1.1-1.4,2-2,2.4
				L700.1,50.1z"/>
		</g>
		<polygon class="st1" points="531.9,455.6 520.2,486.8 505.9,451.7 		"/>
		<g>
			<g>
				<path class="st13" d="M516.8,371.3c-8.7,0-15.9,7.1-15.9,15.9c0,8.7,7.1,15.8,15.9,15.8c8.7,0,15.8-7,15.8-15.8
					S525.2,371.3,516.8,371.3z M516.8,400.8c-7.5,0-13.7-6.1-13.7-13.7s6.2-13.8,13.7-13.8s13.6,6.3,13.6,13.8
					C530.4,394.6,524.2,400.8,516.8,400.8z"/>
				<path class="st13" d="M522.9,378.8c-1,0-1.4,0.4-1.8,1.3l-4.3,8.9l0,0l-4.3-8.9c-0.4-0.9-0.8-1.3-1.8-1.3
					c-1.3,0-1.7,0.8-1.7,1.6v13.8c0,0.8,0.6,1.2,1.3,1.2c0.6,0,1.3-0.4,1.3-1.2v-10.3l0,0l3.9,8c0.3,0.6,0.6,0.9,1.3,0.9
					c0.6,0,1-0.3,1.3-0.9l3.9-8l0,0v10.3c0,0.8,0.7,1.2,1.3,1.2c0.7,0,1.3-0.4,1.3-1.2v-13.8C524.6,379.6,524.2,378.8,522.9,378.8z"
					/>
			</g>
		</g>
	</g>
</g>
</svg>
