<svg xmlns="http://www.w3.org/2000/svg" viewBox="0 0 368.43 87.84"><defs><style>.cls-1{fill:none;}.cls-2{fill:#321347;}.cls-3{fill:#fefefe;}.cls-4{fill:#ffb400;}.cls-5{fill:#f9b233;}</style></defs><g id="Camada_2" data-name="Camada 2"><g id="Layer_1" data-name="Layer 1"><rect class="cls-1" width="368.43" height="87.84"/><g id="Слой_322-i7" data-name="Слой 322-i7"><g id="Слой_324-i7" data-name="Слой 324-i7"><g id="Слой_326-i7" data-name="Слой 326-i7"><path class="cls-2" d="M41.06,46.08c3.55,2.83,37.83,42.47,81.09,36.81,41.49-5.43,27.5-51,56.43-54.27s35.8,49.32,71.13,54.74c36.9,5.67,43.49-2.21,56-19.35,13-17.93,22.29-47.19,42.21-54.74C366,2.4,371.81,3.37,366.6,2S328.71-7.33,309,23.19s-31.06,56.63-54.3,39.88c-15-10.83-33.66-48.85-51.92-54.75S166.25-2.77,146.57,24.6,125.11,66.43,99.15,62.13C75,58.11,63.22,51.42,53.62,47.26,44.38,43.25,32.17,39,41.06,46.08Z"/><path class="cls-2" d="M328.12,46.71c-3.5-2.9-37-43.16-80.39-38.3-41.59,4.66-28.45,50.46-57.43,53.23s-34.88-50-70.1-56C83.41-.75,76.67,7,63.89,23.91c-13.37,17.69-23.16,46.78-43.21,54-18.24,6.54-24,5.46-18.86,7s37.7,10,58-20.17,32.1-56.06,55-38.88c14.82,11.11,32.76,49.46,50.9,55.69s36.31,11.76,56.49-15.24,22.23-41.43,48.11-36.64c24.1,4.45,35.72,11.36,45.24,15.7C324.75,49.48,336.88,54,328.12,46.71Z"/><path class="cls-3" d="M84.19,31.8l22.94,30.7a4.35,4.35,0,0,1-.9,6.1l-.82.61a4.4,4.4,0,0,1-6.13-.9l-23-30.7a4.36,4.36,0,0,1,.9-6.1l.83-.61A4.41,4.41,0,0,1,84.19,31.8Z"/><path class="cls-4" d="M190.6,30.08,171.53,63a4.4,4.4,0,0,1-6,1.6l-.84-.48a4.36,4.36,0,0,1-1.6-6l19.07-32.87a4.4,4.4,0,0,1,6-1.6l.84.48A4.36,4.36,0,0,1,190.6,30.08Z"/><path class="cls-4" d="M251,30.64l13.45,31.48a4.37,4.37,0,0,1-2.32,5.72l-.63.27a4.41,4.41,0,0,1-5.75-2.31L242.32,34.32a4.37,4.37,0,0,1,2.32-5.72l.64-.27A4.39,4.39,0,0,1,251,30.64Z"/><path class="cls-3" d="M278.87,20.63l13.44,31.48A4.36,4.36,0,0,1,290,57.83l-.64.27a4.39,4.39,0,0,1-5.74-2.31L270.17,24.31a4.37,4.37,0,0,1,2.32-5.72l.63-.27A4.41,4.41,0,0,1,278.87,20.63Z"/><path class="cls-5" d="M142.73,17.67c-6.08-6-17.68-13.42-28.55-15.51C93.77-1.76,79.6,1.76,63.05,22.7,49.45,39.92,41.07,70,21,77.16,2.77,83.69-3.1,83.2,2.09,84.71s36.34,9.64,58.46-19.22C70,53.16,76.7,41.13,85.67,30.91,101,13.37,123.89,17.22,142.73,17.67Z"/><path class="cls-5" d="M248,8.28C216.43,12.54,215.72,38.63,205.34,53c-4,6.9-9.28,13-16.59,20.16s-19.18,7-26.51,6.45A22,22,0,0,0,166,81.35c18.15,6.23,36.3,11.76,56.49-15.25,9.72-13,15.29-23.34,21.31-29.91,5.49-9.28,9.15-11.88,15.86-15.54,5.6-3,18.81-4.33,29.24-4.17C277.35,10.8,263.52,6.18,248,8.28Z"/><path class="cls-5" d="M226.81,71.69c6.18,5.88,17.92,13.09,28.82,15,20.49,3.54,34.59-.23,50.74-21.48,13.28-17.46,21.1-47.66,41-55.22,18.12-6.87,24-6.48,18.78-7.89s-36.51-9-58.09,20.29c-9.21,12.49-15.7,24.65-24.47,35C268.56,75.22,245.65,71.79,226.81,71.69Z"/><path class="cls-5" d="M121.72,83c31.49-4.85,31.72-30.94,41.83-45.51,3.89-7,9-13.17,16.21-20.46s19-7.38,26.38-6.94a22.47,22.47,0,0,0-3.81-1.66c-18.25-5.9-36.51-11.09-56.19,16.28-9.48,13.19-14.86,23.62-20.76,30.3-5.31,9.38-8.93,12-15.56,15.83-5.54,3.15-18.73,4.67-29.17,4.7C92.34,81,106.24,85.4,121.72,83Z"/></g></g></g></g></g></svg>