<svg xmlns="http://www.w3.org/2000/svg" viewBox="0 0 242.22 225.11"><defs><style>.cls-1{fill:none;}.cls-2{fill:#dedc00;}.cls-3{fill:#321347;}.cls-4{fill:#fff;}</style></defs><g id="Camada_2" data-name="Camada 2"><g id="Layer_1" data-name="Layer 1"><rect class="cls-1" width="242.22" height="225.11"/><path class="cls-2" d="M15,147.88s9.54,4.25,9.73,4.44a30,30,0,0,1,1,2.93c51.15-11.66,100.16-20.77,140.65-22.44a10.13,10.13,0,0,1,7.38,2.81c14.57,13.83,36,28.21,60.93,42.59L242.2,174a55.21,55.21,0,0,1-.64,10c-.57,3.3-1.63,6.37-3.59,7.36a3.14,3.14,0,0,1-1.4.33c-50,6.11-99.74,18.62-144.62,32.74A16.31,16.31,0,0,1,75.7,220.5L15.48,162.09a2.8,2.8,0,0,1-.84-1.77C13.74,156.56,15,149.14,15,147.88Z"/><path class="cls-3" d="M17.19,145.4c54.37-12.65,106.76-22.74,149.6-24.5a10.11,10.11,0,0,1,7.39,2.8c15.36,14.58,38.37,29.78,65,44.92A6,6,0,0,1,237,179.7c-50,6.12-99.75,18.63-144.63,32.74a16.31,16.31,0,0,1-16.25-3.86L15.87,150.17A2.82,2.82,0,0,1,17.19,145.4Z"/><path class="cls-2" d="M173,9.84h0A4.11,4.11,0,0,0,169,7.15c-17.14.88-79,5.11-150.7,23a4.12,4.12,0,0,0-3.11,3.65c-1,12.53-4.42,63-.19,110.22a4.07,4.07,0,0,0,3.5,3.69c.34,0,.65,0,1,0a3.68,3.68,0,0,0,.58-.07c63.21-14.92,132.33-22.61,149.54-24.42a4.08,4.08,0,0,0,3.65-4.46c-4.11-45.33-1.11-92.58,0-107.26A3.8,3.8,0,0,0,173,9.84ZM22,133.6c-2.54-37.72-.65-75.51.54-93a4.79,4.79,0,0,1,3.61-4.3,840.79,840.79,0,0,1,133.6-20.76A4.76,4.76,0,0,1,164.82,20v.61c-1.15,18.84-2.61,54.83,0,90.74a4.77,4.77,0,0,1-4.23,5.07c-24.78,2.77-79.65,9.65-132.83,21.49a4.74,4.74,0,0,1-5.68-3.61A3.21,3.21,0,0,1,22,133.6Z"/><path class="cls-4" d="M102.11,127.52a15.83,15.83,0,0,0-2.92,0c-1,.08-1.92.16-2.88.31s-1.88.35-2.84.58a17,17,0,0,0-2.77.92,1,1,0,0,0,.27,1.84h0a17.8,17.8,0,0,0,2.92,0c1-.07,1.92-.19,2.88-.3a26.67,26.67,0,0,0,2.85-.58,13.87,13.87,0,0,0,2.76-1h0a.94.94,0,0,0,.46-1.23.91.91,0,0,0-.73-.58Z"/><path class="cls-3" d="M2.17,26.72c-1,12.53-4.3,63.51-.11,110.76.54,6.07,7.88,9.88,16.41,10.3a4.11,4.11,0,0,1-3.5-3.69c-4.19-47.25-.77-97.69.19-110.22a4.1,4.1,0,0,1,3.11-3.66C89.93,12.3,151.83,8.07,169,7.18A4.17,4.17,0,0,1,173,9.84C170.7,2,162-.31,155.94,0c-17.13.89-79,5.12-150.65,23A4.07,4.07,0,0,0,2.17,26.72Z"/><path class="cls-3" d="M22.54,40.59c-1.19,17.46-3.08,55.25-.54,93A4.77,4.77,0,0,0,27.07,138a2.09,2.09,0,0,0,.69-.12c53.18-11.84,108-18.72,132.83-21.49a4.74,4.74,0,0,0,4.23-5.07c-2.61-35.91-1.15-71.9,0-90.74a4.76,4.76,0,0,0-4.46-5h-.61A842.12,842.12,0,0,0,26.15,36.33,4.78,4.78,0,0,0,22.54,40.59Z"/><path class="cls-2" d="M13,29a6,6,0,0,0-1.38-1.46,9.89,9.89,0,0,0-1.69-1A8.43,8.43,0,0,0,8.05,26a6.1,6.1,0,0,0-2,0,1,1,0,0,0-.8,1.16,1,1,0,0,0,.38.61l.08,0a9.27,9.27,0,0,0,1.5.89,12.51,12.51,0,0,0,1.5.69c.5.19,1,.42,1.57.61a10.81,10.81,0,0,0,1.69.46l.12,0a.94.94,0,0,0,1.07-.77A1.35,1.35,0,0,0,13,29Z"/><path class="cls-2" d="M165.43,130.92a6.77,6.77,0,0,1,2.35-.11,3.88,3.88,0,0,1,2,1.17c.91.73,1.86,1.46,2.8,2.19.55.43,1.11.91.86,1.35s-1.43.72-2.53.92l-.19,0-5.8,1a8.71,8.71,0,0,1-2.57.16,4.1,4.1,0,0,1-2.48-1.2l-3.06-2.8c-.29-.27-.59-.57-.39-.83a2.86,2.86,0,0,1,1.51-.52H158l5.38-.94h.05c.27,0,.58-.11.92-.18s.72-.16,1.11-.22"/><path class="cls-2" d="M146.41,134.27a7.3,7.3,0,0,1,2.35-.11,3.94,3.94,0,0,1,2,1.17c.92.74,1.87,1.47,2.8,2.2.55.43,1.13.91.87,1.34s-1.42.73-2.53.92l-.19,0-5.8,1a8.7,8.7,0,0,1-2.57.17,4.25,4.25,0,0,1-2.49-1.2l-3-2.8c-.3-.27-.6-.57-.4-.83a2.86,2.86,0,0,1,1.51-.52l.08,0,5.38-.93h0l.92-.19,1.11-.22"/><path class="cls-2" d="M127.39,137.63a6.77,6.77,0,0,1,2.35-.11,3.87,3.87,0,0,1,1.95,1.17c.92.73,1.87,1.46,2.81,2.19.55.43,1.11.91.86,1.35s-1.43.72-2.53.92l-.19,0-5.8,1a8.7,8.7,0,0,1-2.57.17,4.22,4.22,0,0,1-2.49-1.2l-3-2.81c-.29-.27-.59-.57-.4-.83a2.94,2.94,0,0,1,1.52-.52h.08l5.39-.94h0l.92-.19c.35-.08.72-.16,1.11-.22"/><path class="cls-2" d="M108.36,141a7.37,7.37,0,0,1,2.36-.11,3.88,3.88,0,0,1,2,1.18c.92.73,1.87,1.46,2.8,2.19.55.43,1.12.91.87,1.34s-1.43.73-2.53.92l-.19,0-5.8,1a9.06,9.06,0,0,1-2.57.16,4.19,4.19,0,0,1-2.49-1.2l-3.05-2.8c-.29-.27-.59-.57-.39-.83a2.86,2.86,0,0,1,1.51-.52l.08,0,5.38-.93h0c.27,0,.58-.11.92-.19l1.1-.22"/><path class="cls-2" d="M89.35,144.34a6.77,6.77,0,0,1,2.35-.11,3.87,3.87,0,0,1,2,1.17c.92.73,1.87,1.46,2.8,2.19.55.43,1.12.91.87,1.35s-1.43.73-2.53.92l-.19,0-5.8,1a8.7,8.7,0,0,1-2.57.17,4.22,4.22,0,0,1-2.49-1.2c-1-.94-2-1.87-3-2.8-.29-.27-.59-.57-.4-.84a3,3,0,0,1,1.52-.52h.08l5.38-.93h0l.92-.19,1.11-.22"/><path class="cls-2" d="M70.32,147.69a7.07,7.07,0,0,1,2.36-.1,3.8,3.8,0,0,1,1.95,1.17c.92.73,1.87,1.46,2.8,2.19.55.43,1.12.91.87,1.34s-1.43.73-2.53.93l-.19,0-5.8,1a9.06,9.06,0,0,1-2.57.16,4.16,4.16,0,0,1-2.49-1.2l-3-2.8c-.29-.27-.59-.57-.39-.83a2.86,2.86,0,0,1,1.51-.52l.08,0,5.38-.93h0c.27,0,.58-.11.92-.18l1.1-.23"/><path class="cls-2" d="M51.3,151.05a7.37,7.37,0,0,1,2.36-.11,3.94,3.94,0,0,1,2,1.17c.92.74,1.87,1.46,2.8,2.19.55.44,1.12.91.87,1.35s-1.43.73-2.53.92l-.19,0-5.8,1a8.75,8.75,0,0,1-2.58.17,4.21,4.21,0,0,1-2.48-1.2l-3.05-2.8c-.29-.27-.6-.57-.4-.83a3,3,0,0,1,1.52-.53h.08l5.38-.93h.05l.92-.19,1.1-.22"/><path class="cls-2" d="M185.61,146.73a7.3,7.3,0,0,1,2.35-.11,4,4,0,0,1,2,1.17c.92.74,1.86,1.46,2.8,2.19.55.44,1.12.92.87,1.35s-1.43.73-2.53.92l-.2,0-5.79,1a8.75,8.75,0,0,1-2.58.17,4.21,4.21,0,0,1-2.48-1.2l-3-2.8c-.3-.27-.6-.57-.4-.83a3,3,0,0,1,1.51-.53h.09l5.38-.93h.05l.91-.19,1.11-.22"/><path class="cls-2" d="M166.59,150.09a6.77,6.77,0,0,1,2.35-.11,4,4,0,0,1,2,1.17c.92.73,1.87,1.46,2.8,2.19.55.43,1.12.91.86,1.35s-1.42.72-2.52.92l-.2,0-5.79,1a8.43,8.43,0,0,1-2.58.16,4.21,4.21,0,0,1-2.48-1.19l-3.05-2.81c-.3-.27-.6-.57-.4-.83a2.86,2.86,0,0,1,1.51-.52h.08l5.39-.94h0l.92-.19c.35-.08.73-.16,1.11-.22"/><path class="cls-2" d="M147.57,153.44a7.3,7.3,0,0,1,2.35-.11,4,4,0,0,1,2,1.17c.92.74,1.86,1.47,2.8,2.2.55.43,1.12.91.87,1.34s-1.43.73-2.53.92l-.2,0c-1.73.29-45.37,8-55.89,9.84l-1,.2-.17,0-5.8,1a8.66,8.66,0,0,1-2.57.17A4.25,4.25,0,0,1,84.9,169l-3-2.8c-.3-.27-.6-.57-.4-.83a2.94,2.94,0,0,1,1.51-.53h.08l4-.7.71-.14,1.32-.23c.41-.09.88-.19,1.37-.28.33-.06.67-.11,1-.14l54-9.51h.05l.91-.19,1.11-.22"/><path class="cls-4" d="M167.57,165.15a4,4,0,0,1,2.47.42A30.25,30.25,0,0,1,174.8,169l7.89,6.07a19.8,19.8,0,0,1,3.87,3.48c.7,1.06-.08,1.34-.93,1.49l-.16,0c-1.35.22-35.08,6.15-43.22,7.57a3.6,3.6,0,0,1-.72.19l-.14,0-4.53.73a4.19,4.19,0,0,1-2.61-.34,25.2,25.2,0,0,1-5.41-3.6l-9.49-7.6a11.1,11.1,0,0,1-2.24-2.12c-.33-.58.12-.72.61-.81h.08l3.16-.53a2.33,2.33,0,0,1,.42-.11h.1l1-.18a8.39,8.39,0,0,1,1-.28,3.88,3.88,0,0,1,.85,0c9.7-1.7,40.56-7.13,41.76-7.32h0a4.78,4.78,0,0,0,.66-.19,6.51,6.51,0,0,1,.8-.22"/><path class="cls-2" d="M71.49,166.86a7,7,0,0,1,2.35-.1,3.88,3.88,0,0,1,2,1.17c.91.73,1.86,1.46,2.8,2.19.55.43,1.12.91.86,1.35s-1.42.72-2.52.92l-.2,0-5.8,1a8.69,8.69,0,0,1-2.57.16,4.13,4.13,0,0,1-2.48-1.2c-1-.93-2-1.86-3-2.8-.3-.27-.6-.57-.4-.83a2.86,2.86,0,0,1,1.51-.52l.08,0,5.39-.93h0c.27,0,.58-.11.92-.18s.72-.16,1.11-.23"/><path class="cls-2" d="M164.92,140.41a6.72,6.72,0,0,1,2.34-.11,4,4,0,0,1,2,1.17c.92.73,1.87,1.46,2.8,2.19.55.43,1.12.91.86,1.35s-1.42.73-2.52.92l-.2,0-5.79,1a8.75,8.75,0,0,1-2.58.17,4.21,4.21,0,0,1-2.48-1.2l-3.05-2.8c-.3-.27-.6-.58-.4-.84a3,3,0,0,1,1.51-.52h.08l5.39-.93h0l.92-.19,1.12-.22"/><path class="cls-2" d="M145.9,143.76a7.25,7.25,0,0,1,2.34-.11,4,4,0,0,1,2,1.18c.92.73,1.87,1.46,2.8,2.19.55.43,1.12.91.87,1.34s-1.43.73-2.53.92l-.2,0-5.79,1a8.75,8.75,0,0,1-2.58.16,4.16,4.16,0,0,1-2.48-1.2l-3-2.8c-.29-.27-.6-.57-.4-.83a2.9,2.9,0,0,1,1.51-.52l.09,0,5.38-.93h0l.92-.19c.35-.08.73-.16,1.12-.23"/><path class="cls-2" d="M126.88,147.12a7.25,7.25,0,0,1,2.34-.11,4,4,0,0,1,2,1.17c.92.74,1.87,1.46,2.8,2.19.55.43,1.12.91.86,1.35s-1.42.73-2.52.92l-.2,0-5.79,1a8.75,8.75,0,0,1-2.58.17,4.21,4.21,0,0,1-2.48-1.2l-3-2.8c-.3-.27-.6-.57-.4-.83a2.94,2.94,0,0,1,1.51-.53h.08l5.39-.93h0l.92-.19,1.12-.22"/><path class="cls-2" d="M107.86,150.47a7,7,0,0,1,2.34-.1,3.88,3.88,0,0,1,2,1.17c.92.73,1.86,1.46,2.8,2.19.55.43,1.12.91.86,1.35s-1.42.72-2.52.92l-.2,0-5.79,1a8.43,8.43,0,0,1-2.58.16,4.16,4.16,0,0,1-2.48-1.2l-3-2.8c-.3-.27-.6-.57-.4-.83a2.9,2.9,0,0,1,1.51-.52h.09l5.38-.94h0l.92-.19c.35-.08.73-.16,1.12-.23"/><path class="cls-2" d="M88.84,153.83a7.25,7.25,0,0,1,2.34-.11,4,4,0,0,1,2,1.17c.92.74,1.87,1.47,2.8,2.2.55.43,1.12.91.86,1.34s-1.42.73-2.52.92l-.2,0-5.79,1a9.1,9.1,0,0,1-2.58.16,4.21,4.21,0,0,1-2.48-1.2l-3-2.8c-.3-.27-.6-.57-.4-.83a2.86,2.86,0,0,1,1.51-.52l.08,0,5.39-.93h0c.27,0,.58-.11.92-.18s.73-.16,1.12-.23"/><path class="cls-2" d="M69.82,157.19a6.72,6.72,0,0,1,2.34-.11,4,4,0,0,1,2,1.17c.92.73,1.86,1.46,2.8,2.19.55.43,1.12.91.86,1.35s-1.42.72-2.52.92l-.2,0-5.8,1a8.34,8.34,0,0,1-2.57.16,4.18,4.18,0,0,1-2.48-1.19l-3-2.81c-.3-.27-.6-.57-.4-.83a2.9,2.9,0,0,1,1.51-.52h.08l5.39-.93h0l.92-.19c.35-.07.73-.16,1.12-.22"/><path class="cls-2" d="M50.79,160.54a7.32,7.32,0,0,1,2.35-.11,4,4,0,0,1,2,1.18c.92.73,1.86,1.46,2.8,2.19.55.43,1.12.91.86,1.34s-1.42.73-2.52.92l-.2,0-5.79,1a9.1,9.1,0,0,1-2.58.16,4.16,4.16,0,0,1-2.48-1.2l-3-2.8c-.3-.27-.6-.57-.4-.83a2.86,2.86,0,0,1,1.51-.52l.08,0,5.39-.93h0c.27,0,.58-.11.92-.18l1.11-.23"/><polygon class="cls-4" points="70.69 71.77 78.45 79.06 81.3 78.68 79.99 68.87 78.08 69.13 79.17 77.31 71.41 70.02 68.56 70.4 69.87 80.21 71.78 79.95 70.69 71.77"/><path class="cls-4" d="M86,75.91,92.6,75,94,77l2.1-.28-6.65-9.09-2.38.31-4,10.52,2.11-.28Zm2.49-6.52,2.91,4L86.73,74Z"/><polygon class="cls-4" points="100.09 76.16 102 75.91 100.92 67.84 105.61 67.21 105.38 65.48 94.09 66.99 94.33 68.72 99.01 68.1 100.09 76.16"/><rect class="cls-4" x="108.14" y="65.02" width="1.93" height="9.89" transform="translate(-8.31 15.08) rotate(-7.62)"/><polygon class="cls-4" points="119.72 68.47 124 62.99 121.59 63.31 118.36 67.5 114.13 64.31 111.72 64.63 117.3 68.8 112.86 74.46 115.27 74.13 118.66 69.77 123.08 73.09 125.49 72.77 119.72 68.47"/><rect class="cls-4" x="127.36" y="62.45" width="1.93" height="9.89" transform="translate(-7.8 17.61) rotate(-7.62)"/><path class="cls-4" d="M143.46,67.23c-.26-2-1.84-2.45-5-2.34-2.88.09-4.6.49-4.74-.58-.1-.77.95-1.31,3.11-1.6a8.83,8.83,0,0,1,4.3.44l1-1.4a9.27,9.27,0,0,0-5.56-.71c-3.37.45-5.09,1.89-4.84,3.74.21,1.57,1.44,2.18,3.88,2.08a34,34,0,0,1,4.48-.21c.78.11,1.2.44,1.27.95.12.93-1,1.71-3.27,2a8.66,8.66,0,0,1-5.17-.75l-.85,1.49a9.79,9.79,0,0,0,6.27.92C142,70.79,143.74,69.32,143.46,67.23Z"/><path class="cls-4" d="M67.66,67.15l-.63.34s0,0-.07,0-.23-.1-.35,0a.83.83,0,0,1-.32.07c.08-.21.29-.26.46-.41-.13,0-.21,0-.28,0s-.15.09-.18,0-.15,0-.19,0-.17.16-.26.13-.13,0-.18.06a.37.37,0,0,1-.26.12s0,0,0,0,.11-.12.17-.17l0,0,1-.49s.14,0,.11-.09-.11-.05-.17,0l-.05,0a4.7,4.7,0,0,1-1.14.46c-.11,0-.17.07,0,.17-.1,0-.21,0-.25.07s0,0,0,0-.11,0-.14,0-.05.1-.13.12a.26.26,0,0,1,.16-.27.15.15,0,0,0,.09-.13c0-.07-.06-.09-.12-.11L64.61,67a.12.12,0,0,0-.17.08.26.26,0,0,1-.17.14c-.11,0-.11.12,0,.18s0,.11,0,.16a.64.64,0,0,1-.18.1c-.05,0-.1,0-.13,0s-.07-.1,0-.16.11-.11.06-.18-.12,0-.21,0a.83.83,0,0,1,.14-.13c.27-.16.41-.47.72-.59,0,0,.07-.06.1-.1a.26.26,0,0,1,.3-.14c.09,0,.2-.1.16-.15a.1.1,0,0,1,0-.13s0,0,0-.06,0,0-.07,0l-.34.15c-.13,0-.23.14-.35.17a.93.93,0,0,0-.38.16,6.94,6.94,0,0,1-.71.38c-.09.07-.23.1-.26.24s0,0-.07,0-.14,0-.13.07a.07.07,0,0,1,0,.07c-.06,0,0-.1-.06-.12a.68.68,0,0,0-.21.34c0-.18-.14-.11-.22-.07s-.09.09-.14.07-.16,0-.16.17a.18.18,0,0,1,0-.19.07.07,0,0,0-.07-.08c-.06,0,0,0,0,.08a.66.66,0,0,0,0,.14c0,.09,0,.13-.1.08s-.06,0-.09,0a1,1,0,0,1-.21.19s-.1,0-.12.08,0,.07-.08,0,0-.07,0-.1a.18.18,0,0,1,.07,0s.07,0,0-.08a.07.07,0,0,0-.11,0c-.11.08-.24.14-.18.32a0,0,0,0,1,0,.07s0,0,0-.07,0-.14-.08-.07a1.29,1.29,0,0,1-.39.23c-.07,0,0,.09-.07.14s0,.06,0,.06.05,0,0,.08-.1,0,0,.08,0,.14,0,.21a.32.32,0,0,0-.19-.23c-.09,0-.18,0-.27-.07s-.06-.13-.13,0-.12.06-.12.15c.15-.09.15-.09.19.07s0,.08.1,0,.07,0,.08,0,0,0-.07.06a.13.13,0,0,1-.12,0s-.08-.08-.15,0-.09,0-.09-.05,0-.08,0-.1-.08,0-.11,0-.12.25-.18.37,0,.11-.09.08-.16,0-.18.13-.14.2-.26.08a.08.08,0,0,0-.08,0c-.1,0-.24.07-.29.15s-.22.11-.23.24,0,0-.05,0-.17.06-.24.12-.17.21-.32.19a.05.05,0,0,0-.06,0c0,.09-.06.14-.16.09a.08.08,0,0,0-.08,0,3.07,3.07,0,0,1-.35.28c-.2.16-.38.34-.58.49s-.6.48-.89.72-.57.48-.84.74c-.08.07-.16.16-.29.12s0,0,0,0c0,.2-.19.25-.28.38s-.1.09-.15,0a.14.14,0,0,0,0,.1.45.45,0,0,1-.19.33,3.92,3.92,0,0,0-.32.25,1.79,1.79,0,0,0-.31.36.2.2,0,0,1-.14.09c-.1,0-.13.06-.15.13s-.25.14-.24.31h0c-.14,0-.2.11-.26.22S52.22,75,52,75c0,0,0,0-.07.05s-.07.13-.1.19-.34.29-.45.48a.07.07,0,0,1-.06,0c-.1,0-.12.08-.14.15s-.06.23-.23.2,0,0-.05.07,0,.18-.12.24l-.23.25a3,3,0,0,0-.29.33.39.39,0,0,0-.12.28s0,.07,0,.08,0-.07-.06-.11a2.31,2.31,0,0,0-.34-.79c-.08-.11-.15-.23-.23-.35s-.19-.22-.16-.29,0-.24-.11-.33a.64.64,0,0,1-.06-.1c.15.06.11,0,.09-.08a1.06,1.06,0,0,1-.06-.19c0-.11,0-.27-.11-.33s-.13-.23-.22-.33-.1-.2-.24-.16.09-.06.05-.1-.06-.32-.24-.37-.07-.06-.06-.08-.09-.19-.08-.31,0-.06-.08-.07-.08-.07-.12,0,0,.09,0,.11a.33.33,0,0,1,.14.21,2.48,2.48,0,0,0,.18.66,0,0,0,0,1,0,0c-.07-.18-.31-.21-.36-.43s-.15-.16-.21-.25-.13-.12-.18,0a2,2,0,0,0-.42-.45,3.4,3.4,0,0,0-.47-.38,3,3,0,0,0-1.31-.48.37.37,0,0,1-.23-.12.19.19,0,0,0-.2-.09h-.27c-.32,0-.64.06-1,.06a3.32,3.32,0,0,0-.63.11l-.34.06s-.08,0-.07.08,0,0,.07,0,.28,0,.42-.05a2,2,0,0,1,.94-.08l-.06,0a9.92,9.92,0,0,0-1.87.5c-.12,0-.23.11-.27-.09a0,0,0,0,0,0,0,.07.07,0,0,0-.09,0s0,.06,0,.08a.12.12,0,0,1,.05.18.15.15,0,0,1-.18.06c-.05,0-.11,0-.11,0s-.08.13-.14.17a4.23,4.23,0,0,0-.74.51,1.84,1.84,0,0,1-.39.28,1.88,1.88,0,0,0-.69.53,0,0,0,0,1-.07,0,.12.12,0,0,0-.12,0c.1.1,0,.16,0,.23s-.39.33-.57.52a4.61,4.61,0,0,1-.57.51,1.37,1.37,0,0,1-.22.19.29.29,0,0,0-.11.09.82.82,0,0,1-.23.29.89.89,0,0,0-.34.38c0,.09-.16.06-.2.14s-.09.17-.23.18-.13.19-.2.29-.07.21-.22.26a.48.48,0,0,0-.38.38c0,.07,0,.14,0,.2s0,.21-.2.21-.14,0,0,.15,0,.11,0,.17l-.09.14c-.08.16-.09.36-.22.5a.2.2,0,0,0,0,.13.15.15,0,0,1-.13.19c-.08,0-.06.09-.07.15s0,.08.06.08.1.07.08.15,0,0,0,.07a0,0,0,0,0,.07,0c0-.09.1,0,.16,0s.22.19.37.18,0,0,0,0,.08.11.14,0,.08,0,.11,0a.4.4,0,0,0,.45.17.39.39,0,0,1,.24,0,2.29,2.29,0,0,0,.52,0,1.89,1.89,0,0,0,.81-.19.09.09,0,0,0,.05,0,.35.35,0,0,1,.23-.12.78.78,0,0,0,.37-.13,3.77,3.77,0,0,1,.54-.34,3.25,3.25,0,0,0,.53-.32,1.27,1.27,0,0,1,.34-.27,1.54,1.54,0,0,0,.47-.33,2,2,0,0,1,.57-.43c.2-.08.34-.27.55-.37a1.81,1.81,0,0,0,.5-.33.8.8,0,0,1,.53-.32.1.1,0,0,0,.07,0c.12-.2.35-.21.53-.29l.77-.34a.33.33,0,0,1,.13,0,1.24,1.24,0,0,0,.5-.13.18.18,0,0,1,.21,0,.2.2,0,0,1,0,.21c0,.16-.08.31-.1.47s-.12.45-.16.68a2.68,2.68,0,0,0-.11.49c0,.06,0,.13,0,.17a2,2,0,0,0-.21.63,4.52,4.52,0,0,0-.2.9s0,0,0,0c-.09.31-.2.61-.3.92s-.15.9-.29,1.34c0,0,0,.08,0,.1s0-.06.07-.07,0,.1,0,.18a.18.18,0,0,0,0,.1,1.72,1.72,0,0,1,0,.39c0,.1,0,.2.14.21a.05.05,0,0,1,.06,0s0,0,0,0a.07.07,0,0,1-.09,0,.15.15,0,0,0-.23,0,.19.19,0,0,0,0,.26.09.09,0,0,1,0,.15c-.1.07-.09.16-.1.27a.84.84,0,0,0,.06.41s0,.13,0,.12c-.19,0-.08.1-.08.17s0,.07,0,.09a.35.35,0,0,0-.07.29c0,.13,0,.27,0,.4s0,.2,0,.26.07.26.19.34a.19.19,0,0,1,.07.13,1,1,0,0,0,.33.49.38.38,0,0,1,.17.23c0,.1.06.13.13.17a.65.65,0,0,0,.36.07c.15,0,.3.09.46,0,0,0-.08,0,0-.1h0c.13,0,.25.17.4,0h0a.4.4,0,0,0,.24,0c.06,0,.12,0,.17,0s-.1,0-.06.11.09,0,.13,0,0,0,0,0a.47.47,0,0,1,.33,0,.26.26,0,0,0,.21-.06s.11-.07.14,0,.09.07.11,0,0,0,.08-.06a.14.14,0,0,0,.12,0,1.06,1.06,0,0,1,.5-.24s.07,0,.08,0,.17.13.29,0l.12-.07c.08-.06.16-.14.29-.11a.13.13,0,0,0,.16-.07c0-.07-.07-.06-.1-.09l0,0c.14,0,.21-.18.37-.15s0,0,0,0c.05-.18.2-.17.34-.17a.34.34,0,0,0,.31-.1c-.06,0-.13.06-.15,0s0-.11.08-.15a.59.59,0,0,1,.14-.06,1.27,1.27,0,0,0,.22-.13,3.23,3.23,0,0,0,.44-.39c.09-.08.35-.08.25-.33h0a7,7,0,0,0,.63-.7,3.19,3.19,0,0,1,.26-.26c.06-.07,0-.16,0-.21a1.42,1.42,0,0,0,.33-.36,4.55,4.55,0,0,1,.64-.52s.1-.06.13-.11a1.88,1.88,0,0,1,.37-.43c.09-.07.11-.16,0-.24s-.05-.06,0-.09a1.85,1.85,0,0,1,.56-.47,1.51,1.51,0,0,0-.2.34.13.13,0,0,0,.06,0,5,5,0,0,1,.4-.51A.72.72,0,0,0,54,81a.12.12,0,0,1,.05-.12c.11,0,.12-.13.15-.22l0-.06c.13.09.17,0,.23-.1h.07a.14.14,0,0,0,.08,0c.2-.31.46-.59.68-.88,0-.06.1-.12,0-.12a.05.05,0,0,1,0-.08c0-.06,0-.13.11-.14s.07,0,.08.07,0,.09,0,.1.07,0,.09-.09a1.31,1.31,0,0,1,.24-.34,1,1,0,0,0,.36-.65c0-.08,0-.08.11-.06s.17,0,.17-.07.06-.22,0-.34a.2.2,0,0,1,.07-.32c.12-.06.12-.13.06-.21s0-.14,0-.18.15-.17.28-.09,0,0,.08,0A.09.09,0,0,0,57,77a.21.21,0,0,1,.11-.27.23.23,0,0,0,.09-.29c-.06-.13,0-.21.08-.3a1.36,1.36,0,0,0,.45-.5.1.1,0,0,1,.09-.07.23.23,0,0,0,.15-.15c.07-.16.16-.3.38-.29.06,0,.08,0,.11-.08s.13-.29.32-.36.21-.24.31-.36.21-.2.31-.31.37-.15.45-.38c0-.06.12-.09.13-.18s0,0,.09,0a.41.41,0,0,0,.31-.17c0-.06.09-.12.14-.17a.12.12,0,0,1,.14,0s.06,0,0,.08,0,.2-.18.21,0,0-.07.08-.07.23-.18.29A.67.67,0,0,0,60,74s0,.08-.08.08,0,0-.07-.09,0-.08-.08,0a.25.25,0,0,0-.08.32.06.06,0,0,1,0,.1s-.06.05-.09,0,0-.11-.1-.07a.11.11,0,0,0,0,.16c0,.07,0,.13,0,.2s-.25.25-.34.39S59,75,59,75a0,0,0,0,0-.05,0s0,0-.06.07,0,.11,0,.13-.2.22-.32.3a.33.33,0,0,0-.16.28c0,.08,0,.12-.11.12s-.27.18-.24.27a.27.27,0,0,1-.07.27.25.25,0,0,0-.07.21,4.86,4.86,0,0,0,.65-.63,7.18,7.18,0,0,1,.6-.63,4.44,4.44,0,0,0,.6-.54c.27-.31.65-.51.91-.84a.4.4,0,0,1,.24-.14c.19-.08.21-.33.42-.39,0,0,0,0,.09,0a.2.2,0,0,0,.2-.15.35.35,0,0,1,.33-.28c.19,0,.27-.19.41-.27s0-.12,0-.16-.08,0-.11.05a.29.29,0,0,1-.16.09c-.11,0-.16.06-.19.16-.09-.11,0-.2,0-.3s0,.12.09.09.1-.06.08-.1,0-.16-.12-.14-.07,0-.06,0,.06-.2.14-.27,0,.12,0,.14.1,0,.14-.07.29-.28.42-.43.23-.15.23-.3,0,0,.06,0,.15,0,.06-.12,0,0,0,0,0-.1.07-.1,0,0,.05.09,0,.24-.11.32a0,0,0,0,0,0,.07s0,0,.07,0a2.74,2.74,0,0,0,.36-.23s.09-.1.07-.17,0-.14.09-.19c.24-.15.47-.32.71-.45s.16-.29.36-.23c0,0,0,0,0,0a.29.29,0,0,1,.12-.1A2.07,2.07,0,0,1,65,70a1.58,1.58,0,0,0,.42-.31s.09,0,.07-.06,0-.09.08-.13.17-.09.22-.19-.06,0-.08,0-.27.11-.38.21-.07,0-.09,0,0-.06,0-.08.14-.14.23-.18a5.84,5.84,0,0,0,.84-.56c.18-.12.31-.3.5-.41a.13.13,0,0,0,0-.18s-.08,0-.12,0l-.22.09c0-.07.14-.06.13-.14s0,0-.07-.07-.08.06-.12.09-.06-.09,0-.14a1.18,1.18,0,0,1,.18-.13c.24-.09.45-.25.68-.35a1.41,1.41,0,0,0,.42-.26s.09,0,.06-.1S67.69,67.13,67.66,67.15Zm-22.85,20a.13.13,0,0,1-.12,0,1.33,1.33,0,0,1-.72-.68.57.57,0,0,1-.08-.28.14.14,0,0,0,0-.09.9.9,0,0,1-.08-.7.55.55,0,0,0,0-.31s0-.06,0-.09,0-.1.06-.14,0,0,0,0a.14.14,0,0,1,0,.15.09.09,0,0,0,0,.13.34.34,0,0,1,.06.3c0,.21.08.36.13.54a1,1,0,0,0,.13.22.07.07,0,0,1,0,.1c-.09.07,0,.16,0,.22s.09.16.22.11a.24.24,0,0,1,.3.14c.06.14.19.15.3.2s.09,0,.13.08l-.54-.13C44.64,87.05,44.77,87.06,44.81,87.16Zm7.94-12c-.07,0-.06.1-.11.14a.69.69,0,0,0-.13.11l0,0a1,1,0,0,1,.32-.47c.05,0,0,0,0,.07S52.91,75.18,52.75,75.18Zm.91-.78c-.08,0-.07-.09-.09-.13s-.15-.07-.23-.07,0,.06,0,.09.05.1,0,.13a.07.07,0,0,1-.09,0c0-.06-.08-.11,0-.17l.15-.08a.36.36,0,0,0,.26-.26c.05.13.16.16.29.17C53.78,74.15,53.67,74.24,53.66,74.4Zm6.89-3.64a.07.07,0,0,1,.06,0,0,0,0,0,1,0,0c-.09.15-.12.35-.31.43A.44.44,0,0,1,60.55,70.76Zm1,.74a1.39,1.39,0,0,1-.52.53A.06.06,0,0,1,61,72c0-.06,0-.13.12-.16s.08-.11.08-.18a.73.73,0,0,1,.25-.35.17.17,0,0,1,.15,0C61.66,71.43,61.61,71.46,61.59,71.5Zm1.72-2.13c-.21.24-.46.44-.65.7-.07.09-.07.1.06.11a2,2,0,0,1-.6.57.1.1,0,0,0-.06,0c0,.1-.08.12-.15,0a0,0,0,0,0-.07,0s0,.06,0,.08a.31.31,0,0,1,.06.16c0,.14-.08.14-.16.15s-.08-.08-.08-.14a.4.4,0,0,1,0-.15.08.08,0,0,0-.1.06.86.86,0,0,1-.27.32c-.22.15-.31.39-.49.56s-.33.38-.49.57-.15.1-.18.2,0,.06,0,.08A.26.26,0,0,1,60,73c-.13.06-.12.17-.17.26a.85.85,0,0,0-.17.31c0,.07-.08.11-.15.14s-.14,0-.15-.09a.78.78,0,0,1,0-.34c0-.06,0-.15.13-.15s.07,0,.08-.08a2.68,2.68,0,0,1,.44-.73,1.67,1.67,0,0,1,.37-.38.33.33,0,0,0,.13-.25c0-.19,0-.2.22-.2s.18-.08.24-.16a5.88,5.88,0,0,1,.53-.58c.29-.33.67-.54,1-.86a.9.9,0,0,1,.45-.3c.13,0,.2-.17.3-.27l0,0s.06-.11.12,0S63.35,69.34,63.31,69.37Z"/><path class="cls-4" d="M37.66,75.58s.08,0,.12,0a.22.22,0,0,0,.15-.08h-.08c0-.07.08-.09.1-.14a0,0,0,0,1,.07,0s0,.09.07.05,0-.07,0-.12,0-.14.13-.13.07,0,.08,0,.24-.21.34-.34.23-.13.35-.18,0-.12.09-.13.26-.21.39-.31a.3.3,0,0,1,.16-.08c.06,0,0,.07,0,.11s0,0,0,0,.06,0,.05-.07c-.07-.19.09-.19.2-.24s.12,0,.17-.08.12-.15.24-.09,0,0,0,0,0-.08,0-.09,0,.11.07.11a.08.08,0,0,0,.08-.07.26.26,0,0,0,0-.19c0,.06-.16-.08-.2,0a0,0,0,0,1-.07,0,.12.12,0,0,0-.14,0c-.06.11-.26.07-.25.25h0a7.78,7.78,0,0,0-.92.56,1.82,1.82,0,0,1-.23.15.73.73,0,0,0-.17.18,1.37,1.37,0,0,1-.18.15c-.22,0-.3.2-.45.3s0,.1,0,.09-.13.07-.19.1S37.66,75.52,37.66,75.58Z"/><path class="cls-4" d="M57.63,76.6c0,.19-.19.24-.28.35s-.06.06-.09,0-.12,0-.14.12,0,.16-.1.12-.16,0-.17.13a1,1,0,0,1-.07.23s-.05.08,0,.11.07,0,.1,0l.47-.52c.17-.17.33-.35.5-.53C57.72,76.48,57.64,76.48,57.63,76.6Z"/><path class="cls-4" d="M36.83,76.22a.52.52,0,0,1,.11-.1,2,2,0,0,1,.58-.3s.1,0,.09-.11,0-.06-.11,0-.32.26-.51.32-.2,0-.26.13a.28.28,0,0,0,0,.16C36.75,76.33,36.8,76.27,36.83,76.22Z"/><path class="cls-4" d="M63,72a.37.37,0,0,1-.19.16,1.35,1.35,0,0,1-.26.15c-.06,0-.07.08-.06.14s.05,0,.08,0a.2.2,0,0,0,.13-.08.37.37,0,0,1,.19-.16.77.77,0,0,0,.19-.17s.08-.07,0-.11S63,72,63,72Z"/><path class="cls-4" d="M62.67,71.86a.07.07,0,0,0-.06-.07s0,0,0,0-.09.14-.13.21a.47.47,0,0,1-.16.21s-.08,0-.05.06a.06.06,0,0,0,.09,0,.36.36,0,0,1,.15-.08A.45.45,0,0,0,62.67,71.86Z"/><path class="cls-4" d="M74.14,87.08a1.16,1.16,0,0,0,.66-1.22c-.13-1-.86-1.29-2-1.14L70.63,85l.7,5.21,2.52-.34c1.22-.16,1.8-.79,1.68-1.64A1.3,1.3,0,0,0,74.14,87.08Zm-2.32-1.29,1-.13c.55-.07.87,0,.93.48s-.25.62-.79.69L72,87ZM73.58,89l-1.31.18-.16-1.26,1.21-.16c.62-.09,1,0,1.05.51S74.17,88.9,73.58,89Z"/><polygon class="cls-4" points="76.88 89.47 81 88.92 80.87 87.98 77.78 88.4 77.61 87.14 80.14 86.8 80.02 85.86 77.48 86.2 77.33 85.07 80.43 84.66 80.3 83.72 76.18 84.27 76.88 89.47"/><polygon class="cls-4" points="83.67 85.46 82 83.49 80.81 83.65 80.82 83.73 83.26 86.52 83.54 88.58 84.61 88.44 84.33 86.37 85.96 83.04 85.95 82.96 84.76 83.12 83.67 85.46"/><path class="cls-4" d="M88.91,82.49a2.7,2.7,0,1,0,3,2.33A2.64,2.64,0,0,0,88.91,82.49Zm.59,4.35a1.62,1.62,0,0,1-1.85-1.45,1.64,1.64,0,1,1,1.85,1.45Z"/><polygon class="cls-4" points="97.13 85.04 93.73 81.92 92.8 82.05 93.5 87.25 94.57 87.11 94.1 83.61 97.49 86.72 98.43 86.59 97.73 81.39 96.66 81.53 97.13 85.04"/><path class="cls-4" d="M101.49,80.88l-2.24.3.69,5.21,2.25-.3a2.63,2.63,0,1,0-.7-5.21Zm.53,4.28-1.13.15L100.44,82l1.13-.15a1.69,1.69,0,0,1,.45,3.34Z"/><path class="cls-4" d="M110.82,82.18a1.16,1.16,0,0,0,.65-1.22c-.13-.95-.86-1.3-2-1.15l-2.18.29.7,5.21,2.53-.34c1.22-.16,1.79-.78,1.68-1.64A1.29,1.29,0,0,0,110.82,82.18Zm-2.32-1.3,1-.13c.54-.07.87,0,.93.48s-.25.63-.8.7l-.92.12Zm1.75,3.2-1.3.17L108.78,83l1.21-.16c.62-.08,1,0,1.05.52S110.84,84,110.25,84.08Z"/><path class="cls-4" d="M114.27,79.17l-1.38,5.49,1.08-.15.27-1.09,2.37-.32.53,1,1.09-.15L115.52,79Zm.14,3.41.63-2.43,1.19,2.19Z"/><polygon class="cls-4" points="122.74 81.61 119.35 78.49 118.42 78.62 119.11 83.83 120.19 83.68 119.72 80.18 123.11 83.29 124.04 83.17 123.35 77.96 122.28 78.1 122.74 81.61"/><path class="cls-4" d="M129.9,81.51c-.72.1-1.34-1.1-1.78-1.48l1.39-2.73,0-.16-1.11.15-1.13,2.35-1,.14-.29-2.17-1.08.15.7,5.2,1.07-.14-.28-2.11.91-.12c.53.45,1.27,2,2.55,1.88a2.12,2.12,0,0,0,.89-.32l-.23-.83A1.82,1.82,0,0,1,129.9,81.51Z"/><rect class="cls-4" x="131.24" y="76.85" width="1.08" height="5.25" transform="translate(-9.38 18.18) rotate(-7.62)"/><polygon class="cls-4" points="137.81 79.59 134.42 76.48 133.49 76.6 134.18 81.81 135.26 81.67 134.79 78.17 138.18 81.27 139.12 81.15 138.42 75.94 137.35 76.09 137.81 79.59"/><path class="cls-4" d="M142.46,77.57l.12.93,1.37-.19.13,1a2.18,2.18,0,0,1-1,.42,1.62,1.62,0,0,1-2-1.45,1.6,1.6,0,0,1,1.46-1.91,2.24,2.24,0,0,1,1.57.32l.39-.88a3.18,3.18,0,0,0-2.12-.44,2.71,2.71,0,1,0,.72,5.36,4,4,0,0,0,2.13-1l-.33-2.44Z"/></g></g></svg>